Berangeen-Thick.ufo
<glyph name="exclam" format="2">
  <advance width="158"/>
  <unicode hex="0021"/>
  <outline>
    <contour>
      <point x="50" y="812" type="line" smooth="yes"/>
      <point x="50" y="818.399"/>
      <point x="52.4414" y="824.8"/>
      <point x="57.3193" y="829.678" type="curve" smooth="yes"/>
      <point x="62.1973" y="834.556"/>
      <point x="68.5977" y="836.995"/>
      <point x="74.9971" y="836.995" type="curve" smooth="yes"/>
      <point x="81.3965" y="836.995"/>
      <point x="87.7959" y="834.556"/>
      <point x="92.6748" y="829.678" type="curve" smooth="yes"/>
      <point x="97.4746" y="824.878"/>
      <point x="99.9131" y="818.605"/>
      <point x="99.9902" y="812.309" type="curve" smooth="yes"/>
      <point x="105.994" y="323" type="line" smooth="yes"/>
      <point x="105.994" y="316.601"/>
      <point x="103.553" y="310.2"/>
      <point x="98.6748" y="305.322" type="curve" smooth="yes"/>
      <point x="93.7959" y="300.444"/>
      <point x="87.3965" y="298.005"/>
      <point x="80.9971" y="298.005" type="curve" smooth="yes"/>
      <point x="74.5977" y="298.005"/>
      <point x="68.1973" y="300.444"/>
      <point x="63.3193" y="305.322" type="curve" smooth="yes"/>
      <point x="58.5195" y="310.122"/>
      <point x="56.0811" y="316.395"/>
      <point x="56.0039" y="322.691" type="curve" smooth="yes"/>
    </contour>
    <contour>
      <point x="59.002" y="203" type="line" smooth="yes"/>
      <point x="59.002" y="209.399"/>
      <point x="61.4414" y="215.8"/>
      <point x="66.3193" y="220.678" type="curve" smooth="yes"/>
      <point x="71.1973" y="225.556"/>
      <point x="77.5977" y="227.995"/>
      <point x="83.9971" y="227.995" type="curve" smooth="yes"/>
      <point x="90.3965" y="227.995"/>
      <point x="96.7959" y="225.556"/>
      <point x="101.675" y="220.678" type="curve" smooth="yes"/>
      <point x="106.553" y="215.8"/>
      <point x="108.992" y="209.399"/>
      <point x="108.992" y="203" type="curve" smooth="yes"/>
      <point x="108.992" y="137" type="line" smooth="yes"/>
      <point x="108.992" y="130.601"/>
      <point x="106.553" y="124.2"/>
      <point x="101.675" y="119.322" type="curve" smooth="yes"/>
      <point x="96.7959" y="114.444"/>
      <point x="90.3965" y="112.005"/>
      <point x="83.9971" y="112.005" type="curve" smooth="yes"/>
      <point x="77.5977" y="112.005"/>
      <point x="71.1973" y="114.444"/>
      <point x="66.3193" y="119.322" type="curve" smooth="yes"/>
      <point x="61.4414" y="124.2"/>
      <point x="59.002" y="130.601"/>
      <point x="59.002" y="137" type="curve" smooth="yes"/>
    </contour>
  </outline>
</glyph>
<glyph name="quotedbl" format="2">
  <advance width="242"/>
  <unicode hex="0022"/>
  <outline>
    <contour>
      <point x="50" y="737" type="curve" smooth="yes"/>
      <point x="50" y="743.399"/>
      <point x="52.4395" y="749.8"/>
      <point x="57.3174" y="754.678" type="curve" smooth="yes"/>
      <point x="62.1953" y="759.556"/>
      <point x="68.5957" y="761.995"/>
      <point x="74.9951" y="761.995" type="curve" smooth="yes"/>
      <point x="81.3945" y="761.995"/>
      <point x="87.7949" y="759.556"/>
      <point x="92.6729" y="754.678" type="curve" smooth="yes"/>
      <point x="97.2607" y="750.09"/>
      <point x="99.6904" y="744.157"/>
      <point x="99.9639" y="738.144" type="curve" smooth="yes"/>
      <point x="102.964" y="672.144" type="line" smooth="yes"/>
      <point x="102.981" y="671.763"/>
      <point x="102.99" y="671.381"/>
      <point x="102.99" y="671" type="curve" smooth="yes"/>
      <point x="102.99" y="664.601"/>
      <point x="100.551" y="658.2"/>
      <point x="95.6729" y="653.322" type="curve" smooth="yes"/>
      <point x="90.7949" y="648.444"/>
      <point x="84.3945" y="646.005"/>
      <point x="77.9951" y="646.005" type="curve" smooth="yes"/>
      <point x="71.5957" y="646.005"/>
      <point x="65.1953" y="648.444"/>
      <point x="60.3174" y="653.322" type="curve" smooth="yes"/>
      <point x="55.7295" y="657.91"/>
      <point x="53.2988" y="663.843"/>
      <point x="53.0264" y="669.856" type="curve" smooth="yes"/>
      <point x="50.0264" y="735.856" type="line" smooth="yes"/>
      <point x="50.0088" y="736.237"/>
      <point x="50" y="736.619"/>
    </contour>
    <contour>
      <point x="140" y="740" type="curve" smooth="yes"/>
      <point x="140" y="746.399"/>
      <point x="142.439" y="752.8"/>
      <point x="147.317" y="757.678" type="curve" smooth="yes"/>
      <point x="152.195" y="762.556"/>
      <point x="158.596" y="764.995"/>
      <point x="164.995" y="764.995" type="curve" smooth="yes"/>
      <point x="171.395" y="764.995"/>
      <point x="177.795" y="762.556"/>
      <point x="182.673" y="757.678" type="curve" smooth="yes"/>
      <point x="187.261" y="753.09"/>
      <point x="189.69" y="747.157"/>
      <point x="189.964" y="741.144" type="curve" smooth="yes"/>
      <point x="192.964" y="675.144" type="line" smooth="yes"/>
      <point x="192.981" y="674.763"/>
      <point x="192.99" y="674.381"/>
      <point x="192.99" y="674" type="curve" smooth="yes"/>
      <point x="192.99" y="667.601"/>
      <point x="190.551" y="661.2"/>
      <point x="185.673" y="656.322" type="curve" smooth="yes"/>
      <point x="180.795" y="651.444"/>
      <point x="174.395" y="649.005"/>
      <point x="167.995" y="649.005" type="curve" smooth="yes"/>
      <point x="161.596" y="649.005"/>
      <point x="155.195" y="651.444"/>
      <point x="150.317" y="656.322" type="curve" smooth="yes"/>
      <point x="145.729" y="660.91"/>
      <point x="143.299" y="666.843"/>
      <point x="143.026" y="672.856" type="curve" smooth="yes"/>
      <point x="140.026" y="738.856" type="line" smooth="yes"/>
      <point x="140.009" y="739.237"/>
      <point x="140" y="739.619"/>
    </contour>
  </outline>
</glyph>
<glyph name="numbersign" format="2">
  <advance width="560"/>
  <unicode hex="0023"/>
  <outline>
    <contour>
      <point x="74.9951" y="230.005" type="curve" smooth="yes"/>
      <point x="68.5957" y="230.005"/>
      <point x="62.1953" y="232.444"/>
      <point x="57.3174" y="237.322" type="curve" smooth="yes"/>
      <point x="52.4395" y="242.2"/>
      <point x="50" y="248.601"/>
      <point x="50" y="255" type="curve" smooth="yes"/>
      <point x="50" y="261.399"/>
      <point x="52.4395" y="267.8"/>
      <point x="57.3174" y="272.678" type="curve" smooth="yes"/>
      <point x="62.0557" y="277.416"/>
      <point x="68.2295" y="279.853"/>
      <point x="74.4434" y="279.989" type="curve" smooth="yes"/>
      <point x="485.443" y="288.989" type="line" smooth="yes"/>
      <point x="485.628" y="288.993"/>
      <point x="485.812" y="288.995"/>
      <point x="485.995" y="288.995" type="curve" smooth="yes"/>
      <point x="492.395" y="288.995"/>
      <point x="498.795" y="286.556"/>
      <point x="503.673" y="281.678" type="curve" smooth="yes"/>
      <point x="508.551" y="276.8"/>
      <point x="510.99" y="270.399"/>
      <point x="510.99" y="264" type="curve" smooth="yes"/>
      <point x="510.99" y="257.601"/>
      <point x="508.551" y="251.2"/>
      <point x="503.673" y="246.322" type="curve" smooth="yes"/>
      <point x="498.935" y="241.584"/>
      <point x="492.761" y="239.147"/>
      <point x="486.547" y="239.011" type="curve" smooth="yes"/>
      <point x="75.5469" y="230.011" type="line" smooth="yes"/>
      <point x="75.3623" y="230.007"/>
      <point x="75.1787" y="230.005"/>
    </contour>
    <contour>
      <point x="74.9951" y="430.005" type="curve" smooth="yes"/>
      <point x="68.5957" y="430.005"/>
      <point x="62.1953" y="432.444"/>
      <point x="57.3174" y="437.322" type="curve" smooth="yes"/>
      <point x="52.4395" y="442.2"/>
      <point x="50" y="448.601"/>
      <point x="50" y="455" type="curve" smooth="yes"/>
      <point x="50" y="461.399"/>
      <point x="52.4395" y="467.8"/>
      <point x="57.3174" y="472.678" type="curve" smooth="yes"/>
      <point x="62.0557" y="477.416"/>
      <point x="68.2295" y="479.853"/>
      <point x="74.4434" y="479.989" type="curve" smooth="yes"/>
      <point x="485.443" y="488.989" type="line" smooth="yes"/>
      <point x="485.628" y="488.993"/>
      <point x="485.812" y="488.995"/>
      <point x="485.995" y="488.995" type="curve" smooth="yes"/>
      <point x="492.395" y="488.995"/>
      <point x="498.795" y="486.556"/>
      <point x="503.673" y="481.678" type="curve" smooth="yes"/>
      <point x="508.551" y="476.8"/>
      <point x="510.99" y="470.399"/>
      <point x="510.99" y="464" type="curve" smooth="yes"/>
      <point x="510.99" y="457.601"/>
      <point x="508.551" y="451.2"/>
      <point x="503.673" y="446.322" type="curve" smooth="yes"/>
      <point x="498.935" y="441.584"/>
      <point x="492.761" y="439.147"/>
      <point x="486.547" y="439.011" type="curve" smooth="yes"/>
      <point x="75.5469" y="430.011" type="line" smooth="yes"/>
      <point x="75.3623" y="430.007"/>
      <point x="75.1787" y="430.005"/>
    </contour>
    <contour>
      <point x="398.995" y="566.995" type="curve" smooth="yes"/>
      <point x="405.395" y="566.995"/>
      <point x="411.795" y="564.556"/>
      <point x="416.673" y="559.678" type="curve" smooth="yes"/>
      <point x="421.551" y="554.8"/>
      <point x="423.99" y="548.399"/>
      <point x="423.99" y="542" type="curve" smooth="yes"/>
      <point x="423.99" y="540.721"/>
      <point x="423.893" y="539.441"/>
      <point x="423.698" y="538.174" type="curve" smooth="yes"/>
      <point x="369.698" y="187.174" type="line" smooth="yes"/>
      <point x="367.93" y="175.684"/>
      <point x="357.346" y="166.005"/>
      <point x="344.995" y="166.005" type="curve" smooth="yes"/>
      <point x="338.596" y="166.005"/>
      <point x="332.195" y="168.444"/>
      <point x="327.317" y="173.322" type="curve" smooth="yes"/>
      <point x="322.439" y="178.2"/>
      <point x="320" y="184.601"/>
      <point x="320" y="191" type="curve" smooth="yes"/>
      <point x="320" y="192.279"/>
      <point x="320.098" y="193.559"/>
      <point x="320.292" y="194.826" type="curve" smooth="yes"/>
      <point x="374.292" y="545.826" type="line" smooth="yes"/>
      <point x="376.061" y="557.316"/>
      <point x="386.645" y="566.995"/>
    </contour>
    <contour>
      <point x="197.995" y="566.995" type="curve" smooth="yes"/>
      <point x="204.395" y="566.995"/>
      <point x="210.795" y="564.556"/>
      <point x="215.673" y="559.678" type="curve" smooth="yes"/>
      <point x="220.551" y="554.8"/>
      <point x="222.99" y="548.399"/>
      <point x="222.99" y="542" type="curve" smooth="yes"/>
      <point x="222.99" y="540.721"/>
      <point x="222.893" y="539.441"/>
      <point x="222.698" y="538.174" type="curve" smooth="yes"/>
      <point x="168.698" y="187.174" type="line" smooth="yes"/>
      <point x="166.93" y="175.684"/>
      <point x="156.346" y="166.005"/>
      <point x="143.995" y="166.005" type="curve" smooth="yes"/>
      <point x="137.596" y="166.005"/>
      <point x="131.195" y="168.444"/>
      <point x="126.317" y="173.322" type="curve" smooth="yes"/>
      <point x="121.439" y="178.2"/>
      <point x="119" y="184.601"/>
      <point x="119" y="191" type="curve" smooth="yes"/>
      <point x="119" y="192.279"/>
      <point x="119.098" y="193.559"/>
      <point x="119.292" y="194.826" type="curve" smooth="yes"/>
      <point x="173.292" y="545.826" type="line" smooth="yes"/>
      <point x="175.061" y="557.316"/>
      <point x="185.645" y="566.995"/>
    </contour>
  </outline>
</glyph>
<glyph name="dollar" format="2">
  <advance width="351"/>
  <unicode hex="0024"/>
  <outline>
    <contour>
      <point x="270.99" y="635" type="curve" smooth="yes"/>
      <point x="270.99" y="628.601"/>
      <point x="268.551" y="622.2"/>
      <point x="263.673" y="617.322" type="curve" smooth="yes"/>
      <point x="258.795" y="612.444"/>
      <point x="252.395" y="610.005"/>
      <point x="245.995" y="610.005" type="curve" smooth="yes"/>
      <point x="241.821" y="610.005"/>
      <point x="237.647" y="611.042"/>
      <point x="233.896" y="613.117" type="curve" smooth="yes"/>
      <point x="226.138" y="617.407"/>
      <point x="219.76" y="622.268"/>
      <point x="213.99" y="627.398" type="curve"/>
      <point x="213.99" y="611" type="line" smooth="yes"/>
      <point x="213.99" y="604.601"/>
      <point x="211.551" y="598.2"/>
      <point x="206.673" y="593.322" type="curve" smooth="yes"/>
      <point x="201.795" y="588.444"/>
      <point x="195.395" y="586.005"/>
      <point x="188.995" y="586.005" type="curve" smooth="yes"/>
      <point x="182.596" y="586.005"/>
      <point x="176.195" y="588.444"/>
      <point x="171.317" y="593.322" type="curve" smooth="yes"/>
      <point x="166.439" y="598.2"/>
      <point x="164" y="604.601"/>
      <point x="164" y="611" type="curve" smooth="yes"/>
      <point x="164" y="644.233" type="line"/>
      <point x="159.234" y="640.858"/>
      <point x="154.757" y="637.06"/>
      <point x="150.588" y="632.892" type="curve" smooth="yes"/>
      <point x="128.282" y="610.586"/>
      <point x="115.629" y="578.078"/>
      <point x="115.629" y="546.637" type="curve" smooth="yes"/>
      <point x="115.629" y="534.977"/>
      <point x="117.369" y="523.463"/>
      <point x="121.002" y="512.671" type="curve"/>
      <point x="138.208" y="492.63"/>
      <point x="156.797" y="477.062"/>
      <point x="178.589" y="458.157" type="curve" smooth="yes"/>
      <point x="218.462" y="423.565"/>
      <point x="262.669" y="386.003"/>
      <point x="286.109" y="335.021" type="curve" smooth="yes"/>
      <point x="295.809" y="313.926"/>
      <point x="301.471" y="290.59"/>
      <point x="301.471" y="265.371" type="curve" smooth="yes"/>
      <point x="301.471" y="247.048"/>
      <point x="298.481" y="227.73"/>
      <point x="291.882" y="207.556" type="curve"/>
      <point x="290.696" y="182.141"/>
      <point x="279.901" y="160.926"/>
      <point x="264.506" y="145.531" type="curve" smooth="yes"/>
      <point x="243.697" y="124.723"/>
      <point x="216.216" y="114.253"/>
      <point x="190.648" y="109.438" type="curve" smooth="yes"/>
      <point x="187.349" y="108.817"/>
      <point x="184.132" y="108.291"/>
      <point x="180.99" y="107.862" type="curve" smooth="yes"/>
      <point x="180.99" y="-1" type="line" smooth="yes"/>
      <point x="180.99" y="-7.39941"/>
      <point x="178.551" y="-13.7998"/>
      <point x="173.673" y="-18.6777" type="curve" smooth="yes"/>
      <point x="168.795" y="-23.5557"/>
      <point x="162.395" y="-25.9951"/>
      <point x="155.995" y="-25.9951" type="curve" smooth="yes"/>
      <point x="149.596" y="-25.9951"/>
      <point x="143.195" y="-23.5557"/>
      <point x="138.317" y="-18.6777" type="curve" smooth="yes"/>
      <point x="133.439" y="-13.7998"/>
      <point x="131" y="-7.39941"/>
      <point x="131" y="-1" type="curve" smooth="yes"/>
      <point x="131" y="111.726" type="line"/>
      <point x="113.148" y="118.307"/>
      <point x="101.138" y="129.79"/>
      <point x="89.8047" y="140.008" type="curve" smooth="yes"/>
      <point x="84.8535" y="144.472"/>
      <point x="79.8184" y="149.005"/>
      <point x="74.1445" y="153.665" type="curve" smooth="yes"/>
      <point x="70.2461" y="156.867"/>
      <point x="67.2432" y="161.498"/>
      <point x="65.915" y="166.279" type="curve" smooth="yes"/>
      <point x="50.915" y="220.279" type="line" smooth="yes"/>
      <point x="50.3047" y="222.475"/>
      <point x="50" y="224.737"/>
      <point x="50" y="227" type="curve" smooth="yes"/>
      <point x="50" y="233.399"/>
      <point x="52.4395" y="239.8"/>
      <point x="57.3174" y="244.678" type="curve" smooth="yes"/>
      <point x="62.1953" y="249.556"/>
      <point x="68.5957" y="251.995"/>
      <point x="74.9951" y="251.995" type="curve" smooth="yes"/>
      <point x="86.335" y="251.995"/>
      <point x="96.293" y="243.736"/>
      <point x="99.0752" y="233.721" type="curve" smooth="yes"/>
      <point x="112.014" y="187.143" type="line" smooth="yes"/>
      <point x="116.171" y="183.562"/>
      <point x="119.892" y="180.204"/>
      <point x="123.259" y="177.169" type="curve" smooth="yes"/>
      <point x="126.122" y="174.587"/>
      <point x="128.678" y="172.32"/>
      <point x="131" y="170.331" type="curve"/>
      <point x="131" y="203" type="line" smooth="yes"/>
      <point x="131" y="209.399"/>
      <point x="133.439" y="215.8"/>
      <point x="138.317" y="220.678" type="curve" smooth="yes"/>
      <point x="143.195" y="225.556"/>
      <point x="149.596" y="227.995"/>
      <point x="155.995" y="227.995" type="curve" smooth="yes"/>
      <point x="162.395" y="227.995"/>
      <point x="168.795" y="225.556"/>
      <point x="173.673" y="220.678" type="curve" smooth="yes"/>
      <point x="178.551" y="215.8"/>
      <point x="180.99" y="209.399"/>
      <point x="180.99" y="203" type="curve" smooth="yes"/>
      <point x="180.99" y="158.496" type="line"/>
      <point x="181.107" y="158.518"/>
      <point x="181.225" y="158.539"/>
      <point x="181.342" y="158.562" type="curve" smooth="yes"/>
      <point x="200.27" y="162.125"/>
      <point x="218.49" y="170.227"/>
      <point x="229.15" y="180.887" type="curve" smooth="yes"/>
      <point x="237.254" y="188.99"/>
      <point x="241.958" y="198.332"/>
      <point x="242" y="212.077" type="curve" smooth="yes"/>
      <point x="242.009" y="214.84"/>
      <point x="242.472" y="217.602"/>
      <point x="243.389" y="220.239" type="curve" smooth="yes"/>
      <point x="249.209" y="236.972"/>
      <point x="251.776" y="251.941"/>
      <point x="251.776" y="265.749" type="curve" smooth="yes"/>
      <point x="251.776" y="283.343"/>
      <point x="247.607" y="299.049"/>
      <point x="240.684" y="314.106" type="curve" smooth="yes"/>
      <point x="221.851" y="355.067"/>
      <point x="180.349" y="390.435"/>
      <point x="145.855" y="420.358" type="curve" smooth="yes"/>
      <point x="122.433" y="440.679"/>
      <point x="99.1416" y="460.449"/>
      <point x="79.665" y="484.144" type="curve" smooth="yes"/>
      <point x="77.9316" y="486.253"/>
      <point x="76.5957" y="488.581"/>
      <point x="75.6572" y="491.026" type="curve" smooth="yes"/>
      <point x="68.7051" y="509.159"/>
      <point x="65.415" y="528.231"/>
      <point x="65.415" y="547.266" type="curve" smooth="yes"/>
      <point x="65.415" y="592.07"/>
      <point x="83.6445" y="636.658"/>
      <point x="115.232" y="668.247" type="curve" smooth="yes"/>
      <point x="128.956" y="681.97"/>
      <point x="145.343" y="693.304"/>
      <point x="164" y="700.973" type="curve"/>
      <point x="164" y="803" type="line" smooth="yes"/>
      <point x="164" y="809.399"/>
      <point x="166.439" y="815.8"/>
      <point x="171.317" y="820.678" type="curve" smooth="yes"/>
      <point x="176.195" y="825.556"/>
      <point x="182.596" y="827.995"/>
      <point x="188.995" y="827.995" type="curve" smooth="yes"/>
      <point x="195.395" y="827.995"/>
      <point x="201.795" y="825.556"/>
      <point x="206.673" y="820.678" type="curve" smooth="yes"/>
      <point x="211.551" y="815.8"/>
      <point x="213.99" y="809.399"/>
      <point x="213.99" y="803" type="curve" smooth="yes"/>
      <point x="213.99" y="696.797" type="line"/>
      <point x="222.827" y="689.956"/>
      <point x="229.608" y="681.951"/>
      <point x="237.373" y="674.187" type="curve" smooth="yes"/>
      <point x="245.162" y="666.396"/>
      <point x="252.457" y="660"/>
      <point x="258.095" y="656.883" type="curve" smooth="yes"/>
      <point x="265.412" y="652.835"/>
      <point x="270.99" y="644.098"/>
    </contour>
  </outline>
</glyph>
<glyph name="percent" format="2">
  <advance width="551"/>
  <unicode hex="0025"/>
  <outline>
    <contour>
      <point x="350" y="317" type="curve" smooth="yes"/>
      <point x="350" y="343.064"/>
      <point x="359.524" y="366.938"/>
      <point x="376.234" y="383.648" type="curve" smooth="yes"/>
      <point x="388.999" y="396.413"/>
      <point x="406.373" y="404.995"/>
      <point x="425.995" y="404.995" type="curve" smooth="yes"/>
      <point x="445.616" y="404.995"/>
      <point x="462.991" y="396.413"/>
      <point x="475.756" y="383.648" type="curve" smooth="yes"/>
      <point x="492.466" y="366.938"/>
      <point x="501.99" y="343.064"/>
      <point x="501.99" y="317" type="curve" smooth="yes"/>
      <point x="501.99" y="290.936"/>
      <point x="492.466" y="267.062"/>
      <point x="475.756" y="250.352" type="curve" smooth="yes"/>
      <point x="462.991" y="237.587"/>
      <point x="445.616" y="229.005"/>
      <point x="425.995" y="229.005" type="curve" smooth="yes"/>
      <point x="406.373" y="229.005"/>
      <point x="388.999" y="237.587"/>
      <point x="376.234" y="250.352" type="curve" smooth="yes"/>
      <point x="359.524" y="267.062"/>
      <point x="350" y="290.936"/>
    </contour>
    <contour>
      <point x="399.99" y="317" type="curve" smooth="yes"/>
      <point x="399.99" y="303.356"/>
      <point x="405.267" y="292.029"/>
      <point x="411.589" y="285.707" type="curve" smooth="yes"/>
      <point x="416.396" y="280.9"/>
      <point x="421.383" y="278.995"/>
      <point x="425.995" y="278.995" type="curve" smooth="yes"/>
      <point x="430.607" y="278.995"/>
      <point x="435.595" y="280.9"/>
      <point x="440.401" y="285.707" type="curve" smooth="yes"/>
      <point x="446.723" y="292.029"/>
      <point x="452" y="303.356"/>
      <point x="452" y="317" type="curve" smooth="yes"/>
      <point x="452" y="330.644"/>
      <point x="446.723" y="341.971"/>
      <point x="440.401" y="348.293" type="curve" smooth="yes"/>
      <point x="435.595" y="353.1"/>
      <point x="430.607" y="355.005"/>
      <point x="425.995" y="355.005" type="curve" smooth="yes"/>
      <point x="421.383" y="355.005"/>
      <point x="416.396" y="353.1"/>
      <point x="411.589" y="348.293" type="curve" smooth="yes"/>
      <point x="405.267" y="341.971"/>
      <point x="399.99" y="330.644"/>
    </contour>
    <contour>
      <point x="50" y="617" type="curve" smooth="yes"/>
      <point x="50" y="643.064"/>
      <point x="59.5244" y="666.938"/>
      <point x="76.2344" y="683.648" type="curve" smooth="yes"/>
      <point x="88.999" y="696.413"/>
      <point x="106.373" y="704.995"/>
      <point x="125.995" y="704.995" type="curve" smooth="yes"/>
      <point x="145.616" y="704.995"/>
      <point x="162.991" y="696.413"/>
      <point x="175.756" y="683.648" type="curve" smooth="yes"/>
      <point x="192.466" y="666.938"/>
      <point x="201.99" y="643.064"/>
      <point x="201.99" y="617" type="curve" smooth="yes"/>
      <point x="201.99" y="590.936"/>
      <point x="192.466" y="567.062"/>
      <point x="175.756" y="550.352" type="curve" smooth="yes"/>
      <point x="162.991" y="537.587"/>
      <point x="145.616" y="529.005"/>
      <point x="125.995" y="529.005" type="curve" smooth="yes"/>
      <point x="106.373" y="529.005"/>
      <point x="88.999" y="537.587"/>
      <point x="76.2344" y="550.352" type="curve" smooth="yes"/>
      <point x="59.5244" y="567.062"/>
      <point x="50" y="590.936"/>
    </contour>
    <contour>
      <point x="99.9902" y="617" type="curve" smooth="yes"/>
      <point x="99.9902" y="603.356"/>
      <point x="105.267" y="592.029"/>
      <point x="111.589" y="585.707" type="curve" smooth="yes"/>
      <point x="116.396" y="580.9"/>
      <point x="121.383" y="578.995"/>
      <point x="125.995" y="578.995" type="curve" smooth="yes"/>
      <point x="130.607" y="578.995"/>
      <point x="135.595" y="580.9"/>
      <point x="140.401" y="585.707" type="curve" smooth="yes"/>
      <point x="146.723" y="592.029"/>
      <point x="152" y="603.356"/>
      <point x="152" y="617" type="curve" smooth="yes"/>
      <point x="152" y="630.644"/>
      <point x="146.723" y="641.971"/>
      <point x="140.401" y="648.293" type="curve" smooth="yes"/>
      <point x="135.595" y="653.1"/>
      <point x="130.607" y="655.005"/>
      <point x="125.995" y="655.005" type="curve" smooth="yes"/>
      <point x="121.383" y="655.005"/>
      <point x="116.396" y="653.1"/>
      <point x="111.589" y="648.293" type="curve" smooth="yes"/>
      <point x="105.267" y="641.971"/>
      <point x="99.9902" y="630.644"/>
    </contour>
    <contour>
      <point x="416.995" y="671.995" type="curve" smooth="yes"/>
      <point x="423.395" y="671.995"/>
      <point x="429.795" y="669.556"/>
      <point x="434.673" y="664.678" type="curve" smooth="yes"/>
      <point x="439.551" y="659.8"/>
      <point x="441.99" y="653.399"/>
      <point x="441.99" y="647" type="curve" smooth="yes"/>
      <point x="441.99" y="641.931"/>
      <point x="440.46" y="636.861"/>
      <point x="437.398" y="632.548" type="curve" smooth="yes"/>
      <point x="107.398" y="167.548" type="line" smooth="yes"/>
      <point x="102.977" y="161.316"/>
      <point x="94.9707" y="157.005"/>
      <point x="86.9951" y="157.005" type="curve" smooth="yes"/>
      <point x="80.5957" y="157.005"/>
      <point x="74.1953" y="159.444"/>
      <point x="69.3174" y="164.322" type="curve" smooth="yes"/>
      <point x="64.4395" y="169.2"/>
      <point x="62" y="175.601"/>
      <point x="62" y="182" type="curve" smooth="yes"/>
      <point x="62" y="187.069"/>
      <point x="63.5303" y="192.139"/>
      <point x="66.5918" y="196.452" type="curve" smooth="yes"/>
      <point x="396.592" y="661.452" type="line" smooth="yes"/>
      <point x="401.014" y="667.684"/>
      <point x="409.02" y="671.995"/>
    </contour>
  </outline>
</glyph>
<glyph name="ampersand" format="2">
  <advance width="428"/>
  <unicode hex="0026"/>
  <outline>
    <contour>
      <point x="298.794" y="546.864" type="curve" smooth="yes"/>
      <point x="298.794" y="464.101"/>
      <point x="242.934" y="412.325"/>
      <point x="195.906" y="368.979" type="curve"/>
      <point x="214.898" y="323.901"/>
      <point x="234.604" y="266.054"/>
      <point x="257.696" y="232.023" type="curve" smooth="yes"/>
      <point x="294.803" y="177.341" type="line"/>
      <point x="302.475" y="190.217"/>
      <point x="309.388" y="204.18"/>
      <point x="314.863" y="217.694" type="curve" smooth="yes"/>
      <point x="324.121" y="240.547"/>
      <point x="329" y="262.375"/>
      <point x="329" y="272" type="curve" smooth="yes"/>
      <point x="329" y="278.399"/>
      <point x="331.439" y="284.8"/>
      <point x="336.317" y="289.678" type="curve" smooth="yes"/>
      <point x="341.195" y="294.556"/>
      <point x="347.596" y="296.995"/>
      <point x="353.995" y="296.995" type="curve" smooth="yes"/>
      <point x="360.395" y="296.995"/>
      <point x="366.795" y="294.556"/>
      <point x="371.673" y="289.678" type="curve" smooth="yes"/>
      <point x="376.551" y="284.8"/>
      <point x="378.99" y="278.399"/>
      <point x="378.99" y="272" type="curve" smooth="yes"/>
      <point x="378.99" y="250.691"/>
      <point x="371.998" y="225.545"/>
      <point x="361.196" y="198.88" type="curve" smooth="yes"/>
      <point x="352.077" y="176.371"/>
      <point x="340.056" y="152.966"/>
      <point x="325.359" y="132.309" type="curve"/>
      <point x="360.048" y="81.1904" type="line" smooth="yes"/>
      <point x="362.91" y="76.9717"/>
      <point x="364.342" y="72.0693"/>
      <point x="364.342" y="67.167" type="curve" smooth="yes"/>
      <point x="364.342" y="60.7676"/>
      <point x="361.902" y="54.3672"/>
      <point x="357.024" y="49.4893" type="curve" smooth="yes"/>
      <point x="352.146" y="44.6113"/>
      <point x="345.746" y="42.1719"/>
      <point x="339.347" y="42.1719" type="curve" smooth="yes"/>
      <point x="331.157" y="42.1719"/>
      <point x="323.014" y="46.7061"/>
      <point x="318.646" y="53.1436" type="curve" smooth="yes"/>
      <point x="290.716" y="94.3037" type="line"/>
      <point x="275.682" y="82.0781"/>
      <point x="257.853" y="73.0049"/>
      <point x="236.995" y="73.0049" type="curve" smooth="yes"/>
      <point x="171.808" y="73.0049"/>
      <point x="118.761" y="79.7246"/>
      <point x="84.7266" y="113.758" type="curve" smooth="yes"/>
      <point x="61.1328" y="137.353"/>
      <point x="50" y="171.442"/>
      <point x="50" y="215" type="curve" smooth="yes"/>
      <point x="50" y="290.217"/>
      <point x="93.1055" y="340.362"/>
      <point x="135.381" y="380.911" type="curve" smooth="yes"/>
      <point x="133.981" y="383.642"/>
      <point x="132.575" y="386.28"/>
      <point x="131.158" y="388.817" type="curve" smooth="yes"/>
      <point x="120.206" y="408.441"/>
      <point x="117.56" y="428.09"/>
      <point x="115.06" y="444.182" type="curve" smooth="yes"/>
      <point x="112.813" y="458.644"/>
      <point x="110.719" y="470.62"/>
      <point x="106.176" y="480.778" type="curve" smooth="yes"/>
      <point x="104.726" y="484.021"/>
      <point x="104" y="487.511"/>
      <point x="104" y="491" type="curve" smooth="yes"/>
      <point x="104" y="644" type="line" smooth="yes"/>
      <point x="104" y="647.102"/>
      <point x="104.573" y="650.203"/>
      <point x="105.719" y="653.132" type="curve" smooth="yes"/>
      <point x="132.719" y="722.132" type="line" smooth="yes"/>
      <point x="134.738" y="727.293"/>
      <point x="138.797" y="731.962"/>
      <point x="143.561" y="734.694" type="curve" smooth="yes"/>
      <point x="151.396" y="739.188"/>
      <point x="156.893" y="746.793"/>
      <point x="163.403" y="753.304" type="curve" smooth="yes"/>
      <point x="169.708" y="759.608"/>
      <point x="178.716" y="766.994"/>
      <point x="191.027" y="771.57" type="curve" smooth="yes"/>
      <point x="200.822" y="775.211"/>
      <point x="212.062" y="776.995"/>
      <point x="224.995" y="776.995" type="curve" smooth="yes"/>
      <point x="240.065" y="776.995"/>
      <point x="253.461" y="770.399"/>
      <point x="262.839" y="761.021" type="curve" smooth="yes"/>
      <point x="280.192" y="743.668"/>
      <point x="287.328" y="717.692"/>
      <point x="291.658" y="689.044" type="curve" smooth="yes"/>
      <point x="296.716" y="655.574"/>
      <point x="296.931" y="619.093"/>
      <point x="297.162" y="593.121" type="curve" smooth="yes"/>
      <point x="297.276" y="580.208"/>
      <point x="297.47" y="569.537"/>
      <point x="297.87" y="565.459" type="curve" smooth="yes"/>
      <point x="298.494" y="559.094"/>
      <point x="298.794" y="552.898"/>
    </contour>
    <contour>
      <point x="224.995" y="727.005" type="curve" smooth="yes"/>
      <point x="216.562" y="727.005"/>
      <point x="211.644" y="725.885"/>
      <point x="208.496" y="724.715" type="curve" smooth="yes"/>
      <point x="204.628" y="723.276"/>
      <point x="202.479" y="721.669"/>
      <point x="198.759" y="717.948" type="curve" smooth="yes"/>
      <point x="191.379" y="710.568"/>
      <point x="185.472" y="703.186"/>
      <point x="176.389" y="696.502" type="curve"/>
      <point x="153.99" y="639.261" type="line"/>
      <point x="153.99" y="496.038" type="line"/>
      <point x="160.271" y="480.057"/>
      <point x="162.448" y="464.817"/>
      <point x="164.454" y="451.906" type="curve" smooth="yes"/>
      <point x="166.757" y="437.079"/>
      <point x="168.882" y="425.521"/>
      <point x="173.285" y="416.193" type="curve"/>
      <point x="179.38" y="421.895"/>
      <point x="185.31" y="427.553"/>
      <point x="190.973" y="433.217" type="curve" smooth="yes"/>
      <point x="225.393" y="467.637"/>
      <point x="248.833" y="500.219"/>
      <point x="248.833" y="546.318" type="curve" smooth="yes"/>
      <point x="248.833" y="550.919"/>
      <point x="248.6" y="555.655"/>
      <point x="248.12" y="560.541" type="curve" smooth="yes"/>
      <point x="247.285" y="569.05"/>
      <point x="247.29" y="579.527"/>
      <point x="247.174" y="592.673" type="curve" smooth="yes"/>
      <point x="246.85" y="629.134"/>
      <point x="245.896" y="684.232"/>
      <point x="234.476" y="713.41" type="curve" smooth="yes"/>
      <point x="231.93" y="719.915"/>
      <point x="229.093" y="724.058"/>
      <point x="227.484" y="725.666" type="curve" smooth="yes"/>
      <point x="226.283" y="726.867"/>
      <point x="226.027" y="727.025"/>
      <point x="225.588" y="727.025" type="curve" smooth="yes"/>
      <point x="225.431" y="727.025"/>
      <point x="225.25" y="727.005"/>
    </contour>
    <contour>
      <point x="99.9902" y="215" type="curve" smooth="yes"/>
      <point x="99.9902" y="179.42"/>
      <point x="108.564" y="160.632"/>
      <point x="120.082" y="149.113" type="curve" smooth="yes"/>
      <point x="128.464" y="140.731"/>
      <point x="140.379" y="134.43"/>
      <point x="157.032" y="130.136" type="curve" smooth="yes"/>
      <point x="177.74" y="124.797"/>
      <point x="205.086" y="122.857"/>
      <point x="236.791" y="122.85" type="curve" smooth="yes"/>
      <point x="238.061" y="122.824"/>
      <point x="252.775" y="127.447"/>
      <point x="262.457" y="135.947" type="curve"/>
      <point x="216.294" y="203.977" type="line" smooth="yes"/>
      <point x="190.651" y="241.766"/>
      <point x="174.633" y="288.144"/>
      <point x="156.992" y="331.992" type="curve"/>
      <point x="123.164" y="297.451"/>
      <point x="99.9902" y="263.188"/>
    </contour>
  </outline>
</glyph>
<glyph name="quotesingle" format="2">
  <advance width="152"/>
  <unicode hex="0027"/>
  <outline>
    <contour>
      <point x="77.9951" y="752.995" type="curve" smooth="yes"/>
      <point x="84.3945" y="752.995"/>
      <point x="90.7949" y="750.556"/>
      <point x="95.6729" y="745.678" type="curve" smooth="yes"/>
      <point x="100.551" y="740.8"/>
      <point x="102.99" y="734.399"/>
      <point x="102.99" y="728" type="curve" smooth="yes"/>
      <point x="102.99" y="727.773"/>
      <point x="102.987" y="727.546"/>
      <point x="102.981" y="727.319" type="curve" smooth="yes"/>
      <point x="99.9814" y="616.319" type="line" smooth="yes"/>
      <point x="99.8145" y="610.148"/>
      <point x="97.3779" y="604.027"/>
      <point x="92.6729" y="599.322" type="curve" smooth="yes"/>
      <point x="87.7949" y="594.444"/>
      <point x="81.3945" y="592.005"/>
      <point x="74.9951" y="592.005" type="curve" smooth="yes"/>
      <point x="68.5957" y="592.005"/>
      <point x="62.1953" y="594.444"/>
      <point x="57.3174" y="599.322" type="curve" smooth="yes"/>
      <point x="52.4395" y="604.2"/>
      <point x="50" y="610.601"/>
      <point x="50" y="617" type="curve" smooth="yes"/>
      <point x="50" y="617.227"/>
      <point x="50.0029" y="617.454"/>
      <point x="50.0088" y="617.681" type="curve" smooth="yes"/>
      <point x="53.0088" y="728.681" type="line" smooth="yes"/>
      <point x="53.1758" y="734.852"/>
      <point x="55.6123" y="740.973"/>
      <point x="60.3174" y="745.678" type="curve" smooth="yes"/>
      <point x="65.1953" y="750.556"/>
      <point x="71.5957" y="752.995"/>
    </contour>
  </outline>
</glyph>
<glyph name="parenleft" format="2">
  <advance width="203"/>
  <unicode hex="0028"/>
  <outline>
    <contour>
      <point x="99.9902" y="467" type="curve" smooth="yes"/>
      <point x="99.9902" y="336.032"/>
      <point x="105.102" y="216.51"/>
      <point x="113.469" y="126.422" type="curve" smooth="yes"/>
      <point x="120.144" y="54.5586"/>
      <point x="129.538" y="0.631836"/>
      <point x="137.806" y="-21.3047" type="curve"/>
      <point x="140.117" y="-26.6045" type="line"/>
      <point x="147.926" y="-30.4805"/>
      <point x="153.99" y="-39.4561"/>
      <point x="153.99" y="-49" type="curve" smooth="yes"/>
      <point x="153.99" y="-55.3994"/>
      <point x="151.551" y="-61.7998"/>
      <point x="146.673" y="-66.6777" type="curve" smooth="yes"/>
      <point x="141.795" y="-71.5557"/>
      <point x="135.395" y="-73.9951"/>
      <point x="128.995" y="-73.9951" type="curve" smooth="yes"/>
      <point x="118.189" y="-73.9951"/>
      <point x="110.261" y="-68.5107"/>
      <point x="105.575" y="-63.8252" type="curve" smooth="yes"/>
      <point x="99.4795" y="-57.7295"/>
      <point x="96.2676" y="-51.4219"/>
      <point x="93.3057" y="-44.6152" type="curve" smooth="yes"/>
      <point x="89.5908" y="-36.0771"/>
      <point x="86.5615" y="-26.2471"/>
      <point x="83.6895" y="-14.6826" type="curve" smooth="yes"/>
      <point x="77.25" y="11.2422"/>
      <point x="71.7812" y="46.0273"/>
      <point x="67.0684" y="88.5273" type="curve" smooth="yes"/>
      <point x="56.4785" y="184.02"/>
      <point x="50" y="318.146"/>
      <point x="50" y="467" type="curve" smooth="yes"/>
      <point x="50" y="615.854"/>
      <point x="56.4785" y="749.98"/>
      <point x="67.0684" y="845.473" type="curve" smooth="yes"/>
      <point x="71.7812" y="887.973"/>
      <point x="77.25" y="922.758"/>
      <point x="83.6895" y="948.683" type="curve" smooth="yes"/>
      <point x="86.5615" y="960.247"/>
      <point x="89.5908" y="970.077"/>
      <point x="93.3057" y="978.615" type="curve" smooth="yes"/>
      <point x="96.2676" y="985.422"/>
      <point x="99.4795" y="991.729"/>
      <point x="105.575" y="997.825" type="curve" smooth="yes"/>
      <point x="110.261" y="1002.51"/>
      <point x="118.189" y="1008"/>
      <point x="128.995" y="1008" type="curve" smooth="yes"/>
      <point x="135.395" y="1008"/>
      <point x="141.795" y="1005.56"/>
      <point x="146.673" y="1000.68" type="curve" smooth="yes"/>
      <point x="151.551" y="995.8"/>
      <point x="153.99" y="989.399"/>
      <point x="153.99" y="983" type="curve" smooth="yes"/>
      <point x="153.99" y="973.518"/>
      <point x="147.993" y="964.571"/>
      <point x="140.249" y="960.671" type="curve" smooth="yes"/>
      <point x="138.488" y="956.782"/>
      <point x="135.108" y="948.284"/>
      <point x="132.199" y="936.57" type="curve" smooth="yes"/>
      <point x="126.682" y="914.353"/>
      <point x="121.313" y="881.065"/>
      <point x="116.751" y="839.924" type="curve" smooth="yes"/>
      <point x="106.472" y="747.22"/>
      <point x="99.9902" y="614.325"/>
    </contour>
  </outline>
</glyph>
<glyph name="parenright" format="2">
  <advance width="203"/>
  <unicode hex="0029"/>
  <outline>
    <contour>
      <point x="74.9951" y="-73.9951" type="curve" smooth="yes"/>
      <point x="68.5957" y="-73.9951"/>
      <point x="62.1953" y="-71.5557"/>
      <point x="57.3174" y="-66.6777" type="curve" smooth="yes"/>
      <point x="52.4395" y="-61.7998"/>
      <point x="50" y="-55.3994"/>
      <point x="50" y="-49" type="curve" smooth="yes"/>
      <point x="50" y="-39.458"/>
      <point x="56.0625" y="-30.4814"/>
      <point x="63.873" y="-26.6045" type="curve"/>
      <point x="66.1846" y="-21.3047" type="line"/>
      <point x="74.4521" y="0.631836"/>
      <point x="83.8467" y="54.5586"/>
      <point x="90.5215" y="126.422" type="curve" smooth="yes"/>
      <point x="98.8887" y="216.51"/>
      <point x="104" y="336.032"/>
      <point x="104" y="467" type="curve" smooth="yes"/>
      <point x="104" y="614.325"/>
      <point x="97.5186" y="747.22"/>
      <point x="87.2383" y="839.924" type="curve" smooth="yes"/>
      <point x="82.6768" y="881.065"/>
      <point x="77.3086" y="914.353"/>
      <point x="71.791" y="936.57" type="curve" smooth="yes"/>
      <point x="68.8818" y="948.284"/>
      <point x="65.502" y="956.782"/>
      <point x="63.7412" y="960.671" type="curve" smooth="yes"/>
      <point x="55.999" y="964.57"/>
      <point x="50" y="973.516"/>
      <point x="50" y="983" type="curve" smooth="yes"/>
      <point x="50" y="989.399"/>
      <point x="52.4395" y="995.8"/>
      <point x="57.3174" y="1000.68" type="curve" smooth="yes"/>
      <point x="62.1953" y="1005.56"/>
      <point x="68.5957" y="1008"/>
      <point x="74.9951" y="1008" type="curve" smooth="yes"/>
      <point x="85.8008" y="1008"/>
      <point x="93.7295" y="1002.51"/>
      <point x="98.415" y="997.825" type="curve" smooth="yes"/>
      <point x="104.511" y="991.729"/>
      <point x="107.723" y="985.422"/>
      <point x="110.685" y="978.615" type="curve" smooth="yes"/>
      <point x="114.399" y="970.077"/>
      <point x="117.429" y="960.247"/>
      <point x="120.301" y="948.683" type="curve" smooth="yes"/>
      <point x="126.739" y="922.758"/>
      <point x="132.209" y="887.973"/>
      <point x="136.922" y="845.473" type="curve" smooth="yes"/>
      <point x="147.512" y="749.98"/>
      <point x="153.99" y="615.854"/>
      <point x="153.99" y="467" type="curve" smooth="yes"/>
      <point x="153.99" y="318.146"/>
      <point x="147.512" y="184.02"/>
      <point x="136.922" y="88.5273" type="curve" smooth="yes"/>
      <point x="132.209" y="46.0273"/>
      <point x="126.739" y="11.2422"/>
      <point x="120.301" y="-14.6826" type="curve" smooth="yes"/>
      <point x="117.429" y="-26.2471"/>
      <point x="114.399" y="-36.0771"/>
      <point x="110.685" y="-44.6152" type="curve" smooth="yes"/>
      <point x="107.723" y="-51.4219"/>
      <point x="104.511" y="-57.7295"/>
      <point x="98.415" y="-63.8252" type="curve" smooth="yes"/>
      <point x="93.7295" y="-68.5107"/>
      <point x="85.8008" y="-73.9951"/>
    </contour>
  </outline>
</glyph>
<glyph name="asterisk" format="2">
  <advance width="380"/>
  <unicode hex="002A"/>
  <outline>
    <contour>
      <point x="303.995" y="592.995" type="curve" smooth="yes"/>
      <point x="310.395" y="592.995"/>
      <point x="316.795" y="590.556"/>
      <point x="321.673" y="585.678" type="curve" smooth="yes"/>
      <point x="326.551" y="580.8"/>
      <point x="328.99" y="574.399"/>
      <point x="328.99" y="568" type="curve" smooth="yes"/>
      <point x="328.99" y="561.687"/>
      <point x="326.616" y="555.372"/>
      <point x="321.868" y="550.52" type="curve" smooth="yes"/>
      <point x="94.6738" y="318.321" type="line" smooth="yes"/>
      <point x="89.7959" y="313.443"/>
      <point x="83.3945" y="311.005"/>
      <point x="76.9951" y="311.005" type="curve" smooth="yes"/>
      <point x="70.5957" y="311.005"/>
      <point x="64.1953" y="313.444"/>
      <point x="59.3174" y="318.322" type="curve" smooth="yes"/>
      <point x="54.4395" y="323.2"/>
      <point x="52" y="329.601"/>
      <point x="52" y="336" type="curve" smooth="yes"/>
      <point x="52" y="342.313"/>
      <point x="54.374" y="348.628"/>
      <point x="59.1221" y="353.48" type="curve" smooth="yes"/>
      <point x="286.316" y="585.679" type="line" smooth="yes"/>
      <point x="291.194" y="590.557"/>
      <point x="297.596" y="592.995"/>
    </contour>
    <contour>
      <point x="50" y="565" type="curve" smooth="yes"/>
      <point x="50" y="571.399"/>
      <point x="52.4395" y="577.8"/>
      <point x="57.3174" y="582.678" type="curve" smooth="yes"/>
      <point x="62.1953" y="587.556"/>
      <point x="68.5957" y="589.995"/>
      <point x="74.9951" y="589.995" type="curve" smooth="yes"/>
      <point x="81.3086" y="589.995"/>
      <point x="87.6221" y="587.621"/>
      <point x="92.4746" y="582.874" type="curve" smooth="yes"/>
      <point x="323.674" y="356.679" type="line" smooth="yes"/>
      <point x="328.552" y="351.801"/>
      <point x="330.99" y="345.399"/>
      <point x="330.99" y="339" type="curve" smooth="yes"/>
      <point x="330.99" y="332.601"/>
      <point x="328.551" y="326.2"/>
      <point x="323.673" y="321.322" type="curve" smooth="yes"/>
      <point x="318.795" y="316.444"/>
      <point x="312.395" y="314.005"/>
      <point x="305.995" y="314.005" type="curve" smooth="yes"/>
      <point x="299.682" y="314.005"/>
      <point x="293.368" y="316.379"/>
      <point x="288.516" y="321.126" type="curve" smooth="yes"/>
      <point x="57.3164" y="547.321" type="line" smooth="yes"/>
      <point x="52.4385" y="552.199"/>
      <point x="50" y="558.601"/>
    </contour>
    <contour>
      <point x="163.999" y="614" type="line" smooth="yes"/>
      <point x="163.999" y="620.399"/>
      <point x="166.439" y="626.8"/>
      <point x="171.317" y="631.678" type="curve" smooth="yes"/>
      <point x="176.195" y="636.556"/>
      <point x="182.596" y="638.995"/>
      <point x="188.995" y="638.995" type="curve" smooth="yes"/>
      <point x="195.395" y="638.995"/>
      <point x="201.795" y="636.556"/>
      <point x="206.673" y="631.678" type="curve" smooth="yes"/>
      <point x="211.492" y="626.858"/>
      <point x="213.931" y="620.555"/>
      <point x="213.989" y="614.233" type="curve" smooth="yes"/>
      <point x="216.991" y="290" type="line" smooth="yes"/>
      <point x="216.991" y="283.601"/>
      <point x="214.551" y="277.2"/>
      <point x="209.673" y="272.322" type="curve" smooth="yes"/>
      <point x="204.795" y="267.444"/>
      <point x="198.395" y="265.005"/>
      <point x="191.995" y="265.005" type="curve" smooth="yes"/>
      <point x="185.596" y="265.005"/>
      <point x="179.195" y="267.444"/>
      <point x="174.317" y="272.322" type="curve" smooth="yes"/>
      <point x="169.498" y="277.142"/>
      <point x="167.06" y="283.445"/>
      <point x="167.001" y="289.767" type="curve" smooth="yes"/>
    </contour>
  </outline>
</glyph>
<glyph name="plus" format="2">
  <advance width="428"/>
  <unicode hex="002B"/>
  <outline>
    <contour>
      <point x="181" y="554" type="line" smooth="yes"/>
      <point x="181" y="560.399"/>
      <point x="183.439" y="566.8"/>
      <point x="188.317" y="571.678" type="curve" smooth="yes"/>
      <point x="193.195" y="576.556"/>
      <point x="199.596" y="578.995"/>
      <point x="205.995" y="578.995" type="curve" smooth="yes"/>
      <point x="212.395" y="578.995"/>
      <point x="218.795" y="576.556"/>
      <point x="223.673" y="571.678" type="curve" smooth="yes"/>
      <point x="228.551" y="566.8"/>
      <point x="230.99" y="560.399"/>
      <point x="230.99" y="554" type="curve" smooth="yes"/>
      <point x="230.99" y="273" type="line" smooth="yes"/>
      <point x="230.99" y="266.601"/>
      <point x="228.551" y="260.2"/>
      <point x="223.673" y="255.322" type="curve" smooth="yes"/>
      <point x="218.795" y="250.444"/>
      <point x="212.395" y="248.005"/>
      <point x="205.995" y="248.005" type="curve" smooth="yes"/>
      <point x="199.596" y="248.005"/>
      <point x="193.195" y="250.444"/>
      <point x="188.317" y="255.322" type="curve" smooth="yes"/>
      <point x="183.439" y="260.2"/>
      <point x="181" y="266.601"/>
      <point x="181" y="273" type="curve" smooth="yes"/>
    </contour>
    <contour>
      <point x="74.9951" y="386.005" type="line" smooth="yes"/>
      <point x="68.5957" y="386.005"/>
      <point x="62.1953" y="388.444"/>
      <point x="57.3174" y="393.322" type="curve" smooth="yes"/>
      <point x="52.4395" y="398.2"/>
      <point x="50" y="404.601"/>
      <point x="50" y="411" type="curve" smooth="yes"/>
      <point x="50" y="417.399"/>
      <point x="52.4395" y="423.8"/>
      <point x="57.3174" y="428.678" type="curve" smooth="yes"/>
      <point x="62.1953" y="433.556"/>
      <point x="68.5957" y="435.995"/>
      <point x="74.9951" y="435.995" type="curve" smooth="yes"/>
      <point x="353.995" y="435.995" type="line" smooth="yes"/>
      <point x="360.395" y="435.995"/>
      <point x="366.795" y="433.556"/>
      <point x="371.673" y="428.678" type="curve" smooth="yes"/>
      <point x="376.551" y="423.8"/>
      <point x="378.99" y="417.399"/>
      <point x="378.99" y="411" type="curve" smooth="yes"/>
      <point x="378.99" y="404.601"/>
      <point x="376.551" y="398.2"/>
      <point x="371.673" y="393.322" type="curve" smooth="yes"/>
      <point x="366.795" y="388.444"/>
      <point x="360.395" y="386.005"/>
      <point x="353.995" y="386.005" type="curve" smooth="yes"/>
    </contour>
  </outline>
</glyph>
<glyph name="hyphen" format="2">
  <advance width="497"/>
  <unicode hex="002D"/>
  <outline>
    <contour>
      <point x="74.9951" y="386.005" type="line" smooth="yes"/>
      <point x="68.5957" y="386.005"/>
      <point x="62.1953" y="388.444"/>
      <point x="57.3174" y="393.322" type="curve" smooth="yes"/>
      <point x="52.4395" y="398.2"/>
      <point x="50" y="404.601"/>
      <point x="50" y="411" type="curve" smooth="yes"/>
      <point x="50" y="417.399"/>
      <point x="52.4395" y="423.8"/>
      <point x="57.3174" y="428.678" type="curve" smooth="yes"/>
      <point x="62.1953" y="433.556"/>
      <point x="68.5957" y="435.995"/>
      <point x="74.9951" y="435.995" type="curve" smooth="yes"/>
      <point x="422.995" y="435.995" type="line" smooth="yes"/>
      <point x="429.395" y="435.995"/>
      <point x="435.795" y="433.556"/>
      <point x="440.673" y="428.678" type="curve" smooth="yes"/>
      <point x="445.551" y="423.8"/>
      <point x="447.99" y="417.399"/>
      <point x="447.99" y="411" type="curve" smooth="yes"/>
      <point x="447.99" y="404.601"/>
      <point x="445.551" y="398.2"/>
      <point x="440.673" y="393.322" type="curve" smooth="yes"/>
      <point x="435.795" y="388.444"/>
      <point x="429.395" y="386.005"/>
      <point x="422.995" y="386.005" type="curve" smooth="yes"/>
    </contour>
  </outline>
</glyph>
<glyph name="period" format="2">
  <advance width="149"/>
  <unicode hex="002E"/>
  <outline>
    <contour>
      <point x="50" y="29" type="curve" smooth="yes"/>
      <point x="50" y="35.3994"/>
      <point x="52.4395" y="41.7998"/>
      <point x="57.3174" y="46.6777" type="curve" smooth="yes"/>
      <point x="62.1953" y="51.5557"/>
      <point x="68.5957" y="53.9951"/>
      <point x="74.9951" y="53.9951" type="curve" smooth="yes"/>
      <point x="81.3945" y="53.9951"/>
      <point x="87.7949" y="51.5557"/>
      <point x="92.6729" y="46.6777" type="curve" smooth="yes"/>
      <point x="97.5508" y="41.7998"/>
      <point x="99.9902" y="35.3994"/>
      <point x="99.9902" y="29" type="curve" smooth="yes"/>
      <point x="99.9902" y="22.6006"/>
      <point x="97.5508" y="16.2002"/>
      <point x="92.6729" y="11.3223" type="curve" smooth="yes"/>
      <point x="87.7949" y="6.44434"/>
      <point x="81.3945" y="4.00488"/>
      <point x="74.9951" y="4.00488" type="curve" smooth="yes"/>
      <point x="68.5957" y="4.00488"/>
      <point x="62.1953" y="6.44434"/>
      <point x="57.3174" y="11.3223" type="curve" smooth="yes"/>
      <point x="52.4395" y="16.2002"/>
      <point x="50" y="22.6006"/>
    </contour>
  </outline>
</glyph>
<glyph name="slash" format="2">
  <advance width="380"/>
  <unicode hex="002F"/>
  <outline>
    <contour>
      <point x="74.9951" y="82.0049" type="curve" smooth="yes"/>
      <point x="68.5957" y="82.0049"/>
      <point x="62.1953" y="84.4443"/>
      <point x="57.3174" y="89.3223" type="curve" smooth="yes"/>
      <point x="52.4395" y="94.2002"/>
      <point x="50" y="100.601"/>
      <point x="50" y="107" type="curve" smooth="yes"/>
      <point x="50" y="110.261"/>
      <point x="50.6338" y="113.522"/>
      <point x="51.9004" y="116.582" type="curve" smooth="yes"/>
      <point x="282.9" y="674.582" type="line" smooth="yes"/>
      <point x="286.445" y="683.146"/>
      <point x="295.782" y="689.995"/>
      <point x="305.995" y="689.995" type="curve" smooth="yes"/>
      <point x="312.395" y="689.995"/>
      <point x="318.795" y="687.556"/>
      <point x="323.673" y="682.678" type="curve" smooth="yes"/>
      <point x="328.551" y="677.8"/>
      <point x="330.99" y="671.399"/>
      <point x="330.99" y="665" type="curve" smooth="yes"/>
      <point x="330.99" y="661.739"/>
      <point x="330.356" y="658.478"/>
      <point x="329.09" y="655.418" type="curve" smooth="yes"/>
      <point x="98.0898" y="97.418" type="line" smooth="yes"/>
      <point x="94.5449" y="88.8535"/>
      <point x="85.208" y="82.0049"/>
    </contour>
  </outline>
</glyph>
<glyph name="zero" format="2">
  <advance width="293"/>
  <unicode hex="0030"/>
  <outline>
    <contour>
      <point x="50" y="205" type="curve" smooth="yes"/>
      <point x="50" y="255.543"/>
      <point x="56.2588" y="302.045"/>
      <point x="67.2959" y="339.638" type="curve" smooth="yes"/>
      <point x="76.0928" y="369.595"/>
      <point x="87.5879" y="394.605"/>
      <point x="104.901" y="411.919" type="curve" smooth="yes"/>
      <point x="115.549" y="422.566"/>
      <point x="129.842" y="430.995"/>
      <point x="146.995" y="430.995" type="curve" smooth="yes"/>
      <point x="164.148" y="430.995"/>
      <point x="178.441" y="422.566"/>
      <point x="189.089" y="411.919" type="curve" smooth="yes"/>
      <point x="206.402" y="394.605"/>
      <point x="217.897" y="369.595"/>
      <point x="226.694" y="339.638" type="curve" smooth="yes"/>
      <point x="237.731" y="302.045"/>
      <point x="243.99" y="255.543"/>
      <point x="243.99" y="205" type="curve" smooth="yes"/>
      <point x="243.99" y="154.457"/>
      <point x="237.731" y="107.955"/>
      <point x="226.694" y="70.3623" type="curve" smooth="yes"/>
      <point x="217.897" y="40.4053"/>
      <point x="206.402" y="15.3945"/>
      <point x="189.089" y="-1.91895" type="curve" smooth="yes"/>
      <point x="178.441" y="-12.5664"/>
      <point x="164.148" y="-20.9951"/>
      <point x="146.995" y="-20.9951" type="curve" smooth="yes"/>
      <point x="129.842" y="-20.9951"/>
      <point x="115.549" y="-12.5664"/>
      <point x="104.901" y="-1.91895" type="curve" smooth="yes"/>
      <point x="87.5879" y="15.3945"/>
      <point x="76.0928" y="40.4053"/>
      <point x="67.2959" y="70.3623" type="curve" smooth="yes"/>
      <point x="56.2588" y="107.955"/>
      <point x="50" y="154.457"/>
    </contour>
    <contour>
      <point x="99.9902" y="205" type="curve" smooth="yes"/>
      <point x="99.9902" y="158.685"/>
      <point x="105.915" y="116.322"/>
      <point x="115.256" y="84.5078" type="curve" smooth="yes"/>
      <point x="122.764" y="58.9395"/>
      <point x="132.817" y="40.876"/>
      <point x="140.257" y="33.4365" type="curve" smooth="yes"/>
      <point x="144.41" y="29.2832"/>
      <point x="146.379" y="28.9873"/>
      <point x="146.87" y="28.9873" type="curve" smooth="yes"/>
      <point x="146.951" y="28.9873"/>
      <point x="146.992" y="28.9951"/>
      <point x="146.995" y="28.9951" type="curve" smooth="yes"/>
      <point x="147.015" y="28.9951"/>
      <point x="149.292" y="28.9951"/>
      <point x="153.733" y="33.4365" type="curve" smooth="yes"/>
      <point x="161.173" y="40.876"/>
      <point x="171.227" y="58.9395"/>
      <point x="178.734" y="84.5078" type="curve" smooth="yes"/>
      <point x="188.075" y="116.322"/>
      <point x="194" y="158.685"/>
      <point x="194" y="205" type="curve" smooth="yes"/>
      <point x="194" y="251.315"/>
      <point x="188.075" y="293.678"/>
      <point x="178.734" y="325.492" type="curve" smooth="yes"/>
      <point x="171.227" y="351.061"/>
      <point x="161.173" y="369.124"/>
      <point x="153.733" y="376.563" type="curve" smooth="yes"/>
      <point x="149.58" y="380.717"/>
      <point x="147.611" y="381.013"/>
      <point x="147.12" y="381.013" type="curve" smooth="yes"/>
      <point x="147.039" y="381.013"/>
      <point x="146.998" y="381.005"/>
      <point x="146.995" y="381.005" type="curve" smooth="yes"/>
      <point x="146.976" y="381.005"/>
      <point x="144.698" y="381.005"/>
      <point x="140.257" y="376.563" type="curve" smooth="yes"/>
      <point x="132.817" y="369.124"/>
      <point x="122.764" y="351.061"/>
      <point x="115.256" y="325.492" type="curve" smooth="yes"/>
      <point x="105.915" y="293.678"/>
      <point x="99.9902" y="251.315"/>
    </contour>
  </outline>
</glyph>
<glyph name="one" format="2">
  <advance width="308"/>
  <unicode hex="0031"/>
  <outline>
    <contour>
      <point x="74.9951" y="-24.9951" type="line" smooth="yes"/>
      <point x="68.5957" y="-24.9951"/>
      <point x="62.1953" y="-22.5557"/>
      <point x="57.3174" y="-17.6777" type="curve" smooth="yes"/>
      <point x="52.4395" y="-12.7998"/>
      <point x="50" y="-6.39941"/>
      <point x="50" y="0" type="curve" smooth="yes"/>
      <point x="50" y="6.39941"/>
      <point x="52.4395" y="12.7998"/>
      <point x="57.3174" y="17.6777" type="curve" smooth="yes"/>
      <point x="62.1953" y="22.5557"/>
      <point x="68.5957" y="24.9951"/>
      <point x="74.9951" y="24.9951" type="curve" smooth="yes"/>
      <point x="130" y="24.9951" type="line"/>
      <point x="130" y="351.326" type="line"/>
      <point x="109.528" y="331.179" type="line" smooth="yes"/>
      <point x="104.668" y="326.396"/>
      <point x="98.332" y="324.005"/>
      <point x="91.9951" y="324.005" type="curve" smooth="yes"/>
      <point x="85.5957" y="324.005"/>
      <point x="79.1953" y="326.444"/>
      <point x="74.3174" y="331.322" type="curve" smooth="yes"/>
      <point x="69.4395" y="336.2"/>
      <point x="67" y="342.601"/>
      <point x="67" y="349" type="curve" smooth="yes"/>
      <point x="67" y="355.399"/>
      <point x="69.3994" y="361.839"/>
      <point x="74.3164" y="366.679" type="curve" smooth="yes"/>
      <point x="137.462" y="428.821" type="line" smooth="yes"/>
      <point x="142.322" y="433.604"/>
      <point x="148.658" y="435.995"/>
      <point x="154.995" y="435.995" type="curve" smooth="yes"/>
      <point x="161.395" y="435.995"/>
      <point x="167.795" y="433.556"/>
      <point x="172.673" y="428.678" type="curve" smooth="yes"/>
      <point x="177.551" y="423.8"/>
      <point x="179.99" y="417.399"/>
      <point x="179.99" y="411" type="curve" smooth="yes"/>
      <point x="179.99" y="24.9951" type="line"/>
      <point x="233.995" y="24.9951" type="line" smooth="yes"/>
      <point x="240.395" y="24.9951"/>
      <point x="246.795" y="22.5557"/>
      <point x="251.673" y="17.6777" type="curve" smooth="yes"/>
      <point x="256.551" y="12.7998"/>
      <point x="258.99" y="6.39941"/>
      <point x="258.99" y="0" type="curve" smooth="yes"/>
      <point x="258.99" y="-6.39941"/>
      <point x="256.551" y="-12.7998"/>
      <point x="251.673" y="-17.6777" type="curve" smooth="yes"/>
      <point x="246.795" y="-22.5557"/>
      <point x="240.395" y="-24.9951"/>
      <point x="233.995" y="-24.9951" type="curve" smooth="yes"/>
      <point x="154.995" y="-24.9951" type="line"/>
    </contour>
  </outline>
</glyph>
<glyph name="two" format="2">
  <advance width="405"/>
  <unicode hex="0032"/>
  <outline>
    <contour>
      <point x="232.11" y="436.089" type="curve" smooth="yes"/>
      <point x="262.787" y="436.089"/>
      <point x="289.353" y="423.757"/>
      <point x="308.94" y="404.17" type="curve" smooth="yes"/>
      <point x="323.566" y="389.544"/>
      <point x="334.214" y="371.441"/>
      <point x="341.467" y="351.614" type="curve" smooth="yes"/>
      <point x="350.143" y="327.414"/>
      <point x="355.457" y="303.458"/>
      <point x="355.457" y="279.531" type="curve" smooth="yes"/>
      <point x="355.457" y="245.128"/>
      <point x="344.916" y="214.584"/>
      <point x="323.405" y="184.557" type="curve" smooth="yes"/>
      <point x="306.995" y="161.161"/>
      <point x="290.248" y="141.586"/>
      <point x="273.168" y="124.506" type="curve" smooth="yes"/>
      <point x="232.172" y="83.5098"/>
      <point x="190.733" y="57.7852"/>
      <point x="146.295" y="24.9951" type="curve"/>
      <point x="329.995" y="24.9951" type="line" smooth="yes"/>
      <point x="336.395" y="24.9951"/>
      <point x="342.795" y="22.5557"/>
      <point x="347.673" y="17.6777" type="curve" smooth="yes"/>
      <point x="352.551" y="12.7998"/>
      <point x="354.99" y="6.39941"/>
      <point x="354.99" y="0" type="curve" smooth="yes"/>
      <point x="354.99" y="-6.39941"/>
      <point x="352.551" y="-12.7998"/>
      <point x="347.673" y="-17.6777" type="curve" smooth="yes"/>
      <point x="342.795" y="-22.5557"/>
      <point x="336.395" y="-24.9951"/>
      <point x="329.995" y="-24.9951" type="curve" smooth="yes"/>
      <point x="74.9951" y="-24.9951" type="line" smooth="yes"/>
      <point x="68.5957" y="-24.9951"/>
      <point x="62.1953" y="-22.5557"/>
      <point x="57.3174" y="-17.6777" type="curve" smooth="yes"/>
      <point x="52.4395" y="-12.7998"/>
      <point x="50" y="-6.39941"/>
      <point x="50" y="0" type="curve" smooth="yes"/>
      <point x="50" y="6.99414"/>
      <point x="53.1553" y="14.1025"/>
      <point x="58.5332" y="18.8164" type="curve" smooth="yes"/>
      <point x="91.127" y="47.3818"/>
      <point x="121.266" y="68.8359"/>
      <point x="148.917" y="88.542" type="curve" smooth="yes"/>
      <point x="181.497" y="111.761"/>
      <point x="210.419" y="132.468"/>
      <point x="237.812" y="159.861" type="curve" smooth="yes"/>
      <point x="253.037" y="175.086"/>
      <point x="267.568" y="192.512"/>
      <point x="282.665" y="213.556" type="curve" smooth="yes"/>
      <point x="299.14" y="236.521"/>
      <point x="305.468" y="256.208"/>
      <point x="305.468" y="279.566" type="curve" smooth="yes"/>
      <point x="305.468" y="295.996"/>
      <point x="301.87" y="313.892"/>
      <point x="294.522" y="334.386" type="curve" smooth="yes"/>
      <point x="289.325" y="348.594"/>
      <point x="282.008" y="360.392"/>
      <point x="273.585" y="368.814" type="curve" smooth="yes"/>
      <point x="262.504" y="379.895"/>
      <point x="249.388" y="386.106"/>
      <point x="232.417" y="386.106" type="curve" smooth="yes"/>
      <point x="194.373" y="386.106"/>
      <point x="174.536" y="371.198"/>
      <point x="143.998" y="348.729" type="curve" smooth="yes"/>
      <point x="127.986" y="336.947"/>
      <point x="109.637" y="323.364"/>
      <point x="86.1826" y="311.638" type="curve" smooth="yes"/>
      <point x="82.6729" y="309.883"/>
      <point x="78.834" y="309.005"/>
      <point x="74.9951" y="309.005" type="curve" smooth="yes"/>
      <point x="68.5957" y="309.005"/>
      <point x="62.1953" y="311.444"/>
      <point x="57.3174" y="316.322" type="curve" smooth="yes"/>
      <point x="52.4395" y="321.2"/>
      <point x="50" y="327.601"/>
      <point x="50" y="334" type="curve" smooth="yes"/>
      <point x="50" y="343.513"/>
      <point x="56.0303" y="352.474"/>
      <point x="63.8076" y="356.362" type="curve" smooth="yes"/>
      <point x="82.7803" y="365.849"/>
      <point x="98.3564" y="377.229"/>
      <point x="114.401" y="389.035" type="curve" smooth="yes"/>
      <point x="144.167" y="410.938"/>
      <point x="177.999" y="436.089"/>
    </contour>
  </outline>
</glyph>
<glyph name="three" format="2">
  <advance width="478"/>
  <unicode hex="0033"/>
  <outline>
    <contour>
      <point x="428.242" y="-78.6377" type="curve" smooth="yes"/>
      <point x="428.242" y="-98.3486"/>
      <point x="424.451" y="-118.685"/>
      <point x="416.202" y="-139.306" type="curve" smooth="yes"/>
      <point x="410.47" y="-153.639"/>
      <point x="402.34" y="-165.893"/>
      <point x="392.369" y="-175.864" type="curve" smooth="yes"/>
      <point x="358.009" y="-210.224"/>
      <point x="308.3" y="-215.016"/>
      <point x="263.753" y="-215.016" type="curve" smooth="yes"/>
      <point x="210.023" y="-215.016"/>
      <point x="171.794" y="-199.322"/>
      <point x="134.672" y="-184.079" type="curve" smooth="yes"/>
      <point x="113.88" y="-175.542"/>
      <point x="93.0479" y="-167.018"/>
      <point x="68.2246" y="-160.066" type="curve" smooth="yes"/>
      <point x="58.2363" y="-157.27"/>
      <point x="50" y="-147.326"/>
      <point x="50" y="-136" type="curve" smooth="yes"/>
      <point x="50" y="-129.601"/>
      <point x="52.4395" y="-123.2"/>
      <point x="57.3174" y="-118.322" type="curve" smooth="yes"/>
      <point x="62.1953" y="-113.444"/>
      <point x="68.5957" y="-111.005"/>
      <point x="74.9951" y="-111.005" type="curve" smooth="yes"/>
      <point x="77.2754" y="-111.005"/>
      <point x="79.5547" y="-111.314"/>
      <point x="81.7656" y="-111.934" type="curve" smooth="yes"/>
      <point x="109.829" y="-119.791"/>
      <point x="132.934" y="-129.307"/>
      <point x="153.703" y="-137.835" type="curve" smooth="yes"/>
      <point x="191.185" y="-153.225"/>
      <point x="219.922" y="-165.027"/>
      <point x="263.523" y="-165.027" type="curve" smooth="yes"/>
      <point x="305.269" y="-165.027"/>
      <point x="339.591" y="-157.932"/>
      <point x="357.014" y="-140.509" type="curve" smooth="yes"/>
      <point x="362.096" y="-135.426"/>
      <point x="366.405" y="-129.15"/>
      <point x="369.788" y="-120.694" type="curve" smooth="yes"/>
      <point x="375.782" y="-105.707"/>
      <point x="378.486" y="-92.0137"/>
      <point x="378.486" y="-78.8125" type="curve" smooth="yes"/>
      <point x="378.486" y="-67.2363"/>
      <point x="376.407" y="-56.0381"/>
      <point x="372.645" y="-44.6787" type="curve" smooth="yes"/>
      <point x="366.146" y="-25.0615"/>
      <point x="354.003" y="-4.69824"/>
      <point x="337.306" y="16.5908" type="curve" smooth="yes"/>
      <point x="329.986" y="25.7988"/>
      <point x="322.79" y="33.8057"/>
      <point x="315.457" y="41.1387" type="curve" smooth="yes"/>
      <point x="285.199" y="71.3965"/>
      <point x="253.611" y="88.7598"/>
      <point x="215.582" y="109.463" type="curve" smooth="yes"/>
      <point x="190.724" y="122.995"/>
      <point x="163.384" y="137.853"/>
      <point x="133.741" y="158.457" type="curve" smooth="yes"/>
      <point x="127.417" y="162.854"/>
      <point x="123" y="170.926"/>
      <point x="123" y="179" type="curve" smooth="yes"/>
      <point x="123" y="185.118"/>
      <point x="125.229" y="191.236"/>
      <point x="129.688" y="196.025" type="curve" smooth="yes"/>
      <point x="306.565" y="386.005" type="line"/>
      <point x="75.9951" y="386.005" type="line" smooth="yes"/>
      <point x="69.5957" y="386.005"/>
      <point x="63.1953" y="388.444"/>
      <point x="58.3174" y="393.322" type="curve" smooth="yes"/>
      <point x="53.4395" y="398.2"/>
      <point x="51" y="404.601"/>
      <point x="51" y="411" type="curve" smooth="yes"/>
      <point x="51" y="417.399"/>
      <point x="53.4395" y="423.8"/>
      <point x="58.3174" y="428.678" type="curve" smooth="yes"/>
      <point x="63.1953" y="433.556"/>
      <point x="69.5957" y="435.995"/>
      <point x="75.9951" y="435.995" type="curve" smooth="yes"/>
      <point x="363.995" y="435.995" type="line" smooth="yes"/>
      <point x="370.395" y="435.995"/>
      <point x="376.795" y="433.556"/>
      <point x="381.673" y="428.678" type="curve" smooth="yes"/>
      <point x="386.551" y="423.8"/>
      <point x="388.99" y="417.399"/>
      <point x="388.99" y="411" type="curve" smooth="yes"/>
      <point x="388.99" y="404.882"/>
      <point x="386.761" y="398.764"/>
      <point x="382.303" y="393.975" type="curve" smooth="yes"/>
      <point x="186.477" y="183.644" type="line"/>
      <point x="245.774" y="146.85"/>
      <point x="298.289" y="129.018"/>
      <point x="350.812" y="76.4941" type="curve" smooth="yes"/>
      <point x="378.638" y="48.668"/>
      <point x="407.281" y="9.78223"/>
      <point x="420.095" y="-28.9014" type="curve" smooth="yes"/>
      <point x="425.381" y="-44.8604"/>
      <point x="428.242" y="-61.5137"/>
    </contour>
  </outline>
</glyph>
<glyph name="four" format="2">
  <advance width="469"/>
  <unicode hex="0034"/>
  <outline>
    <contour>
      <point x="290.995" y="435.995" type="curve" smooth="yes"/>
      <point x="297.395" y="435.995"/>
      <point x="303.795" y="433.556"/>
      <point x="308.673" y="428.678" type="curve" smooth="yes"/>
      <point x="313.551" y="423.8"/>
      <point x="315.99" y="417.399"/>
      <point x="315.99" y="411" type="curve" smooth="yes"/>
      <point x="315.99" y="406.998"/>
      <point x="315.036" y="402.996"/>
      <point x="313.129" y="399.366" type="curve" smooth="yes"/>
      <point x="116.379" y="24.9951" type="line"/>
      <point x="394.995" y="24.9951" type="line" smooth="yes"/>
      <point x="401.395" y="24.9951"/>
      <point x="407.795" y="22.5557"/>
      <point x="412.673" y="17.6777" type="curve" smooth="yes"/>
      <point x="417.551" y="12.7998"/>
      <point x="419.99" y="6.39941"/>
      <point x="419.99" y="0" type="curve" smooth="yes"/>
      <point x="419.99" y="-6.39941"/>
      <point x="417.551" y="-12.7998"/>
      <point x="412.673" y="-17.6777" type="curve" smooth="yes"/>
      <point x="407.795" y="-22.5557"/>
      <point x="401.395" y="-24.9951"/>
      <point x="394.995" y="-24.9951" type="curve" smooth="yes"/>
      <point x="74.9951" y="-24.9951" type="line" smooth="yes"/>
      <point x="68.5957" y="-24.9951"/>
      <point x="62.1953" y="-22.5557"/>
      <point x="57.3174" y="-17.6777" type="curve" smooth="yes"/>
      <point x="52.4395" y="-12.7998"/>
      <point x="50" y="-6.39941"/>
      <point x="50" y="0" type="curve" smooth="yes"/>
      <point x="50" y="4.00195"/>
      <point x="50.9541" y="8.00391"/>
      <point x="52.8613" y="11.6338" type="curve" smooth="yes"/>
      <point x="268.861" y="422.634" type="line" smooth="yes"/>
      <point x="272.83" y="430.185"/>
      <point x="281.683" y="435.995"/>
    </contour>
    <contour>
      <point x="315.99" y="-205" type="line" smooth="yes"/>
      <point x="315.99" y="-211.399"/>
      <point x="313.551" y="-217.8"/>
      <point x="308.673" y="-222.678" type="curve" smooth="yes"/>
      <point x="303.795" y="-227.556"/>
      <point x="297.395" y="-229.995"/>
      <point x="290.995" y="-229.995" type="curve" smooth="yes"/>
      <point x="284.596" y="-229.995"/>
      <point x="278.195" y="-227.556"/>
      <point x="273.317" y="-222.678" type="curve" smooth="yes"/>
      <point x="268.439" y="-217.8"/>
      <point x="266" y="-211.399"/>
      <point x="266" y="-205" type="curve" smooth="yes"/>
      <point x="266" y="411" type="line" smooth="yes"/>
      <point x="266" y="417.399"/>
      <point x="268.439" y="423.8"/>
      <point x="273.317" y="428.678" type="curve" smooth="yes"/>
      <point x="278.195" y="433.556"/>
      <point x="284.596" y="435.995"/>
      <point x="290.995" y="435.995" type="curve" smooth="yes"/>
      <point x="297.395" y="435.995"/>
      <point x="303.795" y="433.556"/>
      <point x="308.673" y="428.678" type="curve" smooth="yes"/>
      <point x="313.551" y="423.8"/>
      <point x="315.99" y="417.399"/>
      <point x="315.99" y="411" type="curve" smooth="yes"/>
    </contour>
    <contour>
      <point x="314" y="-199" type="curve" smooth="yes"/>
      <point x="314" y="-192.601"/>
      <point x="316.439" y="-186.2"/>
      <point x="321.317" y="-181.322" type="curve" smooth="yes"/>
      <point x="326.195" y="-176.444"/>
      <point x="332.596" y="-174.005"/>
      <point x="338.995" y="-174.005" type="curve" smooth="yes"/>
      <point x="345.395" y="-174.005"/>
      <point x="351.795" y="-176.444"/>
      <point x="356.673" y="-181.322" type="curve" smooth="yes"/>
      <point x="361.551" y="-186.2"/>
      <point x="363.99" y="-192.601"/>
      <point x="363.99" y="-199" type="curve" smooth="yes"/>
      <point x="363.99" y="-205.399"/>
      <point x="361.551" y="-211.8"/>
      <point x="356.673" y="-216.678" type="curve" smooth="yes"/>
      <point x="351.795" y="-221.556"/>
      <point x="345.395" y="-223.995"/>
      <point x="338.995" y="-223.995" type="curve" smooth="yes"/>
      <point x="332.596" y="-223.995"/>
      <point x="326.195" y="-221.556"/>
      <point x="321.317" y="-216.678" type="curve" smooth="yes"/>
      <point x="316.439" y="-211.8"/>
      <point x="314" y="-205.399"/>
    </contour>
  </outline>
</glyph>
<glyph name="five" format="2">
  <advance width="509"/>
  <unicode hex="0035"/>
  <outline>
    <contour>
      <point x="135.268" y="212.568" type="line"/>
      <point x="173.099" y="218.157"/>
      <point x="208.39" y="231.378"/>
      <point x="250.535" y="231.378" type="curve" smooth="yes"/>
      <point x="272.016" y="231.378"/>
      <point x="294.769" y="227.647"/>
      <point x="319.093" y="216.875" type="curve" smooth="yes"/>
      <point x="337.981" y="208.551"/>
      <point x="353.677" y="197.72"/>
      <point x="366.518" y="184.879" type="curve" smooth="yes"/>
      <point x="400.031" y="151.364"/>
      <point x="412.872" y="107.479"/>
      <point x="425.966" y="63.1055" type="curve" smooth="yes"/>
      <point x="435.41" y="31.0977"/>
      <point x="442" y="2.11523"/>
      <point x="442" y="-27.7998" type="curve" smooth="yes"/>
      <point x="442" y="-59.4209"/>
      <point x="435.674" y="-85.3057"/>
      <point x="421.8" y="-116.255" type="curve" smooth="yes"/>
      <point x="413.252" y="-135.294"/>
      <point x="402.397" y="-150.956"/>
      <point x="389.543" y="-163.81" type="curve" smooth="yes"/>
      <point x="364.353" y="-189.001"/>
      <point x="333.879" y="-202.108"/>
      <point x="300.737" y="-216.028" type="curve" smooth="yes"/>
      <point x="279.236" y="-225.106"/>
      <point x="259.228" y="-230.981"/>
      <point x="238.93" y="-233.578" type="curve" smooth="yes"/>
      <point x="230.532" y="-234.651"/>
      <point x="222.176" y="-235.153"/>
      <point x="213.735" y="-235.153" type="curve" smooth="yes"/>
      <point x="196.621" y="-235.153"/>
      <point x="178.823" y="-233.259"/>
      <point x="160.063" y="-229.507" type="curve" smooth="yes"/>
      <point x="128.043" y="-223.104"/>
      <point x="107.771" y="-206.807"/>
      <point x="90.792" y="-193.212" type="curve" smooth="yes"/>
      <point x="81.4795" y="-185.755"/>
      <point x="72.7422" y="-178.809"/>
      <point x="62.1387" y="-172.446" type="curve" smooth="yes"/>
      <point x="55.167" y="-168.264"/>
      <point x="50" y="-159.746"/>
      <point x="50" y="-151" type="curve" smooth="yes"/>
      <point x="50" y="-144.601"/>
      <point x="52.4395" y="-138.2"/>
      <point x="57.3174" y="-133.322" type="curve" smooth="yes"/>
      <point x="62.1953" y="-128.444"/>
      <point x="68.5957" y="-126.005"/>
      <point x="74.9951" y="-126.005" type="curve" smooth="yes"/>
      <point x="79.4521" y="-126.005"/>
      <point x="83.9082" y="-127.188"/>
      <point x="87.8516" y="-129.554" type="curve" smooth="yes"/>
      <point x="101.812" y="-137.931"/>
      <point x="112.715" y="-146.708"/>
      <point x="122.005" y="-154.146" type="curve" smooth="yes"/>
      <point x="139.39" y="-168.065"/>
      <point x="149.971" y="-176.472"/>
      <point x="169.784" y="-180.464" type="curve" smooth="yes"/>
      <point x="186.554" y="-183.603"/>
      <point x="200.581" y="-185.184"/>
      <point x="213.586" y="-185.184" type="curve" smooth="yes"/>
      <point x="220.089" y="-185.184"/>
      <point x="226.336" y="-184.788"/>
      <point x="232.542" y="-183.994" type="curve" smooth="yes"/>
      <point x="247.503" y="-182.08"/>
      <point x="262.754" y="-177.782"/>
      <point x="281.252" y="-169.972" type="curve" smooth="yes"/>
      <point x="314.286" y="-156.098"/>
      <point x="337.727" y="-144.915"/>
      <point x="354.188" y="-128.454" type="curve" smooth="yes"/>
      <point x="362.624" y="-120.019"/>
      <point x="369.855" y="-109.854"/>
      <point x="376.19" y="-95.7451" type="curve" smooth="yes"/>
      <point x="387.704" y="-70.0615"/>
      <point x="392.007" y="-51.5742"/>
      <point x="392.007" y="-27.9268" type="curve" smooth="yes"/>
      <point x="392.007" y="-5.47461"/>
      <point x="386.96" y="19.7324"/>
      <point x="377.744" y="49.8076" type="curve" smooth="yes"/>
      <point x="363.985" y="94.71"/>
      <point x="352.808" y="127.878"/>
      <point x="331.162" y="149.523" type="curve" smooth="yes"/>
      <point x="322.81" y="157.876"/>
      <point x="312.616" y="165.079"/>
      <point x="298.897" y="171.125" type="curve" smooth="yes"/>
      <point x="281.758" y="178.716"/>
      <point x="266.376" y="181.592"/>
      <point x="250.73" y="181.592" type="curve" smooth="yes"/>
      <point x="231.745" y="181.592"/>
      <point x="212.372" y="177.356"/>
      <point x="189.001" y="172.169" type="curve" smooth="yes"/>
      <point x="166.708" y="167.222"/>
      <point x="141.508" y="161.556"/>
      <point x="112.302" y="160.039" type="curve" smooth="yes"/>
      <point x="111.866" y="160.017"/>
      <point x="111.431" y="160.005"/>
      <point x="110.995" y="160.005" type="curve" smooth="yes"/>
      <point x="104.596" y="160.005"/>
      <point x="98.1953" y="162.444"/>
      <point x="93.3174" y="167.322" type="curve" smooth="yes"/>
      <point x="88.6094" y="172.03"/>
      <point x="86.1729" y="178.156"/>
      <point x="86.0088" y="184.332" type="curve" smooth="yes"/>
      <point x="80.0088" y="410.332" type="line" smooth="yes"/>
      <point x="80.0029" y="410.555"/>
      <point x="80" y="410.777"/>
      <point x="80" y="411" type="curve" smooth="yes"/>
      <point x="80" y="417.399"/>
      <point x="82.4395" y="423.8"/>
      <point x="87.3174" y="428.678" type="curve" smooth="yes"/>
      <point x="92.1953" y="433.556"/>
      <point x="98.5957" y="435.995"/>
      <point x="104.995" y="435.995" type="curve" smooth="yes"/>
      <point x="434.995" y="435.995" type="line" smooth="yes"/>
      <point x="441.395" y="435.995"/>
      <point x="447.795" y="433.556"/>
      <point x="452.673" y="428.678" type="curve" smooth="yes"/>
      <point x="457.551" y="423.8"/>
      <point x="459.99" y="417.399"/>
      <point x="459.99" y="411" type="curve" smooth="yes"/>
      <point x="459.99" y="404.601"/>
      <point x="457.551" y="398.2"/>
      <point x="452.673" y="393.322" type="curve" smooth="yes"/>
      <point x="447.795" y="388.444"/>
      <point x="441.395" y="386.005"/>
      <point x="434.995" y="386.005" type="curve" smooth="yes"/>
      <point x="130.663" y="386.005" type="line"/>
    </contour>
  </outline>
</glyph>
<glyph name="six" format="2">
  <advance width="325"/>
  <unicode hex="0036"/>
  <outline>
    <contour>
      <point x="123.729" y="330" type="curve" smooth="yes"/>
      <point x="123.729" y="336.399"/>
      <point x="126.168" y="342.8"/>
      <point x="131.046" y="347.678" type="curve" smooth="yes"/>
      <point x="135.925" y="352.556"/>
      <point x="142.324" y="354.995"/>
      <point x="148.724" y="354.995" type="curve" smooth="yes"/>
      <point x="150.891" y="354.995"/>
      <point x="153.058" y="354.716"/>
      <point x="155.166" y="354.156" type="curve" smooth="yes"/>
      <point x="172.307" y="349.608"/>
      <point x="194.5" y="342.984"/>
      <point x="213.272" y="324.211" type="curve" smooth="yes"/>
      <point x="237.801" y="299.684"/>
      <point x="250.719" y="260.412"/>
      <point x="250.719" y="197" type="curve" smooth="yes"/>
      <point x="250.719" y="145.127"/>
      <point x="244.074" y="97.3154"/>
      <point x="232.527" y="58.6768" type="curve" smooth="yes"/>
      <point x="223.322" y="27.874"/>
      <point x="211.332" y="2.22754"/>
      <point x="193.656" y="-15.4473" type="curve" smooth="yes"/>
      <point x="182.753" y="-26.3516"/>
      <point x="168.212" y="-34.9951"/>
      <point x="150.724" y="-34.9951" type="curve" smooth="yes"/>
      <point x="134.056" y="-34.9951"/>
      <point x="120.027" y="-26.9365"/>
      <point x="109.724" y="-16.6318" type="curve" smooth="yes"/>
      <point x="92.0107" y="1.08008"/>
      <point x="81.0479" y="26.7891"/>
      <point x="72.1855" y="57.457" type="curve" smooth="yes"/>
      <point x="61.0498" y="95.9971"/>
      <point x="53.9336" y="143.762"/>
      <point x="50.7754" y="195.465" type="curve" smooth="yes"/>
      <point x="50.2529" y="204.026"/>
      <point x="50" y="212.523"/>
      <point x="50" y="220.956" type="curve" smooth="yes"/>
      <point x="50" y="350.041"/>
      <point x="109.161" y="464.14"/>
      <point x="162.518" y="568.734" type="curve" smooth="yes"/>
      <point x="186.864" y="616.46"/>
      <point x="210.275" y="662.474"/>
      <point x="227.395" y="706.995" type="curve" smooth="yes"/>
      <point x="230.804" y="715.861"/>
      <point x="240.27" y="722.995"/>
      <point x="250.724" y="722.995" type="curve" smooth="yes"/>
      <point x="257.123" y="722.995"/>
      <point x="263.523" y="720.556"/>
      <point x="268.401" y="715.678" type="curve" smooth="yes"/>
      <point x="273.279" y="710.8"/>
      <point x="275.719" y="704.399"/>
      <point x="275.719" y="698" type="curve" smooth="yes"/>
      <point x="275.719" y="694.946"/>
      <point x="275.164" y="691.893"/>
      <point x="274.053" y="689.005" type="curve" smooth="yes"/>
      <point x="255.626" y="641.081"/>
      <point x="231.41" y="593.73"/>
      <point x="207.062" y="546.001" type="curve" smooth="yes"/>
      <point x="153.212" y="440.438"/>
      <point x="100.007" y="334.261"/>
      <point x="100.007" y="220.448" type="curve" smooth="yes"/>
      <point x="100.007" y="213.176"/>
      <point x="100.224" y="205.872"/>
      <point x="100.672" y="198.535" type="curve" smooth="yes"/>
      <point x="103.66" y="149.629"/>
      <point x="110.546" y="104.828"/>
      <point x="120.206" y="71.3965" type="curve" smooth="yes"/>
      <point x="127.98" y="44.4873"/>
      <point x="138.002" y="25.7998"/>
      <point x="145.078" y="18.7236" type="curve" smooth="yes"/>
      <point x="148.807" y="14.9951"/>
      <point x="150.645" y="14.9951"/>
      <point x="150.731" y="14.9951" type="curve" smooth="yes"/>
      <point x="150.963" y="14.9951"/>
      <point x="153.419" y="15.0254"/>
      <point x="158.301" y="19.9082" type="curve" smooth="yes"/>
      <point x="166.241" y="27.8477"/>
      <point x="176.749" y="46.6592"/>
      <point x="184.636" y="73.0527" type="curve" smooth="yes"/>
      <point x="194.455" y="105.909"/>
      <point x="200.729" y="149.495"/>
      <point x="200.729" y="197" type="curve" smooth="yes"/>
      <point x="200.729" y="254.61"/>
      <point x="188.69" y="278.083"/>
      <point x="177.918" y="288.856" type="curve" smooth="yes"/>
      <point x="169.379" y="297.395"/>
      <point x="158.068" y="301.655"/>
      <point x="142.282" y="305.844" type="curve" smooth="yes"/>
      <point x="132.123" y="308.539"/>
      <point x="123.729" y="318.554"/>
    </contour>
  </outline>
</glyph>
<glyph name="seven" format="2">
  <advance width="333"/>
  <unicode hex="0037"/>
  <outline>
    <contour>
      <point x="74.9951" y="386.005" type="line" smooth="yes"/>
      <point x="68.5957" y="386.005"/>
      <point x="62.1953" y="388.444"/>
      <point x="57.3174" y="393.322" type="curve" smooth="yes"/>
      <point x="52.4395" y="398.2"/>
      <point x="50" y="404.601"/>
      <point x="50" y="411" type="curve" smooth="yes"/>
      <point x="50" y="417.399"/>
      <point x="52.4395" y="423.8"/>
      <point x="57.3174" y="428.678" type="curve" smooth="yes"/>
      <point x="62.1953" y="433.556"/>
      <point x="68.5957" y="435.995"/>
      <point x="74.9951" y="435.995" type="curve" smooth="yes"/>
      <point x="258.995" y="435.995" type="line" smooth="yes"/>
      <point x="265.395" y="435.995"/>
      <point x="271.795" y="433.556"/>
      <point x="276.673" y="428.678" type="curve" smooth="yes"/>
      <point x="281.551" y="423.8"/>
      <point x="283.99" y="417.399"/>
      <point x="283.99" y="411" type="curve" smooth="yes"/>
      <point x="283.99" y="408.552"/>
      <point x="283.633" y="406.104"/>
      <point x="282.919" y="403.74" type="curve" smooth="yes"/>
      <point x="98.9189" y="-205.26" type="line" smooth="yes"/>
      <point x="95.9785" y="-214.994"/>
      <point x="86.1396" y="-222.995"/>
      <point x="74.9951" y="-222.995" type="curve" smooth="yes"/>
      <point x="68.5957" y="-222.995"/>
      <point x="62.1953" y="-220.556"/>
      <point x="57.3174" y="-215.678" type="curve" smooth="yes"/>
      <point x="52.4395" y="-210.8"/>
      <point x="50" y="-204.399"/>
      <point x="50" y="-198" type="curve" smooth="yes"/>
      <point x="50" y="-195.552"/>
      <point x="50.3574" y="-193.104"/>
      <point x="51.0713" y="-190.74" type="curve" smooth="yes"/>
      <point x="225.325" y="386.005" type="line"/>
    </contour>
  </outline>
</glyph>
<glyph name="eight" format="2">
  <advance width="265"/>
  <unicode hex="0038"/>
  <outline>
    <contour>
      <point x="99.9902" y="194" type="curve" smooth="yes"/>
      <point x="99.9902" y="147.139"/>
      <point x="105.273" y="104.334"/>
      <point x="113.467" y="72.9248" type="curve" smooth="yes"/>
      <point x="119.611" y="49.3643"/>
      <point x="127.962" y="33.0215"/>
      <point x="132.995" y="26.9561" type="curve"/>
      <point x="138.028" y="33.0215"/>
      <point x="146.379" y="49.3643"/>
      <point x="152.523" y="72.9248" type="curve" smooth="yes"/>
      <point x="160.717" y="104.334"/>
      <point x="166" y="147.139"/>
      <point x="166" y="194" type="curve" smooth="yes"/>
      <point x="166" y="240.861"/>
      <point x="160.717" y="283.666"/>
      <point x="152.523" y="315.075" type="curve" smooth="yes"/>
      <point x="146.379" y="338.636"/>
      <point x="138.028" y="354.979"/>
      <point x="132.995" y="361.044" type="curve"/>
      <point x="127.962" y="354.979"/>
      <point x="119.611" y="338.636"/>
      <point x="113.467" y="315.075" type="curve" smooth="yes"/>
      <point x="105.273" y="283.666"/>
      <point x="99.9902" y="240.861"/>
    </contour>
    <contour>
      <point x="99.9902" y="582" type="curve" smooth="yes"/>
      <point x="99.9902" y="535.139"/>
      <point x="105.273" y="492.334"/>
      <point x="113.467" y="460.925" type="curve" smooth="yes"/>
      <point x="119.611" y="437.364"/>
      <point x="127.962" y="421.021"/>
      <point x="132.995" y="414.956" type="curve"/>
      <point x="138.028" y="421.021"/>
      <point x="146.379" y="437.364"/>
      <point x="152.523" y="460.925" type="curve" smooth="yes"/>
      <point x="160.717" y="492.334"/>
      <point x="166" y="535.139"/>
      <point x="166" y="582" type="curve" smooth="yes"/>
      <point x="166" y="628.861"/>
      <point x="160.717" y="671.666"/>
      <point x="152.523" y="703.075" type="curve" smooth="yes"/>
      <point x="146.379" y="726.636"/>
      <point x="138.028" y="742.979"/>
      <point x="132.995" y="749.044" type="curve"/>
      <point x="127.962" y="742.979"/>
      <point x="119.611" y="726.636"/>
      <point x="113.467" y="703.075" type="curve" smooth="yes"/>
      <point x="105.273" y="671.666"/>
      <point x="99.9902" y="628.861"/>
    </contour>
    <contour>
      <point x="50" y="194" type="curve" smooth="yes"/>
      <point x="50" y="244.598"/>
      <point x="55.502" y="290.955"/>
      <point x="65.1006" y="327.756" type="curve" smooth="yes"/>
      <point x="71.3564" y="351.74"/>
      <point x="78.915" y="372.313"/>
      <point x="90.4961" y="388" type="curve"/>
      <point x="78.915" y="403.687"/>
      <point x="71.3564" y="424.26"/>
      <point x="65.1006" y="448.244" type="curve" smooth="yes"/>
      <point x="55.502" y="485.045"/>
      <point x="50" y="531.402"/>
      <point x="50" y="582" type="curve" smooth="yes"/>
      <point x="50" y="632.598"/>
      <point x="55.502" y="678.955"/>
      <point x="65.1006" y="715.756" type="curve" smooth="yes"/>
      <point x="72.7266" y="744.994"/>
      <point x="82.2891" y="769.164"/>
      <point x="98.7148" y="785.59" type="curve" smooth="yes"/>
      <point x="106.915" y="793.79"/>
      <point x="118.529" y="800.995"/>
      <point x="132.995" y="800.995" type="curve" smooth="yes"/>
      <point x="147.461" y="800.995"/>
      <point x="159.075" y="793.79"/>
      <point x="167.275" y="785.59" type="curve" smooth="yes"/>
      <point x="183.701" y="769.164"/>
      <point x="193.264" y="744.994"/>
      <point x="200.89" y="715.756" type="curve" smooth="yes"/>
      <point x="210.488" y="678.955"/>
      <point x="215.99" y="632.598"/>
      <point x="215.99" y="582" type="curve" smooth="yes"/>
      <point x="215.99" y="531.402"/>
      <point x="210.488" y="485.045"/>
      <point x="200.89" y="448.244" type="curve" smooth="yes"/>
      <point x="194.634" y="424.26"/>
      <point x="187.075" y="403.687"/>
      <point x="175.494" y="388" type="curve"/>
      <point x="187.075" y="372.313"/>
      <point x="194.634" y="351.74"/>
      <point x="200.89" y="327.756" type="curve" smooth="yes"/>
      <point x="210.488" y="290.955"/>
      <point x="215.99" y="244.598"/>
      <point x="215.99" y="194" type="curve" smooth="yes"/>
      <point x="215.99" y="143.402"/>
      <point x="210.488" y="97.0449"/>
      <point x="200.89" y="60.2441" type="curve" smooth="yes"/>
      <point x="193.264" y="31.0059"/>
      <point x="183.701" y="6.83594"/>
      <point x="167.275" y="-9.58984" type="curve" smooth="yes"/>
      <point x="159.075" y="-17.79"/>
      <point x="147.461" y="-24.9951"/>
      <point x="132.995" y="-24.9951" type="curve" smooth="yes"/>
      <point x="118.529" y="-24.9951"/>
      <point x="106.915" y="-17.79"/>
      <point x="98.7148" y="-9.58984" type="curve" smooth="yes"/>
      <point x="82.2891" y="6.83594"/>
      <point x="72.7266" y="31.0059"/>
      <point x="65.1006" y="60.2441" type="curve" smooth="yes"/>
      <point x="55.502" y="97.0449"/>
      <point x="50" y="143.402"/>
    </contour>
  </outline>
</glyph>
<glyph name="nine" format="2">
  <advance width="307"/>
  <unicode hex="0039"/>
  <outline>
    <contour>
      <point x="50" y="198.151" type="curve" smooth="yes"/>
      <point x="50" y="250.024"/>
      <point x="56.6445" y="297.836"/>
      <point x="68.1914" y="336.475" type="curve" smooth="yes"/>
      <point x="77.3965" y="367.277"/>
      <point x="89.3867" y="392.924"/>
      <point x="107.062" y="410.599" type="curve" smooth="yes"/>
      <point x="117.967" y="421.503"/>
      <point x="132.507" y="430.146"/>
      <point x="149.995" y="430.146" type="curve" smooth="yes"/>
      <point x="166.987" y="430.146"/>
      <point x="181.019" y="421.737"/>
      <point x="191.402" y="411.354" type="curve" smooth="yes"/>
      <point x="209.366" y="393.389"/>
      <point x="221.16" y="367.17"/>
      <point x="230.961" y="335.826" type="curve" smooth="yes"/>
      <point x="243.261" y="296.487"/>
      <point x="251.72" y="247.921"/>
      <point x="255.908" y="196.183" type="curve" smooth="yes"/>
      <point x="256.818" y="184.936"/>
      <point x="257.251" y="173.984"/>
      <point x="257.251" y="163.308" type="curve" smooth="yes"/>
      <point x="257.251" y="56.7471"/>
      <point x="214.226" y="-22.5195"/>
      <point x="174.424" y="-96.2783" type="curve" smooth="yes"/>
      <point x="154.219" y="-133.722"/>
      <point x="134.678" y="-170.094"/>
      <point x="120.444" y="-208.677" type="curve" smooth="yes"/>
      <point x="117.113" y="-217.707"/>
      <point x="107.578" y="-224.995"/>
      <point x="96.9951" y="-224.995" type="curve" smooth="yes"/>
      <point x="90.5957" y="-224.995"/>
      <point x="84.1953" y="-222.556"/>
      <point x="79.3174" y="-217.678" type="curve" smooth="yes"/>
      <point x="74.4395" y="-212.8"/>
      <point x="72" y="-206.399"/>
      <point x="72" y="-200" type="curve" smooth="yes"/>
      <point x="72" y="-197.059"/>
      <point x="72.5156" y="-194.117"/>
      <point x="73.5459" y="-191.323" type="curve" smooth="yes"/>
      <point x="89.3691" y="-148.432"/>
      <point x="110.223" y="-109.945"/>
      <point x="130.413" y="-72.5303" type="curve" smooth="yes"/>
      <point x="158.262" y="-20.9209"/>
      <point x="184.559" y="28.0352"/>
      <point x="197.988" y="84.1875" type="curve"/>
      <point x="193.325" y="85.0557"/>
      <point x="184.284" y="85.6807"/>
      <point x="173.492" y="86.0645" type="curve" smooth="yes"/>
      <point x="158.796" y="86.5869"/>
      <point x="140.698" y="87.0195"/>
      <point x="122.021" y="91.8555" type="curve" smooth="yes"/>
      <point x="107.105" y="95.7178"/>
      <point x="91.3584" y="102.682"/>
      <point x="78.2422" y="115.798" type="curve" smooth="yes"/>
      <point x="59.6846" y="134.355"/>
      <point x="50" y="161.953"/>
    </contour>
    <contour>
      <point x="99.9902" y="198.151" type="curve" smooth="yes"/>
      <point x="99.9902" y="170.353"/>
      <point x="106.884" y="157.867"/>
      <point x="113.598" y="151.153" type="curve" smooth="yes"/>
      <point x="119.8" y="144.951"/>
      <point x="129.066" y="140.933"/>
      <point x="141.825" y="138.699" type="curve" smooth="yes"/>
      <point x="161.916" y="135.183"/>
      <point x="185.113" y="137.531"/>
      <point x="206.025" y="133.603" type="curve"/>
      <point x="206.848" y="143.106"/>
      <point x="207.28" y="152.854"/>
      <point x="207.28" y="162.88" type="curve" smooth="yes"/>
      <point x="207.28" y="172.366"/>
      <point x="206.893" y="182.102"/>
      <point x="206.082" y="192.12" type="curve" smooth="yes"/>
      <point x="202.136" y="240.871"/>
      <point x="194.013" y="286.437"/>
      <point x="183.253" y="320.848" type="curve" smooth="yes"/>
      <point x="174.606" y="348.502"/>
      <point x="163.809" y="368.236"/>
      <point x="156.047" y="375.998" type="curve" smooth="yes"/>
      <point x="152.168" y="379.877"/>
      <point x="150.507" y="380.165"/>
      <point x="150.099" y="380.165" type="curve" smooth="yes"/>
      <point x="150.028" y="380.165"/>
      <point x="149.995" y="380.156"/>
      <point x="149.995" y="380.156" type="curve" smooth="yes"/>
      <point x="149.756" y="380.156"/>
      <point x="147.301" y="380.126"/>
      <point x="142.418" y="375.243" type="curve" smooth="yes"/>
      <point x="134.479" y="367.304"/>
      <point x="123.971" y="348.492"/>
      <point x="116.083" y="322.099" type="curve" smooth="yes"/>
      <point x="106.264" y="289.242"/>
      <point x="99.9902" y="245.656"/>
    </contour>
  </outline>
</glyph>
<glyph name="semicolon" format="2">
  <advance width="185"/>
  <unicode hex="003B"/>
  <outline>
    <contour>
      <point x="77" y="26" type="curve" smooth="yes"/>
      <point x="77" y="32.3994"/>
      <point x="79.4395" y="38.7998"/>
      <point x="84.3174" y="43.6777" type="curve" smooth="yes"/>
      <point x="89.1953" y="48.5557"/>
      <point x="95.5957" y="50.9951"/>
      <point x="101.995" y="50.9951" type="curve" smooth="yes"/>
      <point x="111.91" y="50.9951"/>
      <point x="121.096" y="44.4854"/>
      <point x="124.791" y="36.2734" type="curve" smooth="yes"/>
      <point x="128.104" y="28.9131"/>
      <point x="135.99" y="8.06934"/>
      <point x="135.99" y="-7" type="curve" smooth="yes"/>
      <point x="135.99" y="-22.7305"/>
      <point x="129.782" y="-35.3594"/>
      <point x="123.551" y="-45.4863" type="curve" smooth="yes"/>
      <point x="115.617" y="-58.3779"/>
      <point x="106.099" y="-68.6377"/>
      <point x="99.4629" y="-75.2734" type="curve" smooth="yes"/>
      <point x="94.875" y="-79.8613"/>
      <point x="91.6592" y="-82.6436"/>
      <point x="91.292" y="-82.96" type="curve" smooth="yes"/>
      <point x="86.6191" y="-86.9834"/>
      <point x="80.8066" y="-88.9951"/>
      <point x="74.9951" y="-88.9951" type="curve" smooth="yes"/>
      <point x="68.5957" y="-88.9951"/>
      <point x="62.1953" y="-86.5557"/>
      <point x="57.3174" y="-81.6777" type="curve" smooth="yes"/>
      <point x="52.4395" y="-76.7998"/>
      <point x="50" y="-70.3994"/>
      <point x="50" y="-64" type="curve" smooth="yes"/>
      <point x="50" y="-56.9229"/>
      <point x="53.25" y="-49.7324"/>
      <point x="58.6982" y="-45.04" type="curve" smooth="yes"/>
      <point x="65.584" y="-39.1113"/>
      <point x="75.0225" y="-28.9248"/>
      <point x="80.9473" y="-19.2979" type="curve" smooth="yes"/>
      <point x="84.7891" y="-13.0537"/>
      <point x="86" y="-7.96094"/>
      <point x="86" y="-7" type="curve" smooth="yes"/>
      <point x="86" y="-6.11426"/>
      <point x="85.0303" y="-0.511719"/>
      <point x="83.4385" y="4.46289" type="curve" smooth="yes"/>
      <point x="81.3057" y="11.1279"/>
      <point x="79.1992" y="15.7266"/>
      <point x="79.1992" y="15.7266" type="curve" smooth="yes"/>
      <point x="77.7334" y="18.9834"/>
      <point x="77" y="22.4922"/>
    </contour>
    <contour>
      <point x="51.5" y="388" type="curve" smooth="yes"/>
      <point x="51.5" y="394.399"/>
      <point x="53.9395" y="400.8"/>
      <point x="58.8174" y="405.678" type="curve" smooth="yes"/>
      <point x="63.6953" y="410.556"/>
      <point x="70.0957" y="412.995"/>
      <point x="76.4951" y="412.995" type="curve" smooth="yes"/>
      <point x="82.8945" y="412.995"/>
      <point x="89.2949" y="410.556"/>
      <point x="94.1729" y="405.678" type="curve" smooth="yes"/>
      <point x="99.0508" y="400.8"/>
      <point x="101.49" y="394.399"/>
      <point x="101.49" y="388" type="curve" smooth="yes"/>
      <point x="101.49" y="381.601"/>
      <point x="99.0508" y="375.2"/>
      <point x="94.1729" y="370.322" type="curve" smooth="yes"/>
      <point x="89.2949" y="365.444"/>
      <point x="82.8945" y="363.005"/>
      <point x="76.4951" y="363.005" type="curve" smooth="yes"/>
      <point x="70.0957" y="363.005"/>
      <point x="63.6953" y="365.444"/>
      <point x="58.8174" y="370.322" type="curve" smooth="yes"/>
      <point x="53.9395" y="375.2"/>
      <point x="51.5" y="381.601"/>
    </contour>
  </outline>
</glyph>
<glyph name="less" format="2">
  <advance width="383"/>
  <unicode hex="003C"/>
  <outline>
    <contour>
      <point x="308.995" y="659.995" type="curve" smooth="yes"/>
      <point x="315.395" y="659.995"/>
      <point x="321.795" y="657.556"/>
      <point x="326.673" y="652.678" type="curve" smooth="yes"/>
      <point x="331.551" y="647.8"/>
      <point x="333.99" y="641.399"/>
      <point x="333.99" y="635" type="curve" smooth="yes"/>
      <point x="333.99" y="628.407"/>
      <point x="331.316" y="621.759"/>
      <point x="326.276" y="616.934" type="curve" smooth="yes"/>
      <point x="110.224" y="410.114" type="line"/>
      <point x="315.177" y="193.159" type="line" smooth="yes"/>
      <point x="319.719" y="188.351"/>
      <point x="321.99" y="182.176"/>
      <point x="321.99" y="176" type="curve" smooth="yes"/>
      <point x="321.99" y="169.601"/>
      <point x="319.551" y="163.2"/>
      <point x="314.673" y="158.322" type="curve" smooth="yes"/>
      <point x="309.795" y="153.444"/>
      <point x="303.395" y="151.005"/>
      <point x="296.995" y="151.005" type="curve" smooth="yes"/>
      <point x="290.343" y="151.005"/>
      <point x="283.621" y="153.751"/>
      <point x="278.813" y="158.841" type="curve" smooth="yes"/>
      <point x="56.8135" y="393.841" type="line" smooth="yes"/>
      <point x="52.2715" y="398.649"/>
      <point x="50" y="404.824"/>
      <point x="50" y="411" type="curve" smooth="yes"/>
      <point x="50" y="417.593"/>
      <point x="52.6738" y="424.241"/>
      <point x="57.7139" y="429.066" type="curve" smooth="yes"/>
      <point x="291.714" y="653.066" type="line" smooth="yes"/>
      <point x="296.54" y="657.686"/>
      <point x="302.768" y="659.995"/>
    </contour>
  </outline>
</glyph>
<glyph name="equal" format="2">
  <advance width="497"/>
  <unicode hex="003D"/>
  <outline>
    <contour>
      <point x="74.9951" y="347.005" type="line" smooth="yes"/>
      <point x="68.5957" y="347.005"/>
      <point x="62.1953" y="349.444"/>
      <point x="57.3174" y="354.322" type="curve" smooth="yes"/>
      <point x="52.4395" y="359.2"/>
      <point x="50" y="365.601"/>
      <point x="50" y="372" type="curve" smooth="yes"/>
      <point x="50" y="378.399"/>
      <point x="52.4395" y="384.8"/>
      <point x="57.3174" y="389.678" type="curve" smooth="yes"/>
      <point x="62.1953" y="394.556"/>
      <point x="68.5957" y="396.995"/>
      <point x="74.9951" y="396.995" type="curve" smooth="yes"/>
      <point x="422.995" y="396.995" type="line" smooth="yes"/>
      <point x="429.395" y="396.995"/>
      <point x="435.795" y="394.556"/>
      <point x="440.673" y="389.678" type="curve" smooth="yes"/>
      <point x="445.551" y="384.8"/>
      <point x="447.99" y="378.399"/>
      <point x="447.99" y="372" type="curve" smooth="yes"/>
      <point x="447.99" y="365.601"/>
      <point x="445.551" y="359.2"/>
      <point x="440.673" y="354.322" type="curve" smooth="yes"/>
      <point x="435.795" y="349.444"/>
      <point x="429.395" y="347.005"/>
      <point x="422.995" y="347.005" type="curve" smooth="yes"/>
    </contour>
    <contour>
      <point x="74.9951" y="447.005" type="line" smooth="yes"/>
      <point x="68.5957" y="447.005"/>
      <point x="62.1953" y="449.444"/>
      <point x="57.3174" y="454.322" type="curve" smooth="yes"/>
      <point x="52.4395" y="459.2"/>
      <point x="50" y="465.601"/>
      <point x="50" y="472" type="curve" smooth="yes"/>
      <point x="50" y="478.399"/>
      <point x="52.4395" y="484.8"/>
      <point x="57.3174" y="489.678" type="curve" smooth="yes"/>
      <point x="62.1953" y="494.556"/>
      <point x="68.5957" y="496.995"/>
      <point x="74.9951" y="496.995" type="curve" smooth="yes"/>
      <point x="422.995" y="496.995" type="line" smooth="yes"/>
      <point x="429.395" y="496.995"/>
      <point x="435.795" y="494.556"/>
      <point x="440.673" y="489.678" type="curve" smooth="yes"/>
      <point x="445.551" y="484.8"/>
      <point x="447.99" y="478.399"/>
      <point x="447.99" y="472" type="curve" smooth="yes"/>
      <point x="447.99" y="465.601"/>
      <point x="445.551" y="459.2"/>
      <point x="440.673" y="454.322" type="curve" smooth="yes"/>
      <point x="435.795" y="449.444"/>
      <point x="429.395" y="447.005"/>
      <point x="422.995" y="447.005" type="curve" smooth="yes"/>
    </contour>
  </outline>
</glyph>
<glyph name="greater" format="2">
  <advance width="383"/>
  <unicode hex="003E"/>
  <outline>
    <contour>
      <point x="50" y="635" type="curve" smooth="yes"/>
      <point x="50" y="641.399"/>
      <point x="52.4395" y="647.8"/>
      <point x="57.3174" y="652.678" type="curve" smooth="yes"/>
      <point x="62.1953" y="657.556"/>
      <point x="68.5957" y="659.995"/>
      <point x="74.9951" y="659.995" type="curve" smooth="yes"/>
      <point x="81.2227" y="659.995"/>
      <point x="87.4502" y="657.686"/>
      <point x="92.2764" y="653.066" type="curve" smooth="yes"/>
      <point x="326.276" y="429.066" type="line" smooth="yes"/>
      <point x="331.314" y="424.242"/>
      <point x="333.99" y="417.592"/>
      <point x="333.99" y="411" type="curve" smooth="yes"/>
      <point x="333.99" y="404.824"/>
      <point x="331.719" y="398.649"/>
      <point x="327.177" y="393.841" type="curve" smooth="yes"/>
      <point x="105.177" y="158.841" type="line" smooth="yes"/>
      <point x="100.37" y="153.753"/>
      <point x="93.6455" y="151.005"/>
      <point x="86.9951" y="151.005" type="curve" smooth="yes"/>
      <point x="80.5957" y="151.005"/>
      <point x="74.1953" y="153.444"/>
      <point x="69.3174" y="158.322" type="curve" smooth="yes"/>
      <point x="64.4395" y="163.2"/>
      <point x="62" y="169.601"/>
      <point x="62" y="176" type="curve" smooth="yes"/>
      <point x="62" y="182.176"/>
      <point x="64.2715" y="188.351"/>
      <point x="68.8135" y="193.159" type="curve" smooth="yes"/>
      <point x="273.767" y="410.114" type="line"/>
      <point x="57.7139" y="616.934" type="line" smooth="yes"/>
      <point x="52.6758" y="621.758"/>
      <point x="50" y="628.408"/>
    </contour>
  </outline>
</glyph>
<glyph name="question" format="2">
  <advance width="355"/>
  <unicode hex="003F"/>
  <outline>
    <contour>
      <point x="173.99" y="375.005" type="line"/>
      <point x="173.99" y="212" type="line" smooth="yes"/>
      <point x="173.99" y="205.601"/>
      <point x="171.551" y="199.2"/>
      <point x="166.673" y="194.322" type="curve" smooth="yes"/>
      <point x="161.795" y="189.444"/>
      <point x="155.395" y="187.005"/>
      <point x="148.995" y="187.005" type="curve" smooth="yes"/>
      <point x="142.596" y="187.005"/>
      <point x="136.195" y="189.444"/>
      <point x="131.317" y="194.322" type="curve" smooth="yes"/>
      <point x="126.439" y="199.2"/>
      <point x="124" y="205.601"/>
      <point x="124" y="212" type="curve" smooth="yes"/>
      <point x="124" y="400" type="line" smooth="yes"/>
      <point x="124" y="406.399"/>
      <point x="126.439" y="412.8"/>
      <point x="131.317" y="417.678" type="curve" smooth="yes"/>
      <point x="136.195" y="422.556"/>
      <point x="142.596" y="424.995"/>
      <point x="148.995" y="424.995" type="curve" smooth="yes"/>
      <point x="229.212" y="424.995" type="line"/>
      <point x="248.645" y="457.348"/>
      <point x="256.031" y="484.273"/>
      <point x="256.031" y="507.518" type="curve" smooth="yes"/>
      <point x="256.031" y="512.39"/>
      <point x="255.706" y="517.101"/>
      <point x="255.1" y="521.666" type="curve" smooth="yes"/>
      <point x="252.098" y="544.271"/>
      <point x="241.82" y="565.43"/>
      <point x="225.064" y="586.409" type="curve"/>
      <point x="202.432" y="605.164"/>
      <point x="181.633" y="613.013"/>
      <point x="161.174" y="613.013" type="curve" smooth="yes"/>
      <point x="158.739" y="613.013"/>
      <point x="156.31" y="612.901"/>
      <point x="153.882" y="612.685" type="curve" smooth="yes"/>
      <point x="137.555" y="611.224"/>
      <point x="119.61" y="604.615"/>
      <point x="99.9902" y="591.27" type="curve"/>
      <point x="99.9902" y="570" type="line" smooth="yes"/>
      <point x="99.9902" y="563.601"/>
      <point x="97.5508" y="557.2"/>
      <point x="92.6729" y="552.322" type="curve" smooth="yes"/>
      <point x="87.7949" y="547.444"/>
      <point x="81.3945" y="545.005"/>
      <point x="74.9951" y="545.005" type="curve" smooth="yes"/>
      <point x="68.5957" y="545.005"/>
      <point x="62.1953" y="547.444"/>
      <point x="57.3174" y="552.322" type="curve" smooth="yes"/>
      <point x="52.4395" y="557.2"/>
      <point x="50" y="563.601"/>
      <point x="50" y="570" type="curve" smooth="yes"/>
      <point x="50" y="604" type="line" smooth="yes"/>
      <point x="50" y="611.582"/>
      <point x="53.8438" y="619.253"/>
      <point x="59.7285" y="623.8" type="curve" smooth="yes"/>
      <point x="88.4219" y="645.972"/>
      <point x="118.341" y="659.696"/>
      <point x="149.395" y="662.475" type="curve" smooth="yes"/>
      <point x="153.225" y="662.816"/>
      <point x="157.036" y="662.986"/>
      <point x="160.829" y="662.986" type="curve" smooth="yes"/>
      <point x="195.851" y="662.986"/>
      <point x="229.179" y="648.556"/>
      <point x="259.169" y="623.064" type="curve" smooth="yes"/>
      <point x="260.321" y="622.086"/>
      <point x="261.422" y="620.963"/>
      <point x="262.376" y="619.794" type="curve" smooth="yes"/>
      <point x="284.004" y="593.311"/>
      <point x="300.036" y="563.054"/>
      <point x="304.652" y="528.293" type="curve" smooth="yes"/>
      <point x="305.547" y="521.554"/>
      <point x="305.999" y="514.729"/>
      <point x="305.999" y="507.817" type="curve" smooth="yes"/>
      <point x="305.999" y="469.905"/>
      <point x="292.41" y="429.391"/>
      <point x="263.86" y="386.223" type="curve" smooth="yes"/>
      <point x="259.528" y="379.672"/>
      <point x="251.303" y="375.005"/>
      <point x="242.995" y="375.005" type="curve" smooth="yes"/>
    </contour>
    <contour>
      <point x="128" y="152" type="line" smooth="yes"/>
      <point x="128" y="158.399"/>
      <point x="130.439" y="164.8"/>
      <point x="135.317" y="169.678" type="curve" smooth="yes"/>
      <point x="140.195" y="174.556"/>
      <point x="146.596" y="176.995"/>
      <point x="152.995" y="176.995" type="curve" smooth="yes"/>
      <point x="159.395" y="176.995"/>
      <point x="165.795" y="174.556"/>
      <point x="170.673" y="169.678" type="curve" smooth="yes"/>
      <point x="175.551" y="164.8"/>
      <point x="177.99" y="158.399"/>
      <point x="177.99" y="152" type="curve" smooth="yes"/>
      <point x="177.99" y="108" type="line" smooth="yes"/>
      <point x="177.99" y="101.601"/>
      <point x="175.551" y="95.2002"/>
      <point x="170.673" y="90.3223" type="curve" smooth="yes"/>
      <point x="165.795" y="85.4443"/>
      <point x="159.395" y="83.0049"/>
      <point x="152.995" y="83.0049" type="curve" smooth="yes"/>
      <point x="146.596" y="83.0049"/>
      <point x="140.195" y="85.4443"/>
      <point x="135.317" y="90.3223" type="curve" smooth="yes"/>
      <point x="130.439" y="95.2002"/>
      <point x="128" y="101.601"/>
      <point x="128" y="108" type="curve" smooth="yes"/>
    </contour>
  </outline>
</glyph>
<glyph name="at" format="2">
  <advance width="767"/>
  <unicode hex="0040"/>
  <outline>
    <contour>
      <point x="170" y="176" type="curve" smooth="yes"/>
      <point x="170" y="182.735"/>
      <point x="169.955" y="189.418"/>
      <point x="169.955" y="196.384" type="curve" smooth="yes"/>
      <point x="169.955" y="256.869"/>
      <point x="175.092" y="314.753"/>
      <point x="209.284" y="348.945" type="curve" smooth="yes"/>
      <point x="225.648" y="365.31"/>
      <point x="248.651" y="374.995"/>
      <point x="275.995" y="374.995" type="curve" smooth="yes"/>
      <point x="313.946" y="374.995"/>
      <point x="342.443" y="356.572"/>
      <point x="364.815" y="342.855" type="curve" smooth="yes"/>
      <point x="386.548" y="329.531"/>
      <point x="402.561" y="320.995"/>
      <point x="416.995" y="320.995" type="curve" smooth="yes"/>
      <point x="423.395" y="320.995"/>
      <point x="429.795" y="318.556"/>
      <point x="434.673" y="313.678" type="curve" smooth="yes"/>
      <point x="439.551" y="308.8"/>
      <point x="441.99" y="302.399"/>
      <point x="441.99" y="296" type="curve" smooth="yes"/>
      <point x="441.99" y="289.601"/>
      <point x="439.551" y="283.2"/>
      <point x="434.673" y="278.322" type="curve" smooth="yes"/>
      <point x="429.795" y="273.444"/>
      <point x="423.395" y="271.005"/>
      <point x="416.995" y="271.005" type="curve" smooth="yes"/>
      <point x="384.238" y="271.005"/>
      <point x="359.349" y="287.547"/>
      <point x="338.696" y="300.21" type="curve" smooth="yes"/>
      <point x="315.495" y="314.435"/>
      <point x="296.706" y="325.005"/>
      <point x="275.995" y="325.005" type="curve" smooth="yes"/>
      <point x="260.209" y="325.005"/>
      <point x="251.534" y="320.483"/>
      <point x="244.64" y="313.59" type="curve" smooth="yes"/>
      <point x="235.805" y="304.755"/>
      <point x="228.767" y="288.591"/>
      <point x="224.837" y="267.659" type="curve" smooth="yes"/>
      <point x="220.462" y="244.351"/>
      <point x="219.958" y="216.944"/>
      <point x="219.958" y="192.748" type="curve" smooth="yes"/>
      <point x="219.958" y="187.146"/>
      <point x="219.99" y="181.504"/>
      <point x="219.99" y="176" type="curve" smooth="yes"/>
      <point x="219.99" y="133.257"/>
      <point x="234.626" y="102.618"/>
      <point x="257.542" y="79.7031" type="curve" smooth="yes"/>
      <point x="292.602" y="44.6436"/>
      <point x="350.623" y="26.9951"/>
      <point x="407.995" y="26.9951" type="curve" smooth="yes"/>
      <point x="419.767" y="26.9951"/>
      <point x="427.02" y="30.6426"/>
      <point x="433.43" y="37.0537" type="curve" smooth="yes"/>
      <point x="447.536" y="51.1602"/>
      <point x="455" y="81.5635"/>
      <point x="455" y="110" type="curve" smooth="yes"/>
      <point x="455" y="123.773"/>
      <point x="455.626" y="134.396"/>
      <point x="457.535" y="143.757" type="curve" smooth="yes"/>
      <point x="458.997" y="150.925"/>
      <point x="460.86" y="158.977"/>
      <point x="468.7" y="166.815" type="curve" smooth="yes"/>
      <point x="473.534" y="171.65"/>
      <point x="480.759" y="175.83"/>
      <point x="490.249" y="175.83" type="curve" smooth="yes"/>
      <point x="503.878" y="175.83"/>
      <point x="512.734" y="168.009"/>
      <point x="518.954" y="161.789" type="curve" smooth="yes"/>
      <point x="528.599" y="152.145"/>
      <point x="537.027" y="139.932"/>
      <point x="546.601" y="126.585" type="curve" smooth="yes"/>
      <point x="558.717" y="109.692"/>
      <point x="572.093" y="91.3193"/>
      <point x="584.581" y="78.8301" type="curve" smooth="yes"/>
      <point x="596.752" y="66.6592"/>
      <point x="606.143" y="62.9951"/>
      <point x="608.995" y="62.9951" type="curve" smooth="yes"/>
      <point x="627.611" y="62.9951"/>
      <point x="637.468" y="68.0264"/>
      <point x="644.695" y="75.2529" type="curve" smooth="yes"/>
      <point x="664.999" y="95.5566"/>
      <point x="668" y="140.874"/>
      <point x="668" y="185" type="curve" smooth="yes"/>
      <point x="668" y="246.804"/>
      <point x="639.997" y="306.091"/>
      <point x="595.077" y="351.011" type="curve" smooth="yes"/>
      <point x="546.814" y="399.273"/>
      <point x="479.807" y="430.005"/>
      <point x="410.995" y="430.005" type="curve" smooth="yes"/>
      <point x="297.438" y="430.005"/>
      <point x="212.421" y="404.608"/>
      <point x="161.29" y="353.478" type="curve" smooth="yes"/>
      <point x="122.553" y="314.74"/>
      <point x="99.9902" y="259.027"/>
      <point x="99.9902" y="179" type="curve" smooth="yes"/>
      <point x="99.9902" y="84.2266"/>
      <point x="137.636" y="-13.4834"/>
      <point x="199.757" y="-75.6035" type="curve" smooth="yes"/>
      <point x="242.232" y="-118.079"/>
      <point x="295.423" y="-144.005"/>
      <point x="356.995" y="-144.005" type="curve" smooth="yes"/>
      <point x="357.492" y="-144.005"/>
      <point x="526.858" y="-147.005"/>
      <point x="635.995" y="-147.005" type="curve" smooth="yes"/>
      <point x="648.391" y="-147.005"/>
      <point x="659" y="-139.134"/>
      <point x="659" y="-127" type="curve" smooth="yes"/>
      <point x="659" y="-114.308"/>
      <point x="665.924" y="-105.714"/>
      <point x="668.879" y="-102.41" type="curve" smooth="yes"/>
      <point x="671.62" y="-92.3281"/>
      <point x="681.603" y="-84.0049"/>
      <point x="692.995" y="-84.0049" type="curve" smooth="yes"/>
      <point x="699.395" y="-84.0049"/>
      <point x="705.795" y="-86.4443"/>
      <point x="710.673" y="-91.3223" type="curve" smooth="yes"/>
      <point x="715.551" y="-96.2002"/>
      <point x="717.99" y="-102.601"/>
      <point x="717.99" y="-109" type="curve" smooth="yes"/>
      <point x="717.99" y="-120.856"/>
      <point x="711.948" y="-129.138"/>
      <point x="708.743" y="-132.869" type="curve" smooth="yes"/>
      <point x="705.641" y="-169.608"/>
      <point x="673.735" y="-196.995"/>
      <point x="635.995" y="-196.995" type="curve" smooth="yes"/>
      <point x="528.848" y="-196.995"/>
      <point x="363.579" y="-194.114"/>
      <point x="356.769" y="-193.995" type="curve" smooth="yes"/>
      <point x="280.325" y="-193.93"/>
      <point x="214.536" y="-161.094"/>
      <point x="164.401" y="-110.959" type="curve" smooth="yes"/>
      <point x="91.3467" y="-37.9043"/>
      <point x="50" y="71.6699"/>
      <point x="50" y="179" type="curve" smooth="yes"/>
      <point x="50" y="268.667"/>
      <point x="76.165" y="339.063"/>
      <point x="125.935" y="388.833" type="curve" smooth="yes"/>
      <point x="191.123" y="454.021"/>
      <point x="291.133" y="479.995"/>
      <point x="410.995" y="479.995" type="curve" smooth="yes"/>
      <point x="494.757" y="479.995"/>
      <point x="573.562" y="443.235"/>
      <point x="630.433" y="386.366" type="curve" smooth="yes"/>
      <point x="683.379" y="333.42"/>
      <point x="717.99" y="262.222"/>
      <point x="717.99" y="185" type="curve" smooth="yes"/>
      <point x="717.99" y="124.98"/>
      <point x="712.104" y="71.9521"/>
      <point x="680.051" y="39.8984" type="curve" smooth="yes"/>
      <point x="662.57" y="22.418"/>
      <point x="638.049" y="13.0049"/>
      <point x="608.995" y="13.0049" type="curve" smooth="yes"/>
      <point x="583.345" y="13.0049"/>
      <point x="564.205" y="28.4961"/>
      <point x="549.227" y="43.4746" type="curve" smooth="yes"/>
      <point x="531.832" y="60.8682"/>
      <point x="517.466" y="81.459"/>
      <point x="504.743" y="99.1416" type="curve"/>
      <point x="502.908" y="59.2188"/>
      <point x="491.559" y="24.4717"/>
      <point x="468.785" y="1.69824" type="curve" smooth="yes"/>
      <point x="453.719" y="-13.3691"/>
      <point x="432.676" y="-22.9951"/>
      <point x="407.995" y="-22.9951" type="curve" smooth="yes"/>
      <point x="341.594" y="-22.9951"/>
      <point x="270.34" y="-3.80566"/>
      <point x="222.187" y="44.3477" type="curve" smooth="yes"/>
      <point x="190.211" y="76.3232"/>
      <point x="170" y="120.756"/>
    </contour>
  </outline>
</glyph>
<glyph name="A" format="2">
  <advance width="506"/>
  <unicode hex="0041"/>
  <outline>
    <contour>
      <point x="149.378" y="457.812" type="curve"/>
      <point x="148.998" y="468.626"/>
      <point x="148.789" y="479.791"/>
      <point x="148.789" y="490.704" type="curve" smooth="yes"/>
      <point x="148.789" y="593.674"/>
      <point x="194.082" y="693.574"/>
      <point x="260.376" y="768.686" type="curve" smooth="yes"/>
      <point x="268.02" y="777.346"/>
      <point x="284.67" y="795.355"/>
      <point x="296.51" y="803.807" type="curve" smooth="yes"/>
      <point x="302.751" y="808.261"/>
      <point x="309.571" y="812.995"/>
      <point x="320.995" y="812.995" type="curve" smooth="yes"/>
      <point x="328.538" y="812.995"/>
      <point x="335.85" y="809.406"/>
      <point x="340.248" y="805.009" type="curve" smooth="yes"/>
      <point x="345.943" y="799.313"/>
      <point x="347.208" y="794.238"/>
      <point x="348.04" y="790.98" type="curve" smooth="yes"/>
      <point x="349.375" y="785.754"/>
      <point x="349.373" y="783.089"/>
      <point x="349.373" y="778.913" type="curve" smooth="yes"/>
      <point x="349.373" y="776.896"/>
      <point x="349.291" y="775.127"/>
      <point x="349.188" y="773.69" type="curve" smooth="yes"/>
      <point x="361.451" y="690.374"/>
      <point x="376.287" y="609.631"/>
      <point x="390.607" y="528.371" type="curve" smooth="yes"/>
      <point x="390.663" y="528.056"/>
      <point x="390.713" y="527.739"/>
      <point x="390.757" y="527.422" type="curve" smooth="yes"/>
      <point x="411.757" y="374.422" type="line" smooth="yes"/>
      <point x="411.863" y="373.642"/>
      <point x="411.934" y="372.856"/>
      <point x="411.968" y="372.07" type="curve" smooth="yes"/>
      <point x="417.943" y="231.633" type="line"/>
      <point x="421.534" y="190.395"/>
      <point x="421.772" y="148.89"/>
      <point x="426.556" y="109.092" type="curve" smooth="yes"/>
      <point x="432.992" y="87.082"/>
      <point x="439.024" y="65.1172"/>
      <point x="444.11" y="41.7568" type="curve" smooth="yes"/>
      <point x="449.829" y="25.0557"/>
      <point x="453.246" y="13.5059"/>
      <point x="455.129" y="4.93359" type="curve" smooth="yes"/>
      <point x="456.113" y="0.452148"/>
      <point x="456.817" y="-3.19238"/>
      <point x="456.817" y="-8.28613" type="curve" smooth="yes"/>
      <point x="456.817" y="-9.91211"/>
      <point x="456.689" y="-11.8613"/>
      <point x="456.083" y="-14.5557" type="curve" smooth="yes"/>
      <point x="455.462" y="-17.3135"/>
      <point x="454.362" y="-22.0859"/>
      <point x="449.071" y="-27.377" type="curve" smooth="yes"/>
      <point x="444.59" y="-31.8594"/>
      <point x="437.428" y="-34.8496"/>
      <point x="430.854" y="-34.8496" type="curve" smooth="yes"/>
      <point x="415.481" y="-34.8496"/>
      <point x="408.491" y="-23.5635"/>
      <point x="403.957" y="-15.0293" type="curve" smooth="yes"/>
      <point x="401.439" y="-10.29"/>
      <point x="398.978" y="-4.76953"/>
      <point x="396.506" y="1.59277" type="curve" smooth="yes"/>
      <point x="391.341" y="14.8896"/>
      <point x="386.202" y="31.6582"/>
      <point x="383.684" y="49.1826" type="curve"/>
      <point x="366.46" y="89.6553"/>
      <point x="367.613" y="127.068"/>
      <point x="357.261" y="167.923" type="curve"/>
      <point x="338.46" y="212.622"/>
      <point x="329.033" y="266.443"/>
      <point x="305.766" y="303.789" type="curve" smooth="yes"/>
      <point x="305.286" y="304.559"/>
      <point x="304.853" y="305.348"/>
      <point x="304.465" y="306.154" type="curve" smooth="yes"/>
      <point x="285.357" y="345.883"/>
      <point x="248.061" y="369.268"/>
      <point x="205.618" y="386.659" type="curve"/>
      <point x="209.672" y="353.839"/>
      <point x="214.379" y="321.096"/>
      <point x="218.589" y="287.806" type="curve" smooth="yes"/>
      <point x="222.192" y="259.318"/>
      <point x="226.296" y="228.47"/>
      <point x="226.296" y="197.38" type="curve" smooth="yes"/>
      <point x="226.296" y="182.382"/>
      <point x="225.341" y="167.328"/>
      <point x="222.914" y="152.456" type="curve"/>
      <point x="220.704" y="96.4482"/>
      <point x="202.246" y="34.9414"/>
      <point x="159.041" y="-8.2627" type="curve" smooth="yes"/>
      <point x="153.458" y="-13.8467"/>
      <point x="147.472" y="-19.0947"/>
      <point x="141.076" y="-23.9414" type="curve" smooth="yes"/>
      <point x="136.632" y="-27.3105"/>
      <point x="131.313" y="-28.9951"/>
      <point x="125.995" y="-28.9951" type="curve" smooth="yes"/>
      <point x="119.995" y="-28.9951" type="line" smooth="yes"/>
      <point x="113.596" y="-28.9951"/>
      <point x="107.195" y="-26.5557"/>
      <point x="102.317" y="-21.6777" type="curve" smooth="yes"/>
      <point x="97.4395" y="-16.7998"/>
      <point x="95" y="-10.3994"/>
      <point x="95" y="-4" type="curve" smooth="yes"/>
      <point x="95" y="8.57715"/>
      <point x="105.036" y="19.3467"/>
      <point x="116.925" y="20.8076" type="curve"/>
      <point x="152.162" y="51.2188"/>
      <point x="171.3" y="104.951"/>
      <point x="173.015" y="155.848" type="curve" smooth="yes"/>
      <point x="173.053" y="156.983"/>
      <point x="173.168" y="158.116"/>
      <point x="173.359" y="159.238" type="curve" smooth="yes"/>
      <point x="175.346" y="170.856"/>
      <point x="176.153" y="183.3"/>
      <point x="176.153" y="196.273" type="curve" smooth="yes"/>
      <point x="176.153" y="227.64"/>
      <point x="171.139" y="263.758"/>
      <point x="167.188" y="295.932" type="curve" smooth="yes"/>
      <point x="162.734" y="332.195"/>
      <point x="157.074" y="367.709"/>
      <point x="153.234" y="404.514" type="curve"/>
      <point x="142.042" y="407.812"/>
      <point x="128.861" y="412.005"/>
      <point x="119.995" y="412.005" type="curve" smooth="yes"/>
      <point x="113.548" y="412.005"/>
      <point x="110.455" y="413.758"/>
      <point x="108.596" y="414.673" type="curve" smooth="yes"/>
      <point x="103.713" y="417.075"/>
      <point x="101.176" y="419.731"/>
      <point x="98.2393" y="422.783" type="curve"/>
      <point x="70.8594" y="427.347" type="line" smooth="yes"/>
      <point x="59.5293" y="429.235"/>
      <point x="50" y="439.748"/>
      <point x="50" y="452" type="curve" smooth="yes"/>
      <point x="50" y="458.399"/>
      <point x="52.4395" y="464.8"/>
      <point x="57.3174" y="469.678" type="curve" smooth="yes"/>
      <point x="62.1953" y="474.556"/>
      <point x="68.5957" y="476.995"/>
      <point x="74.9951" y="476.995" type="curve" smooth="yes"/>
      <point x="76.3789" y="476.995"/>
      <point x="77.7627" y="476.881"/>
      <point x="79.1309" y="476.653" type="curve" smooth="yes"/>
      <point x="115.131" y="470.653" type="line" smooth="yes"/>
      <point x="121.296" y="469.625"/>
      <point x="126.664" y="466.082"/>
      <point x="130.723" y="461.417" type="curve"/>
      <point x="137.524" y="460.686"/>
      <point x="143.692" y="459.337"/>
    </contour>
    <contour>
      <point x="198.99" y="479" type="curve" smooth="yes"/>
      <point x="198.99" y="466.63"/>
      <point x="199.434" y="454.401"/>
      <point x="200.206" y="442.227" type="curve"/>
      <point x="240.388" y="428.477"/>
      <point x="282.327" y="408.834"/>
      <point x="314.896" y="376.265" type="curve" smooth="yes"/>
      <point x="328.335" y="362.825"/>
      <point x="340.042" y="347.176"/>
      <point x="348.93" y="329.07" type="curve" smooth="yes"/>
      <point x="355.267" y="318.752"/>
      <point x="360.536" y="308.146"/>
      <point x="365.107" y="297.442" type="curve"/>
      <point x="362.073" y="368.748" type="line"/>
      <point x="341.299" y="520.102" type="line" smooth="yes"/>
      <point x="331.123" y="594.237"/>
      <point x="314.682" y="666.552"/>
      <point x="303.546" y="741.95" type="curve"/>
      <point x="301.213" y="739.389"/>
      <point x="299.247" y="737.164"/>
      <point x="297.893" y="735.63" type="curve" smooth="yes"/>
      <point x="238.346" y="668.163"/>
      <point x="198.783" y="578.698"/>
      <point x="198.783" y="490.47" type="curve" smooth="yes"/>
      <point x="198.783" y="486.643"/>
      <point x="198.99" y="482.821"/>
    </contour>
  </outline>
</glyph>
<glyph name="B" format="2">
  <advance width="542"/>
  <unicode hex="0042"/>
  <outline>
    <contour>
      <point x="274.995" y="739.426" type="curve" smooth="yes"/>
      <point x="273.316" y="739.426"/>
      <point x="271.68" y="739.005"/>
      <point x="269.995" y="739.005" type="curve" smooth="yes"/>
      <point x="251.03" y="739.005"/>
      <point x="229.46" y="745.617"/>
      <point x="212.141" y="748.302" type="curve" smooth="yes"/>
      <point x="209.879" y="748.652"/>
      <point x="207.64" y="748.825"/>
      <point x="205.427" y="748.825" type="curve" smooth="yes"/>
      <point x="176.683" y="748.825"/>
      <point x="154.211" y="718.443"/>
      <point x="147.875" y="694.486" type="curve" smooth="yes"/>
      <point x="147.145" y="683.851"/>
      <point x="143.383" y="674.148"/>
      <point x="141.351" y="665.346" type="curve" smooth="yes"/>
      <point x="126.497" y="605.93" type="line"/>
      <point x="108.902" y="497.43" type="line"/>
      <point x="100.045" y="293.71" type="line"/>
      <point x="111.647" y="177.68" type="line"/>
      <point x="127.416" y="121.487"/>
      <point x="143.466" y="67.5801"/>
      <point x="164.287" y="14.0908" type="curve" smooth="yes"/>
      <point x="165.423" y="11.1748"/>
      <point x="165.99" y="8.08691"/>
      <point x="165.99" y="5" type="curve" smooth="yes"/>
      <point x="165.99" y="-1.39941"/>
      <point x="163.551" y="-7.7998"/>
      <point x="158.673" y="-12.6777" type="curve" smooth="yes"/>
      <point x="153.795" y="-17.5557"/>
      <point x="147.395" y="-19.9951"/>
      <point x="140.995" y="-19.9951" type="curve" smooth="yes"/>
      <point x="130.583" y="-19.9951"/>
      <point x="121.136" y="-12.9092"/>
      <point x="117.703" y="-4.09082" type="curve" smooth="yes"/>
      <point x="95.6445" y="52.5752"/>
      <point x="79.0117" y="108.835"/>
      <point x="62.9297" y="166.225" type="curve" smooth="yes"/>
      <point x="62.5371" y="167.626"/>
      <point x="62.2686" y="169.056"/>
      <point x="62.125" y="170.495" type="curve" smooth="yes"/>
      <point x="50.125" y="290.495" type="line" smooth="yes"/>
      <point x="50.042" y="291.328"/>
      <point x="50" y="292.164"/>
      <point x="50" y="293" type="curve" smooth="yes"/>
      <point x="50" y="293.364"/>
      <point x="50.0078" y="293.729"/>
      <point x="50.0234" y="294.094" type="curve" smooth="yes"/>
      <point x="59.0234" y="501.094" type="line" smooth="yes"/>
      <point x="59.0664" y="502.075"/>
      <point x="59.167" y="503.055"/>
      <point x="59.3242" y="504.027" type="curve" smooth="yes"/>
      <point x="77.3242" y="615.027" type="line" smooth="yes"/>
      <point x="77.4365" y="615.721"/>
      <point x="77.5781" y="616.41"/>
      <point x="77.749" y="617.094" type="curve" smooth="yes"/>
      <point x="83.251" y="639.103"/>
      <point x="88.4873" y="661.272"/>
      <point x="94.3125" y="683.149" type="curve" smooth="yes"/>
      <point x="95.8135" y="688.783"/>
      <point x="97.7686" y="697.266"/>
      <point x="98.0107" y="698.741" type="curve" smooth="yes"/>
      <point x="98.0596" y="700.379"/>
      <point x="98.2676" y="702.014"/>
      <point x="98.6357" y="703.618" type="curve" smooth="yes"/>
      <point x="103.927" y="726.69"/>
      <point x="116.109" y="749.407"/>
      <point x="134.127" y="767.425" type="curve" smooth="yes"/>
      <point x="151.927" y="785.225"/>
      <point x="176.722" y="798.811"/>
      <point x="205.526" y="798.811" type="curve" smooth="yes"/>
      <point x="225.179" y="798.811"/>
      <point x="252.534" y="790.276"/>
      <point x="268.634" y="789.057" type="curve" smooth="yes"/>
      <point x="271.036" y="789.349"/>
      <point x="273.372" y="789.483"/>
      <point x="275.64" y="789.483" type="curve" smooth="yes"/>
      <point x="294.201" y="789.483"/>
      <point x="308.23" y="780.503"/>
      <point x="316.985" y="775.56" type="curve" smooth="yes"/>
      <point x="325.114" y="770.968"/>
      <point x="330.813" y="768.255"/>
      <point x="334.47" y="767.594" type="curve" smooth="yes"/>
      <point x="371.192" y="760.955"/>
      <point x="402.772" y="743.363"/>
      <point x="427.19" y="718.944" type="curve" smooth="yes"/>
      <point x="463.621" y="682.515"/>
      <point x="483.99" y="631.474"/>
      <point x="483.99" y="578" type="curve" smooth="yes"/>
      <point x="483.99" y="575.752"/>
      <point x="483.689" y="573.504"/>
      <point x="483.087" y="571.321" type="curve" smooth="yes"/>
      <point x="474.671" y="540.814"/>
      <point x="457.119" y="513.789"/>
      <point x="434.737" y="491.407" type="curve" smooth="yes"/>
      <point x="399.576" y="456.246"/>
      <point x="351.498" y="431.242"/>
      <point x="302.42" y="424.903" type="curve"/>
      <point x="338.378" y="402.225"/>
      <point x="386.321" y="372.759"/>
      <point x="426.341" y="332.738" type="curve" smooth="yes"/>
      <point x="462.517" y="296.562"/>
      <point x="492.99" y="250.505"/>
      <point x="492.99" y="194" type="curve" smooth="yes"/>
      <point x="492.99" y="136.438"/>
      <point x="476.379" y="88.8779"/>
      <point x="443.403" y="55.9023" type="curve" smooth="yes"/>
      <point x="410.073" y="22.5723"/>
      <point x="362.972" y="7.00488"/>
      <point x="308.995" y="7.00488" type="curve" smooth="yes"/>
      <point x="264.699" y="7.00488"/>
      <point x="235.761" y="32.6348"/>
      <point x="204.112" y="44.6279" type="curve" smooth="yes"/>
      <point x="197.551" y="47.1143"/>
      <point x="191.949" y="52.7686"/>
      <point x="189.529" y="59.3691" type="curve" smooth="yes"/>
      <point x="156.529" y="149.369" type="line" smooth="yes"/>
      <point x="155.637" y="151.803"/>
      <point x="155.135" y="154.348"/>
      <point x="155.023" y="156.906" type="curve" smooth="yes"/>
      <point x="152.023" y="225.906" type="line" smooth="yes"/>
      <point x="152.008" y="226.271"/>
      <point x="152" y="226.636"/>
      <point x="152" y="227" type="curve" smooth="yes"/>
      <point x="152" y="233.399"/>
      <point x="154.439" y="239.8"/>
      <point x="159.317" y="244.678" type="curve" smooth="yes"/>
      <point x="164.195" y="249.556"/>
      <point x="170.596" y="251.995"/>
      <point x="176.995" y="251.995" type="curve" smooth="yes"/>
      <point x="183.395" y="251.995"/>
      <point x="189.795" y="249.556"/>
      <point x="194.673" y="244.678" type="curve" smooth="yes"/>
      <point x="199.273" y="240.077"/>
      <point x="201.704" y="234.124"/>
      <point x="201.967" y="228.094" type="curve" smooth="yes"/>
      <point x="204.797" y="162.987" type="line"/>
      <point x="232.709" y="86.8652" type="line"/>
      <point x="240.216" y="83.4863"/>
      <point x="247.332" y="79.8047"/>
      <point x="254.209" y="76.2783" type="curve" smooth="yes"/>
      <point x="275.631" y="65.2959"/>
      <point x="293.875" y="56.9951"/>
      <point x="308.995" y="56.9951" type="curve" smooth="yes"/>
      <point x="353.625" y="56.9951"/>
      <point x="386.361" y="69.5713"/>
      <point x="408.048" y="91.2578" type="curve" smooth="yes"/>
      <point x="429.479" y="112.689"/>
      <point x="443" y="145.819"/>
      <point x="443" y="194" type="curve" smooth="yes"/>
      <point x="443" y="231.266"/>
      <point x="422.586" y="265.783"/>
      <point x="390.986" y="297.383" type="curve" smooth="yes"/>
      <point x="357.254" y="331.115"/>
      <point x="312.603" y="359.44"/>
      <point x="277.838" y="381.285" type="curve" smooth="yes"/>
      <point x="256.594" y="394.634"/>
      <point x="239.522" y="404.609"/>
      <point x="227.442" y="416.689" type="curve" smooth="yes"/>
      <point x="222.714" y="421.418"/>
      <point x="217.538" y="427.84"/>
      <point x="215.681" y="436.516" type="curve"/>
      <point x="209.662" y="441.285"/>
      <point x="203.835" y="448.78"/>
      <point x="203.835" y="459.897" type="curve" smooth="yes"/>
      <point x="203.835" y="477.035"/>
      <point x="217.241" y="485.664"/>
      <point x="226.383" y="490.106" type="curve" smooth="yes"/>
      <point x="230.878" y="492.292"/>
      <point x="234.263" y="493.437"/>
      <point x="234.849" y="493.638" type="curve" smooth="yes"/>
      <point x="237.483" y="494.543"/>
      <point x="240.239" y="494.995"/>
      <point x="242.995" y="494.995" type="curve" smooth="yes"/>
      <point x="255.359" y="494.995"/>
      <point x="265.964" y="485.29"/>
      <point x="267.707" y="473.763" type="curve"/>
      <point x="270.912" y="473.494"/>
      <point x="274.168" y="473.361"/>
      <point x="277.465" y="473.361" type="curve" smooth="yes"/>
      <point x="318.918" y="473.361"/>
      <point x="366.854" y="494.234"/>
      <point x="399.382" y="526.763" type="curve" smooth="yes"/>
      <point x="415.804" y="543.186"/>
      <point x="427.93" y="562.108"/>
      <point x="433.962" y="581.474" type="curve"/>
      <point x="432.459" y="649.454"/>
      <point x="388.321" y="707.052"/>
      <point x="325.521" y="718.406" type="curve" smooth="yes"/>
      <point x="310.916" y="721.046"/>
      <point x="300.294" y="727.552"/>
      <point x="292.4" y="732.01" type="curve" smooth="yes"/>
      <point x="281.741" y="738.029"/>
      <point x="277.245" y="739.426"/>
    </contour>
  </outline>
</glyph>
<glyph name="C" format="2">
  <advance width="485"/>
  <unicode hex="0043"/>
  <outline>
    <contour>
      <point x="417.99" y="686" type="curve" smooth="yes"/>
      <point x="417.99" y="679.601"/>
      <point x="415.551" y="673.2"/>
      <point x="410.673" y="668.322" type="curve" smooth="yes"/>
      <point x="405.795" y="663.444"/>
      <point x="399.395" y="661.005"/>
      <point x="392.995" y="661.005" type="curve" smooth="yes"/>
      <point x="380.405" y="661.005"/>
      <point x="369.626" y="671.062"/>
      <point x="368.183" y="682.973" type="curve" smooth="yes"/>
      <point x="366.07" y="700.406"/>
      <point x="359.466" y="717.592"/>
      <point x="352.105" y="724.952" type="curve" smooth="yes"/>
      <point x="349.429" y="727.629"/>
      <point x="346.867" y="729.156"/>
      <point x="343.932" y="730.018" type="curve" smooth="yes"/>
      <point x="325.059" y="735.551"/>
      <point x="311.234" y="747.072"/>
      <point x="295.672" y="753.227" type="curve" smooth="yes"/>
      <point x="291.958" y="754.695"/>
      <point x="289.587" y="755.005"/>
      <point x="288.995" y="755.005" type="curve" smooth="yes"/>
      <point x="251.071" y="755.005"/>
      <point x="228.616" y="743.752"/>
      <point x="211.522" y="726.658" type="curve" smooth="yes"/>
      <point x="187.242" y="702.378"/>
      <point x="172.742" y="661.31"/>
      <point x="158.068" y="616.209" type="curve" smooth="yes"/>
      <point x="146.604" y="580.972"/>
      <point x="135.055" y="543.649"/>
      <point x="113.148" y="512.632" type="curve"/>
      <point x="100.027" y="387.042" type="line"/>
      <point x="103.939" y="248.142" type="line"/>
      <point x="111.594" y="194.567" type="line"/>
      <point x="115.334" y="178.041"/>
      <point x="118.582" y="163.67"/>
      <point x="124.96" y="151.95" type="curve" smooth="yes"/>
      <point x="130.065" y="142.567"/>
      <point x="134.277" y="131.569"/>
      <point x="139.156" y="119.274" type="curve" smooth="yes"/>
      <point x="148.381" y="96.0273"/>
      <point x="160.62" y="63.9385"/>
      <point x="176.005" y="48.5547" type="curve" smooth="yes"/>
      <point x="181.224" y="43.335"/>
      <point x="184.023" y="42.9951"/>
      <point x="184.995" y="42.9951" type="curve" smooth="yes"/>
      <point x="198.995" y="42.9951" type="line" smooth="yes"/>
      <point x="202.346" y="42.9951"/>
      <point x="205.696" y="42.3262"/>
      <point x="208.829" y="40.9893" type="curve" smooth="yes"/>
      <point x="235.647" y="29.54"/>
      <point x="264.153" y="22.9121"/>
      <point x="294.706" y="22.9121" type="curve" smooth="yes"/>
      <point x="310.644" y="22.9121"/>
      <point x="322.897" y="25.4277"/>
      <point x="331.333" y="29.3643" type="curve" smooth="yes"/>
      <point x="340.935" y="33.8447"/>
      <point x="349.814" y="41.2705"/>
      <point x="362.705" y="52.5791" type="curve" smooth="yes"/>
      <point x="364.968" y="54.5654"/>
      <point x="367.343" y="56.6494"/>
      <point x="369.847" y="58.8135" type="curve"/>
      <point x="384.151" y="96.959" type="line"/>
      <point x="386.014" y="152.839" type="line" smooth="yes"/>
      <point x="386.218" y="158.956"/>
      <point x="388.652" y="165.013"/>
      <point x="393.317" y="169.678" type="curve" smooth="yes"/>
      <point x="398.195" y="174.556"/>
      <point x="404.596" y="176.995"/>
      <point x="410.995" y="176.995" type="curve" smooth="yes"/>
      <point x="417.395" y="176.995"/>
      <point x="423.795" y="174.556"/>
      <point x="428.673" y="169.678" type="curve" smooth="yes"/>
      <point x="433.551" y="164.8"/>
      <point x="435.99" y="158.399"/>
      <point x="435.99" y="152" type="curve" smooth="yes"/>
      <point x="435.99" y="151.721"/>
      <point x="435.985" y="151.44"/>
      <point x="435.977" y="151.161" type="curve" smooth="yes"/>
      <point x="433.977" y="91.1611" type="line" smooth="yes"/>
      <point x="433.886" y="88.4561"/>
      <point x="433.36" y="85.7637"/>
      <point x="432.397" y="83.1982" type="curve" smooth="yes"/>
      <point x="414.397" y="35.1982" type="line" smooth="yes"/>
      <point x="412.945" y="31.3242"/>
      <point x="410.332" y="27.6035"/>
      <point x="407.098" y="24.875" type="curve" smooth="yes"/>
      <point x="389.739" y="10.2314"/>
      <point x="375.572" y="-5.17773"/>
      <point x="352.502" y="-15.9434" type="curve" smooth="yes"/>
      <point x="336.518" y="-23.4033"/>
      <point x="317.859" y="-27.0771"/>
      <point x="294.78" y="-27.0771" type="curve" smooth="yes"/>
      <point x="258.699" y="-27.0771"/>
      <point x="224.895" y="-19.5479"/>
      <point x="193.979" y="-6.99512" type="curve"/>
      <point x="184.995" y="-6.99512" type="line" smooth="yes"/>
      <point x="166.2" y="-6.99512"/>
      <point x="151.322" y="2.52539"/>
      <point x="140.649" y="13.1992" type="curve" smooth="yes"/>
      <point x="118.583" y="35.2656"/>
      <point x="104.423" y="71.2256"/>
      <point x="92.6904" y="100.79" type="curve" smooth="yes"/>
      <point x="87.873" y="112.93"/>
      <point x="83.582" y="123.361"/>
      <point x="81.0303" y="128.05" type="curve" smooth="yes"/>
      <point x="69.9824" y="148.354"/>
      <point x="66.6992" y="166.503"/>
      <point x="62.625" y="184.429" type="curve" smooth="yes"/>
      <point x="62.4727" y="185.096"/>
      <point x="62.3496" y="185.767"/>
      <point x="62.2529" y="186.441" type="curve" smooth="yes"/>
      <point x="54.2529" y="242.441" type="line" smooth="yes"/>
      <point x="54.1182" y="243.387"/>
      <point x="54.0371" y="244.338"/>
      <point x="54.0098" y="245.291" type="curve" smooth="yes"/>
      <point x="50.0098" y="387.291" type="line" smooth="yes"/>
      <point x="50.0029" y="387.527"/>
      <point x="50" y="387.764"/>
      <point x="50" y="388" type="curve" smooth="yes"/>
      <point x="50" y="388.873"/>
      <point x="50.0459" y="389.746"/>
      <point x="50.1367" y="390.616" type="curve" smooth="yes"/>
      <point x="64.1367" y="524.616" type="line" smooth="yes"/>
      <point x="64.6055" y="529.108"/>
      <point x="66.2871" y="533.497"/>
      <point x="69.1816" y="537.25" type="curve" smooth="yes"/>
      <point x="86.373" y="559.538"/>
      <point x="98.249" y="593.972"/>
      <point x="110.536" y="631.734" type="curve" smooth="yes"/>
      <point x="124.972" y="676.104"/>
      <point x="140.028" y="725.876"/>
      <point x="176.167" y="762.014" type="curve" smooth="yes"/>
      <point x="202.649" y="788.496"/>
      <point x="239.823" y="804.995"/>
      <point x="288.995" y="804.995" type="curve" smooth="yes"/>
      <point x="309.266" y="804.995"/>
      <point x="324.985" y="794.992"/>
      <point x="337.717" y="787.881" type="curve" smooth="yes"/>
      <point x="346.378" y="783.044"/>
      <point x="353.855" y="779.215"/>
      <point x="358.059" y="777.982" type="curve" smooth="yes"/>
      <point x="369.796" y="774.541"/>
      <point x="379.674" y="768.095"/>
      <point x="387.461" y="760.307" type="curve" smooth="yes"/>
      <point x="407.728" y="740.041"/>
      <point x="414.996" y="712.238"/>
      <point x="417.808" y="689.027" type="curve" smooth="yes"/>
      <point x="417.93" y="688.022"/>
      <point x="417.99" y="687.011"/>
    </contour>
  </outline>
</glyph>
<glyph name="D" format="2">
  <advance width="503"/>
  <unicode hex="0044"/>
  <outline>
    <contour>
      <point x="190.645" y="103.125" type="curve"/>
      <point x="210.801" y="101.686"/>
      <point x="236.333" y="98.9951"/>
      <point x="254.995" y="98.9951" type="curve" smooth="yes"/>
      <point x="278.442" y="98.9951"/>
      <point x="295.097" y="107.369"/>
      <point x="310.275" y="122.548" type="curve" smooth="yes"/>
      <point x="336.169" y="148.442"/>
      <point x="354.988" y="196.254"/>
      <point x="372.669" y="244.226" type="curve" smooth="yes"/>
      <point x="378.644" y="260.438"/>
      <point x="384.568" y="276.554"/>
      <point x="391.015" y="291.803" type="curve"/>
      <point x="402.874" y="423.412" type="line"/>
      <point x="322.459" y="658.91" type="line" smooth="yes"/>
      <point x="305.195" y="709.471"/>
      <point x="252.115" y="737.005"/>
      <point x="188.995" y="737.005" type="curve" smooth="yes"/>
      <point x="154.797" y="737.005"/>
      <point x="133.524" y="727.725"/>
      <point x="120.06" y="714.26" type="curve" smooth="yes"/>
      <point x="110.227" y="704.427"/>
      <point x="103.174" y="690.931"/>
      <point x="99.4756" y="672.938" type="curve" smooth="yes"/>
      <point x="97.2461" y="662.091"/>
      <point x="86.9424" y="653.005"/>
      <point x="74.9951" y="653.005" type="curve" smooth="yes"/>
      <point x="68.5957" y="653.005"/>
      <point x="62.1953" y="655.444"/>
      <point x="57.3174" y="660.322" type="curve" smooth="yes"/>
      <point x="52.4395" y="665.2"/>
      <point x="50" y="671.601"/>
      <point x="50" y="678" type="curve" smooth="yes"/>
      <point x="50" y="679.696"/>
      <point x="50.1719" y="681.394"/>
      <point x="50.5146" y="683.062" type="curve" smooth="yes"/>
      <point x="55.7627" y="708.595"/>
      <point x="66.75" y="731.661"/>
      <point x="84.7041" y="749.615" type="curve" smooth="yes"/>
      <point x="109.717" y="774.628"/>
      <point x="145.609" y="786.995"/>
      <point x="188.995" y="786.995" type="curve" smooth="yes"/>
      <point x="242.193" y="786.995"/>
      <point x="295.958" y="770.972"/>
      <point x="333.485" y="733.443" type="curve" smooth="yes"/>
      <point x="349.349" y="717.58"/>
      <point x="361.94" y="698.032"/>
      <point x="369.764" y="675.121" type="curve" smooth="yes"/>
      <point x="451.899" y="434.582" type="line" smooth="yes"/>
      <point x="452.795" y="431.96"/>
      <point x="453.242" y="429.219"/>
      <point x="453.242" y="426.477" type="curve" smooth="yes"/>
      <point x="453.242" y="425.723"/>
      <point x="453.208" y="424.969"/>
      <point x="453.141" y="424.217" type="curve" smooth="yes"/>
      <point x="440.445" y="283.33" type="line" smooth="yes"/>
      <point x="440.208" y="280.702"/>
      <point x="439.558" y="278.104"/>
      <point x="438.492" y="275.644" type="curve" smooth="yes"/>
      <point x="432.201" y="261.106"/>
      <point x="426.033" y="244.417"/>
      <point x="419.572" y="226.886" type="curve" smooth="yes"/>
      <point x="402.062" y="179.378"/>
      <point x="383.093" y="124.655"/>
      <point x="345.631" y="87.1934" type="curve" smooth="yes"/>
      <point x="322.94" y="64.502"/>
      <point x="292.59" y="49.0049"/>
      <point x="254.995" y="49.0049" type="curve" smooth="yes"/>
      <point x="231.85" y="49.0049"/>
      <point x="207.701" y="51.874"/>
      <point x="185.13" y="53.3252" type="curve"/>
      <point x="180.53" y="29.4238"/>
      <point x="172.83" y="6.53223"/>
      <point x="160.638" y="-14.5244" type="curve" smooth="yes"/>
      <point x="156.506" y="-21.6592"/>
      <point x="147.898" y="-26.9951"/>
      <point x="138.995" y="-26.9951" type="curve" smooth="yes"/>
      <point x="136.195" y="-26.9951"/>
      <point x="133.396" y="-26.5283"/>
      <point x="130.723" y="-25.5947" type="curve" smooth="yes"/>
      <point x="119.318" y="-21.6094"/>
      <point x="105.966" y="-19.9072"/>
      <point x="93.2344" y="-14.9199" type="curve" smooth="yes"/>
      <point x="86.6182" y="-12.3281"/>
      <point x="79.29" y="-8.79004"/>
      <point x="72.5039" y="-2.00391" type="curve" smooth="yes"/>
      <point x="64.9355" y="5.56445"/>
      <point x="59.96" y="16.874"/>
      <point x="59.96" y="28.8174" type="curve" smooth="yes"/>
      <point x="59.96" y="29.9844"/>
      <point x="60.0039" y="31.2178"/>
      <point x="60.1094" y="32.3447" type="curve" smooth="yes"/>
      <point x="61.8604" y="51.0605"/>
      <point x="68.8389" y="67.5225"/>
      <point x="80.8535" y="79.5371" type="curve" smooth="yes"/>
      <point x="97.666" y="96.3496"/>
      <point x="118.688" y="101.524"/>
      <point x="140.622" y="103.501" type="curve"/>
      <point x="140.901" y="109.523"/>
      <point x="141.033" y="115.712"/>
      <point x="141.033" y="121.979" type="curve" smooth="yes"/>
      <point x="141.033" y="209.862"/>
      <point x="115.969" y="313.192"/>
      <point x="115.969" y="402.655" type="curve" smooth="yes"/>
      <point x="115.969" y="404.489"/>
      <point x="115.979" y="406.319"/>
      <point x="116" y="408.146" type="curve" smooth="yes"/>
      <point x="116" y="676" type="line" smooth="yes"/>
      <point x="116" y="682.399"/>
      <point x="118.439" y="688.8"/>
      <point x="123.317" y="693.678" type="curve" smooth="yes"/>
      <point x="128.195" y="698.556"/>
      <point x="134.596" y="700.995"/>
      <point x="140.995" y="700.995" type="curve" smooth="yes"/>
      <point x="147.395" y="700.995"/>
      <point x="153.795" y="698.556"/>
      <point x="158.673" y="693.678" type="curve" smooth="yes"/>
      <point x="163.551" y="688.8"/>
      <point x="165.99" y="682.399"/>
      <point x="165.99" y="676" type="curve" smooth="yes"/>
      <point x="165.99" y="407.703" type="line" smooth="yes"/>
      <point x="165.972" y="406.097"/>
      <point x="165.96" y="404.48"/>
      <point x="165.96" y="402.857" type="curve" smooth="yes"/>
      <point x="165.96" y="315.554"/>
      <point x="191.035" y="212.34"/>
      <point x="191.035" y="122.556" type="curve" smooth="yes"/>
      <point x="191.035" y="116.044"/>
      <point x="190.91" y="109.526"/>
    </contour>
    <contour>
      <point x="125.687" y="27.5098" type="curve"/>
      <point x="128.872" y="35.2402"/>
      <point x="131.506" y="43.4258"/>
      <point x="133.638" y="52.0381" type="curve"/>
      <point x="124.729" y="50.1133"/>
      <point x="119.166" y="47.1387"/>
      <point x="116.209" y="44.1816" type="curve" smooth="yes"/>
      <point x="113.904" y="41.877"/>
      <point x="111.679" y="38.6348"/>
      <point x="110.477" y="32.0684" type="curve"/>
      <point x="114.849" y="30.1484"/>
      <point x="119.377" y="29.0723"/>
    </contour>
  </outline>
</glyph>
<glyph name="E" format="2">
  <advance width="472"/>
  <unicode hex="0045"/>
  <outline>
    <contour>
      <point x="53.6855" y="578.262" type="curve" smooth="yes"/>
      <point x="53.6855" y="584.251"/>
      <point x="52.9297" y="589.11"/>
      <point x="52.9297" y="594.541" type="curve" smooth="yes"/>
      <point x="52.9297" y="643.34"/>
      <point x="73.0996" y="690.069"/>
      <point x="100.823" y="727.525" type="curve" smooth="yes"/>
      <point x="106.455" y="737.63"/>
      <point x="113.461" y="746.747"/>
      <point x="121.508" y="754.793" type="curve" smooth="yes"/>
      <point x="143.679" y="776.964"/>
      <point x="173.255" y="790.765"/>
      <point x="204.731" y="794.792" type="curve" smooth="yes"/>
      <point x="205.792" y="794.928"/>
      <point x="206.858" y="794.995"/>
      <point x="207.926" y="794.995" type="curve" smooth="yes"/>
      <point x="239.727" y="794.995"/>
      <point x="269.867" y="789.461"/>
      <point x="300.312" y="788.992" type="curve" smooth="yes"/>
      <point x="320.539" y="788.682"/>
      <point x="335.122" y="779.224"/>
      <point x="345.54" y="773.388" type="curve" smooth="yes"/>
      <point x="355.456" y="767.832"/>
      <point x="362.338" y="765.061"/>
      <point x="364.189" y="764.894" type="curve" smooth="yes"/>
      <point x="376.463" y="763.785"/>
      <point x="386.921" y="752.852"/>
      <point x="386.921" y="740" type="curve" smooth="yes"/>
      <point x="386.921" y="733.601"/>
      <point x="384.481" y="727.2"/>
      <point x="379.604" y="722.322" type="curve" smooth="yes"/>
      <point x="374.725" y="717.444"/>
      <point x="368.325" y="715.005"/>
      <point x="361.926" y="715.005" type="curve" smooth="yes"/>
      <point x="361.17" y="715.005"/>
      <point x="360.414" y="715.039"/>
      <point x="359.661" y="715.106" type="curve" smooth="yes"/>
      <point x="342.558" y="716.651"/>
      <point x="330.492" y="724.494"/>
      <point x="321.104" y="729.754" type="curve" smooth="yes"/>
      <point x="309.877" y="736.044"/>
      <point x="302.366" y="738.965"/>
      <point x="299.538" y="739.008" type="curve" smooth="yes"/>
      <point x="268.861" y="739.479"/>
      <point x="238.913" y="744.782"/>
      <point x="209.579" y="744.999" type="curve"/>
      <point x="181.101" y="740.893"/>
      <point x="156.053" y="724.736"/>
      <point x="143.963" y="702.186" type="curve" smooth="yes"/>
      <point x="143.376" y="701.091"/>
      <point x="142.702" y="700.03"/>
      <point x="141.94" y="699.016" type="curve" smooth="yes"/>
      <point x="118.663" y="667.989"/>
      <point x="103.148" y="630.152"/>
      <point x="102.922" y="595.283" type="curve" smooth="yes"/>
      <point x="103.51" y="589.339"/>
      <point x="103.733" y="583.476"/>
      <point x="103.733" y="577.719" type="curve" smooth="yes"/>
      <point x="103.733" y="559.19"/>
      <point x="101.314" y="539.464"/>
      <point x="101.314" y="521.907" type="curve" smooth="yes"/>
      <point x="101.314" y="497.127"/>
      <point x="105.932" y="482.342"/>
      <point x="120.076" y="472.614" type="curve" smooth="yes"/>
      <point x="127.064" y="467.809"/>
      <point x="130.407" y="462.703"/>
      <point x="136.011" y="457.339" type="curve" smooth="yes"/>
      <point x="136.1" y="457.34"/>
      <point x="136.189" y="457.34"/>
      <point x="136.278" y="457.34" type="curve" smooth="yes"/>
      <point x="150.771" y="457.34"/>
      <point x="157.92" y="452.187"/>
      <point x="167.679" y="450.714" type="curve" smooth="yes"/>
      <point x="179.156" y="448.982"/>
      <point x="187.756" y="444.812"/>
      <point x="193.817" y="442.045" type="curve" smooth="yes"/>
      <point x="201.999" y="438.31"/>
      <point x="205.528" y="436.995"/>
      <point x="209.926" y="436.995" type="curve" smooth="yes"/>
      <point x="237.926" y="436.995" type="line" smooth="yes"/>
      <point x="244.325" y="436.995"/>
      <point x="250.725" y="434.556"/>
      <point x="255.604" y="429.678" type="curve" smooth="yes"/>
      <point x="260.481" y="424.8"/>
      <point x="262.921" y="418.399"/>
      <point x="262.921" y="412" type="curve" smooth="yes"/>
      <point x="262.921" y="400.445"/>
      <point x="254.377" y="390.357"/>
      <point x="244.051" y="387.762" type="curve" smooth="yes"/>
      <point x="221.403" y="382.069"/>
      <point x="186.436" y="362.535"/>
      <point x="162.407" y="338.507" type="curve" smooth="yes"/>
      <point x="156.277" y="332.377"/>
      <point x="150.848" y="326.006"/>
      <point x="146.427" y="319.687" type="curve" smooth="yes"/>
      <point x="144.986" y="317.627"/>
      <point x="143.13" y="315.688"/>
      <point x="141.13" y="314.152" type="curve" smooth="yes"/>
      <point x="136.728" y="310.772"/>
      <point x="132.784" y="307.311"/>
      <point x="129.256" y="303.783" type="curve" smooth="yes"/>
      <point x="109.093" y="283.619"/>
      <point x="100.176" y="259.724"/>
      <point x="100.176" y="229.108" type="curve" smooth="yes"/>
      <point x="100.176" y="223.644"/>
      <point x="100.921" y="217.787"/>
      <point x="100.921" y="212" type="curve" smooth="yes"/>
      <point x="100.921" y="202.76"/>
      <point x="100.198" y="192.807"/>
      <point x="100.198" y="184.18" type="curve" smooth="yes"/>
      <point x="100.198" y="161.994"/>
      <point x="102.415" y="143.661"/>
      <point x="111.325" y="128.934" type="curve" smooth="yes"/>
      <point x="112.41" y="127.141"/>
      <point x="113.249" y="125.24"/>
      <point x="113.844" y="123.281" type="curve" smooth="yes"/>
      <point x="119.373" y="105.038"/>
      <point x="129.355" y="89.2793"/>
      <point x="142.588" y="76.0469" type="curve" smooth="yes"/>
      <point x="170.495" y="48.1396"/>
      <point x="213.59" y="31.7422"/>
      <point x="254.39" y="30.9912" type="curve" smooth="yes"/>
      <point x="256.657" y="30.9492"/>
      <point x="258.921" y="30.6006"/>
      <point x="261.111" y="29.9463" type="curve" smooth="yes"/>
      <point x="267.763" y="27.959"/>
      <point x="274.343" y="27.0039"/>
      <point x="280.817" y="27.0039" type="curve" smooth="yes"/>
      <point x="301.952" y="27.0039"/>
      <point x="321.966" y="37.1836"/>
      <point x="339.671" y="54.8887" type="curve" smooth="yes"/>
      <point x="344.002" y="59.2197"/>
      <point x="348.258" y="64.1494"/>
      <point x="352.093" y="69.2236" type="curve" smooth="yes"/>
      <point x="370.632" y="93.3252" type="line"/>
      <point x="373.514" y="99.0898"/>
      <point x="375.834" y="105.264"/>
      <point x="380.248" y="109.678" type="curve" smooth="yes"/>
      <point x="385.126" y="114.556"/>
      <point x="391.526" y="116.995"/>
      <point x="397.926" y="116.995" type="curve" smooth="yes"/>
      <point x="404.325" y="116.995"/>
      <point x="410.725" y="114.556"/>
      <point x="415.604" y="109.678" type="curve" smooth="yes"/>
      <point x="420.481" y="104.8"/>
      <point x="422.921" y="98.3994"/>
      <point x="422.921" y="92" type="curve" smooth="yes"/>
      <point x="422.921" y="88.1611"/>
      <point x="422.043" y="84.3223"/>
      <point x="420.288" y="80.8125" type="curve" smooth="yes"/>
      <point x="417.628" y="75.4912"/>
      <point x="415.29" y="69.3672"/>
      <point x="411.759" y="64.7764" type="curve" smooth="yes"/>
      <point x="399.9" y="49.3604"/>
      <point x="388.706" y="33.2129"/>
      <point x="375.026" y="19.5332" type="curve" smooth="yes"/>
      <point x="350.597" y="-4.89648"/>
      <point x="317.526" y="-22.9531"/>
      <point x="280.452" y="-22.9531" type="curve" smooth="yes"/>
      <point x="270.595" y="-22.9531"/>
      <point x="260.453" y="-21.6768"/>
      <point x="250.117" y="-18.9033" type="curve"/>
      <point x="198.475" y="-17.165"/>
      <point x="145.109" y="2.81445"/>
      <point x="107.232" y="40.6914" type="curve" smooth="yes"/>
      <point x="89.4131" y="58.5107"/>
      <point x="75.1816" y="80.3447"/>
      <point x="66.9248" y="105.795" type="curve"/>
      <point x="52.7842" y="130.675"/>
      <point x="50" y="156.983"/>
      <point x="50" y="181.117" type="curve" smooth="yes"/>
      <point x="50" y="191.79"/>
      <point x="50.5146" y="201.73"/>
      <point x="50.8916" y="211.473" type="curve" smooth="yes"/>
      <point x="50.4668" y="216.994"/>
      <point x="50.248" y="222.48"/>
      <point x="50.248" y="227.921" type="curve" smooth="yes"/>
      <point x="50.248" y="269.397"/>
      <point x="62.959" y="308.196"/>
      <point x="93.9014" y="339.139" type="curve" smooth="yes"/>
      <point x="98.1943" y="343.432"/>
      <point x="102.789" y="347.539"/>
      <point x="107.684" y="351.465" type="curve" smooth="yes"/>
      <point x="121.845" y="370.744"/>
      <point x="140.219" y="387.523"/>
      <point x="159.681" y="401.362" type="curve"/>
      <point x="153.348" y="402.36"/>
      <point x="148.316" y="403.977"/>
      <point x="144.477" y="405.146" type="curve" smooth="yes"/>
      <point x="139.193" y="406.755"/>
      <point x="136.296" y="407.292"/>
      <point x="135.862" y="407.314" type="curve" smooth="yes"/>
      <point x="134.56" y="407.108"/>
      <point x="133.242" y="407.005"/>
      <point x="131.926" y="407.005" type="curve" smooth="yes"/>
      <point x="110.53" y="407.005"/>
      <point x="101.613" y="422.051"/>
      <point x="91.2803" y="431.729" type="curve" smooth="yes"/>
      <point x="86.6084" y="434.982"/>
      <point x="82.334" y="438.549"/>
      <point x="78.4766" y="442.405" type="curve" smooth="yes"/>
      <point x="55.582" y="465.301"/>
      <point x="50.9443" y="493.686"/>
      <point x="50.9443" y="519.33" type="curve" smooth="yes"/>
      <point x="50.9443" y="539.898"/>
      <point x="53.6855" y="559.008"/>
    </contour>
  </outline>
</glyph>
<glyph name="F" format="2">
  <advance width="581"/>
  <unicode hex="0046"/>
  <outline>
    <contour>
      <point x="102.995" y="399.005" type="line" smooth="yes"/>
      <point x="96.5957" y="399.005"/>
      <point x="90.1953" y="401.444"/>
      <point x="85.3174" y="406.322" type="curve" smooth="yes"/>
      <point x="80.4395" y="411.2"/>
      <point x="78" y="417.601"/>
      <point x="78" y="424" type="curve" smooth="yes"/>
      <point x="78" y="430.399"/>
      <point x="80.4395" y="436.8"/>
      <point x="85.3174" y="441.678" type="curve" smooth="yes"/>
      <point x="90.1953" y="446.556"/>
      <point x="96.5957" y="448.995"/>
      <point x="102.995" y="448.995" type="curve" smooth="yes"/>
      <point x="110.995" y="448.995" type="line" smooth="yes"/>
      <point x="149.577" y="448.995"/>
      <point x="182.876" y="435.677"/>
      <point x="216.081" y="428.879" type="curve"/>
      <point x="300.165" y="424.968" type="line" smooth="yes"/>
      <point x="306.169" y="424.688"/>
      <point x="312.092" y="422.259"/>
      <point x="316.673" y="417.678" type="curve" smooth="yes"/>
      <point x="321.551" y="412.8"/>
      <point x="323.99" y="406.399"/>
      <point x="323.99" y="400" type="curve" smooth="yes"/>
      <point x="323.99" y="393.601"/>
      <point x="321.551" y="387.2"/>
      <point x="316.673" y="382.322" type="curve" smooth="yes"/>
      <point x="311.795" y="377.444"/>
      <point x="305.395" y="375.005"/>
      <point x="298.995" y="375.005" type="curve" smooth="yes"/>
      <point x="298.604" y="375.005"/>
      <point x="298.215" y="375.014"/>
      <point x="297.825" y="375.032" type="curve" smooth="yes"/>
      <point x="211.825" y="379.032" type="line" smooth="yes"/>
      <point x="210.58" y="379.09"/>
      <point x="209.338" y="379.24"/>
      <point x="208.11" y="379.483" type="curve" smooth="yes"/>
      <point x="178.498" y="385.348"/>
      <point x="139.484" y="399.005"/>
      <point x="110.995" y="399.005" type="curve" smooth="yes"/>
    </contour>
    <contour>
      <point x="160.773" y="285.872" type="curve" smooth="yes"/>
      <point x="160.773" y="367.614"/>
      <point x="170.221" y="448.164"/>
      <point x="170.221" y="529.056" type="curve" smooth="yes"/>
      <point x="170.221" y="535.555"/>
      <point x="170.159" y="542.046"/>
      <point x="170.025" y="548.53" type="curve" smooth="yes"/>
      <point x="166.867" y="581.975"/>
      <point x="168.591" y="616.857"/>
      <point x="166.683" y="650.589" type="curve"/>
      <point x="140.126" y="661.445"/>
      <point x="122.433" y="686.166"/>
      <point x="108.187" y="706.558" type="curve" smooth="yes"/>
      <point x="100.908" y="716.977"/>
      <point x="95.6172" y="724.624"/>
      <point x="90.3203" y="729.372" type="curve" smooth="yes"/>
      <point x="85.0361" y="734.109"/>
      <point x="82" y="741.113"/>
      <point x="82" y="748" type="curve" smooth="yes"/>
      <point x="82" y="748.3"/>
      <point x="82.0049" y="748.6"/>
      <point x="82.0156" y="748.898" type="curve" smooth="yes"/>
      <point x="84.0156" y="804.898" type="line" smooth="yes"/>
      <point x="84.2334" y="810.996"/>
      <point x="86.668" y="817.027"/>
      <point x="91.3174" y="821.678" type="curve" smooth="yes"/>
      <point x="96.1953" y="826.556"/>
      <point x="102.596" y="828.995"/>
      <point x="108.995" y="828.995" type="curve" smooth="yes"/>
      <point x="115.234" y="828.995"/>
      <point x="121.473" y="826.677"/>
      <point x="126.302" y="822.041" type="curve" smooth="yes"/>
      <point x="176.302" y="774.041" type="line" smooth="yes"/>
      <point x="176.95" y="773.418"/>
      <point x="177.574" y="772.752"/>
      <point x="178.146" y="772.072" type="curve" smooth="yes"/>
      <point x="196.871" y="749.804"/>
      <point x="206.271" y="724.438"/>
      <point x="211.491" y="697.571" type="curve"/>
      <point x="218.079" y="699.404"/>
      <point x="225.406" y="702.221"/>
      <point x="233.332" y="706.036" type="curve" smooth="yes"/>
      <point x="252.434" y="715.232"/>
      <point x="274.177" y="729.629"/>
      <point x="296.981" y="744.875" type="curve" smooth="yes"/>
      <point x="334.686" y="770.083"/>
      <point x="375.568" y="798.729"/>
      <point x="420.659" y="806.619" type="curve" smooth="yes"/>
      <point x="427.043" y="807.736"/>
      <point x="433.716" y="808.374"/>
      <point x="440.46" y="808.374" type="curve" smooth="yes"/>
      <point x="460.617" y="808.374"/>
      <point x="481.415" y="802.671"/>
      <point x="497.081" y="787.006" type="curve" smooth="yes"/>
      <point x="507.119" y="776.968"/>
      <point x="513.577" y="763.43"/>
      <point x="515.442" y="748.163" type="curve"/>
      <point x="521.79" y="736.85"/>
      <point x="523.418" y="725.804"/>
      <point x="524.981" y="718.098" type="curve" smooth="yes"/>
      <point x="526.594" y="710.144"/>
      <point x="528.251" y="705.179"/>
      <point x="528.519" y="704.728" type="curve" smooth="yes"/>
      <point x="530.833" y="700.816"/>
      <point x="531.99" y="696.408"/>
      <point x="531.99" y="692" type="curve" smooth="yes"/>
      <point x="531.99" y="685.601"/>
      <point x="529.551" y="679.2"/>
      <point x="524.673" y="674.322" type="curve" smooth="yes"/>
      <point x="519.795" y="669.444"/>
      <point x="513.395" y="667.005"/>
      <point x="506.995" y="667.005" type="curve" smooth="yes"/>
      <point x="498.188" y="667.005"/>
      <point x="489.638" y="672.234"/>
      <point x="485.472" y="679.272" type="curve" smooth="yes"/>
      <point x="478.957" y="690.28"/>
      <point x="477.55" y="700.427"/>
      <point x="475.993" y="708.103" type="curve" smooth="yes"/>
      <point x="474.002" y="717.921"/>
      <point x="471.948" y="723.714"/>
      <point x="470.918" y="725.099" type="curve" smooth="yes"/>
      <point x="467.75" y="729.357"/>
      <point x="466.113" y="734.399"/>
      <point x="466.006" y="739.467" type="curve" smooth="yes"/>
      <point x="465.857" y="746.49"/>
      <point x="463.95" y="749.426"/>
      <point x="461.726" y="751.65" type="curve" smooth="yes"/>
      <point x="458.336" y="755.04"/>
      <point x="450.184" y="758.271"/>
      <point x="439.364" y="758.271" type="curve" smooth="yes"/>
      <point x="436.228" y="758.271"/>
      <point x="432.865" y="758"/>
      <point x="429.331" y="757.381" type="curve" smooth="yes"/>
      <point x="399.931" y="752.236"/>
      <point x="362.854" y="728.76"/>
      <point x="324.744" y="703.281" type="curve" smooth="yes"/>
      <point x="301.912" y="688.017"/>
      <point x="278.795" y="672.421"/>
      <point x="255.041" y="660.985" type="curve" smooth="yes"/>
      <point x="242.795" y="655.089"/>
      <point x="230.142" y="650.129"/>
      <point x="216.976" y="647.364" type="curve"/>
      <point x="218.374" y="616.036"/>
      <point x="217.074" y="581.161"/>
      <point x="219.872" y="552.44" type="curve" smooth="yes"/>
      <point x="220.611" y="544.842"/>
      <point x="220.214" y="536.59"/>
      <point x="220.214" y="528.855" type="curve" smooth="yes"/>
      <point x="220.214" y="447.065"/>
      <point x="210.776" y="366.468"/>
      <point x="210.776" y="285.549" type="curve" smooth="yes"/>
      <point x="210.776" y="270.11"/>
      <point x="211.124" y="254.718"/>
      <point x="211.953" y="239.357" type="curve" smooth="yes"/>
      <point x="211.978" y="238.905"/>
      <point x="211.99" y="238.452"/>
      <point x="211.99" y="238" type="curve" smooth="yes"/>
      <point x="211.99" y="236.186"/>
      <point x="211.794" y="234.371"/>
      <point x="211.402" y="232.591" type="curve" smooth="yes"/>
      <point x="209.606" y="224.442"/>
      <point x="208.988" y="211.997"/>
      <point x="208.988" y="197.21" type="curve" smooth="yes"/>
      <point x="208.988" y="172.895"/>
      <point x="210.707" y="146.608"/>
      <point x="210.707" y="121.409" type="curve" smooth="yes"/>
      <point x="210.707" y="104.551"/>
      <point x="209.963" y="87.5049"/>
      <point x="207.488" y="71.1211" type="curve" smooth="yes"/>
      <point x="203.876" y="47.2031"/>
      <point x="196.509" y="22.9619"/>
      <point x="178.207" y="4.66016" type="curve" smooth="yes"/>
      <point x="162.521" y="-11.0254"/>
      <point x="140.614" y="-19.1787"/>
      <point x="115.011" y="-19.1787" type="curve" smooth="yes"/>
      <point x="111.163" y="-19.1787"/>
      <point x="107.286" y="-18.9336"/>
      <point x="103.455" y="-18.7676" type="curve" smooth="yes"/>
      <point x="93.125" y="-18.3213"/>
      <point x="78.0088" y="-18.5947"/>
      <point x="62.5176" y="-9.66895" type="curve" smooth="yes"/>
      <point x="55.3594" y="-5.54492"/>
      <point x="50" y="3.0752"/>
      <point x="50" y="12" type="curve" smooth="yes"/>
      <point x="50" y="18.3994"/>
      <point x="52.4395" y="24.7998"/>
      <point x="57.3174" y="29.6777" type="curve" smooth="yes"/>
      <point x="62.1953" y="34.5557"/>
      <point x="68.5957" y="36.9951"/>
      <point x="74.9951" y="36.9951" type="curve" smooth="yes"/>
      <point x="79.3096" y="36.9951"/>
      <point x="83.624" y="35.8867"/>
      <point x="87.4727" y="33.6689" type="curve" smooth="yes"/>
      <point x="88.9385" y="32.8252"/>
      <point x="94.3506" y="31.6631"/>
      <point x="105.631" y="31.1758" type="curve" smooth="yes"/>
      <point x="108.801" y="31.0381"/>
      <point x="112.684" y="30.7803"/>
      <point x="115.888" y="30.7803" type="curve" smooth="yes"/>
      <point x="130.521" y="30.7803"/>
      <point x="137.717" y="34.8799"/>
      <point x="142.852" y="40.0156" type="curve" smooth="yes"/>
      <point x="149.503" y="46.666"/>
      <point x="155.191" y="59.6318"/>
      <point x="158.062" y="78.6367" type="curve" smooth="yes"/>
      <point x="160.005" y="91.4941"/>
      <point x="160.629" y="106.365"/>
      <point x="160.629" y="122.02" type="curve" smooth="yes"/>
      <point x="160.629" y="147.38"/>
      <point x="158.746" y="174.638"/>
      <point x="158.746" y="199.728" type="curve" smooth="yes"/>
      <point x="158.746" y="213.821"/>
      <point x="159.464" y="227.338"/>
      <point x="161.867" y="239.902" type="curve"/>
      <point x="161.098" y="255.318"/>
      <point x="160.773" y="270.639"/>
    </contour>
  </outline>
</glyph>
<glyph name="G" format="2">
  <advance width="564"/>
  <unicode hex="0047"/>
  <outline>
    <contour>
      <point x="324.031" y="253" type="curve" smooth="yes"/>
      <point x="324.031" y="247.511"/>
      <point x="326.031" y="241.115"/>
      <point x="326.031" y="233" type="curve" smooth="yes"/>
      <point x="326.031" y="226.722"/>
      <point x="331.21" y="216.525"/>
      <point x="341.867" y="200.807" type="curve" smooth="yes"/>
      <point x="352.264" y="185.474"/>
      <point x="368.031" y="164.338"/>
      <point x="368.031" y="135" type="curve"/>
      <point x="368.284" y="135.697"/>
      <point x="368.473" y="136.027"/>
      <point x="368.596" y="136.027" type="curve" smooth="yes"/>
      <point x="368.714" y="136.027"/>
      <point x="368.772" y="135.725"/>
      <point x="368.772" y="135.148" type="curve" smooth="yes"/>
      <point x="368.772" y="126.348"/>
      <point x="355.028" y="53.8594"/>
      <point x="329.062" y="27.6719" type="curve" smooth="yes"/>
      <point x="299.212" y="-4.33789"/>
      <point x="254.613" y="-20.8174"/>
      <point x="213.756" y="-21.9844" type="curve" smooth="yes"/>
      <point x="213.516" y="-21.9912"/>
      <point x="213.276" y="-21.9951"/>
      <point x="213.036" y="-21.9951" type="curve" smooth="yes"/>
      <point x="209.829" y="-21.9951"/>
      <point x="206.622" y="-21.3828"/>
      <point x="203.606" y="-20.1572" type="curve" smooth="yes"/>
      <point x="186.237" y="-13.1016"/>
      <point x="171.034" y="-2.39551"/>
      <point x="157.906" y="10.7324" type="curve" smooth="yes"/>
      <point x="115.468" y="53.1709"/>
      <point x="93.2998" y="119.843"/>
      <point x="79.1689" y="190.138" type="curve" smooth="yes"/>
      <point x="61.4189" y="278.43"/>
      <point x="57.1035" y="375.371"/>
      <point x="53.9795" y="443.729" type="curve" smooth="yes"/>
      <point x="53.334" y="457.86"/>
      <point x="52.7441" y="470.746"/>
      <point x="52.1143" y="481.984" type="curve" smooth="yes"/>
      <point x="50.7129" y="495.506"/>
      <point x="50" y="509.17"/>
      <point x="50" y="522.844" type="curve" smooth="yes"/>
      <point x="50" y="603.273"/>
      <point x="74.6631" y="684.051"/>
      <point x="128.857" y="738.245" type="curve" smooth="yes"/>
      <point x="166.532" y="775.92"/>
      <point x="218.017" y="798.926"/>
      <point x="280.896" y="798.926" type="curve" smooth="yes"/>
      <point x="295.893" y="798.926"/>
      <point x="311.537" y="797.617"/>
      <point x="327.798" y="794.888" type="curve" smooth="yes"/>
      <point x="383.932" y="791.677"/>
      <point x="424.728" y="753.271"/>
      <point x="456.711" y="727.478" type="curve" smooth="yes"/>
      <point x="462.408" y="722.884"/>
      <point x="466.031" y="715.375"/>
      <point x="466.031" y="708" type="curve" smooth="yes"/>
      <point x="466.031" y="701.601"/>
      <point x="463.592" y="695.2"/>
      <point x="458.714" y="690.322" type="curve" smooth="yes"/>
      <point x="453.836" y="685.444"/>
      <point x="447.436" y="683.005"/>
      <point x="441.036" y="683.005" type="curve" smooth="yes"/>
      <point x="435.479" y="683.005"/>
      <point x="429.922" y="684.844"/>
      <point x="425.361" y="688.522" type="curve" smooth="yes"/>
      <point x="406.566" y="703.68"/>
      <point x="386.44" y="720.846"/>
      <point x="365.835" y="732.023" type="curve" smooth="yes"/>
      <point x="351.628" y="739.729"/>
      <point x="337.688" y="744.431"/>
      <point x="323.942" y="745.028" type="curve" smooth="yes"/>
      <point x="322.873" y="745.075"/>
      <point x="321.806" y="745.189"/>
      <point x="320.749" y="745.373" type="curve" smooth="yes"/>
      <point x="306.227" y="747.885"/>
      <point x="292.583" y="749.073"/>
      <point x="279.762" y="749.073" type="curve" smooth="yes"/>
      <point x="229.8" y="749.073"/>
      <point x="192.346" y="731.022"/>
      <point x="164.213" y="702.89" type="curve" smooth="yes"/>
      <point x="122.19" y="660.867"/>
      <point x="100.042" y="592.501"/>
      <point x="100.042" y="521.937" type="curve" smooth="yes"/>
      <point x="100.042" y="510.193"/>
      <point x="100.656" y="498.39"/>
      <point x="101.893" y="486.636" type="curve" smooth="yes"/>
      <point x="103.177" y="474.441"/>
      <point x="103.238" y="460.885"/>
      <point x="103.917" y="446.029" type="curve" smooth="yes"/>
      <point x="107.033" y="377.861"/>
      <point x="111.479" y="283.089"/>
      <point x="128.173" y="200.05" type="curve" smooth="yes"/>
      <point x="141.596" y="133.279"/>
      <point x="163.418" y="75.9316"/>
      <point x="193.262" y="46.0879" type="curve" smooth="yes"/>
      <point x="200.942" y="38.4072"/>
      <point x="209.048" y="32.4893"/>
      <point x="217.731" y="28.2676" type="curve"/>
      <point x="245.427" y="30.3623"/>
      <point x="274.68" y="42.5322"/>
      <point x="292.682" y="61.9746" type="curve" smooth="yes"/>
      <point x="292.902" y="62.2119"/>
      <point x="293.128" y="62.4463"/>
      <point x="293.358" y="62.6777" type="curve" smooth="yes"/>
      <point x="309.646" y="78.9658"/>
      <point x="318.041" y="107.188"/>
      <point x="318.041" y="135" type="curve" smooth="yes"/>
      <point x="318.041" y="144.718"/>
      <point x="311.625" y="156.301"/>
      <point x="300.454" y="172.776" type="curve" smooth="yes"/>
      <point x="290.711" y="187.146"/>
      <point x="276.041" y="206.224"/>
      <point x="276.041" y="233" type="curve" smooth="yes"/>
      <point x="276.041" y="238.843"/>
      <point x="274.041" y="244.991"/>
      <point x="274.041" y="253" type="curve" smooth="yes"/>
      <point x="274.041" y="269.176"/>
      <point x="281.062" y="283.141"/>
      <point x="290.723" y="292.802" type="curve" smooth="yes"/>
      <point x="308.368" y="310.447"/>
      <point x="332.635" y="315.995"/>
      <point x="353.036" y="315.995" type="curve" smooth="yes"/>
      <point x="373.977" y="315.995"/>
      <point x="394.881" y="318.59"/>
      <point x="415.471" y="318.59" type="curve" smooth="yes"/>
      <point x="421.734" y="318.59"/>
      <point x="427.961" y="318.294"/>
      <point x="434.189" y="317.483" type="curve" smooth="yes"/>
      <point x="446.445" y="315.887"/>
      <point x="460.284" y="311.938"/>
      <point x="471.383" y="300.84" type="curve" smooth="yes"/>
      <point x="483.621" y="288.603"/>
      <point x="488.031" y="271.705"/>
      <point x="488.031" y="254" type="curve" smooth="yes"/>
      <point x="488.031" y="219.705"/>
      <point x="474.845" y="191.001"/>
      <point x="463.953" y="165.999" type="curve" smooth="yes"/>
      <point x="452.845" y="140.501"/>
      <point x="444.031" y="118.705"/>
      <point x="444.031" y="98" type="curve" smooth="yes"/>
      <point x="444.031" y="97.9346"/>
      <point x="443.939" y="97.8945"/>
      <point x="443.939" y="97.7266" type="curve" smooth="yes"/>
      <point x="443.939" y="97.2197"/>
      <point x="444.781" y="95.541"/>
      <point x="451.568" y="88.4092" type="curve" smooth="yes"/>
      <point x="452.826" y="87.0869"/>
      <point x="454.237" y="85.625"/>
      <point x="455.734" y="83.9863" type="curve"/>
      <point x="491.218" y="80.9004" type="line" smooth="yes"/>
      <point x="503.533" y="79.8291"/>
      <point x="514.031" y="68.875"/>
      <point x="514.031" y="56" type="curve" smooth="yes"/>
      <point x="514.031" y="49.6006"/>
      <point x="511.592" y="43.2002"/>
      <point x="506.714" y="38.3223" type="curve" smooth="yes"/>
      <point x="501.836" y="33.4443"/>
      <point x="495.436" y="31.0049"/>
      <point x="489.036" y="31.0049" type="curve" smooth="yes"/>
      <point x="488.309" y="31.0049"/>
      <point x="487.581" y="31.0361"/>
      <point x="486.855" y="31.0996" type="curve" smooth="yes"/>
      <point x="440.855" y="35.0996" type="line" smooth="yes"/>
      <point x="433.589" y="35.7314"/>
      <point x="426.489" y="39.9746"/>
      <point x="422.466" y="45.7852" type="curve" smooth="yes"/>
      <point x="421.1" y="47.7598"/>
      <point x="418.697" y="50.4219"/>
      <point x="415.335" y="53.9541" type="curve" smooth="yes"/>
      <point x="408.678" y="60.9482"/>
      <point x="394.041" y="74.9229"/>
      <point x="394.041" y="98" type="curve" smooth="yes"/>
      <point x="394.041" y="132.295"/>
      <point x="407.228" y="160.999"/>
      <point x="418.119" y="186.001" type="curve" smooth="yes"/>
      <point x="429.228" y="211.499"/>
      <point x="438.041" y="233.295"/>
      <point x="438.041" y="254" type="curve" smooth="yes"/>
      <point x="438.041" y="264.404"/>
      <point x="436.027" y="265.484"/>
      <point x="436.027" y="265.484" type="curve"/>
      <point x="436.027" y="265.484"/>
      <point x="434.439" y="267.035"/>
      <point x="427.689" y="267.914" type="curve" smooth="yes"/>
      <point x="424.588" y="268.318"/>
      <point x="420.707" y="268.486"/>
      <point x="416.195" y="268.486" type="curve" smooth="yes"/>
      <point x="396.306" y="268.486"/>
      <point x="374.99" y="266.005"/>
      <point x="353.036" y="266.005" type="curve" smooth="yes"/>
      <point x="342.125" y="266.005"/>
      <point x="329.971" y="261.339"/>
      <point x="326.078" y="257.446" type="curve" smooth="yes"/>
      <point x="324.262" y="255.631"/>
      <point x="324.031" y="254.901"/>
    </contour>
  </outline>
</glyph>
<glyph name="H" format="2">
  <advance width="821"/>
  <unicode hex="0048"/>
  <outline>
    <contour>
      <point x="537.736" y="515.235" type="curve"/>
      <point x="534.689" y="544.104"/>
      <point x="531.263" y="573.802"/>
      <point x="531.263" y="604.795" type="curve" smooth="yes"/>
      <point x="531.263" y="612.741"/>
      <point x="531.488" y="620.772"/>
      <point x="532.005" y="628.896" type="curve" smooth="yes"/>
      <point x="532.171" y="643.427"/>
      <point x="536.254" y="678.869"/>
      <point x="544.695" y="715.873" type="curve" smooth="yes"/>
      <point x="548.492" y="732.519"/>
      <point x="553.138" y="749.084"/>
      <point x="559.208" y="763.765" type="curve" smooth="yes"/>
      <point x="564.049" y="775.471"/>
      <point x="569.568" y="786.371"/>
      <point x="578.794" y="795.597" type="curve" smooth="yes"/>
      <point x="585.522" y="802.325"/>
      <point x="595.753" y="808.995"/>
      <point x="608.995" y="808.995" type="curve" smooth="yes"/>
      <point x="617.122" y="808.995"/>
      <point x="624.48" y="805.053"/>
      <point x="628.786" y="800.747" type="curve" smooth="yes"/>
      <point x="633.7" y="795.833"/>
      <point x="635.337" y="791.419"/>
      <point x="636.474" y="788.097" type="curve" smooth="yes"/>
      <point x="639.944" y="777.957"/>
      <point x="639.474" y="764.564"/>
      <point x="639.778" y="753.396" type="curve" smooth="yes"/>
      <point x="643.854" y="729.948"/>
      <point x="645.777" y="707.558"/>
      <point x="645.777" y="686.164" type="curve" smooth="yes"/>
      <point x="645.777" y="634.175"/>
      <point x="634.422" y="588.077"/>
      <point x="615.017" y="547.04" type="curve" smooth="yes"/>
      <point x="607.53" y="531.209"/>
      <point x="598.903" y="516.167"/>
      <point x="589.363" y="501.796" type="curve" smooth="yes"/>
      <point x="589.455" y="500.844"/>
      <point x="589.547" y="499.89"/>
      <point x="589.638" y="498.935" type="curve" smooth="yes"/>
      <point x="604.471" y="449.893"/>
      <point x="604.681" y="390.335"/>
      <point x="605.49" y="330.691" type="curve" smooth="yes"/>
      <point x="606.736" y="238.845"/>
      <point x="608.747" y="143.593"/>
      <point x="653.98" y="98.3594" type="curve" smooth="yes"/>
      <point x="662.755" y="89.585"/>
      <point x="673.207" y="82.4727"/>
      <point x="686.343" y="77.1904" type="curve" smooth="yes"/>
      <point x="697.586" y="72.6699"/>
      <point x="741.617" y="49.8545"/>
      <point x="750.789" y="45.0898" type="curve" smooth="yes"/>
      <point x="756.368" y="43.2305"/>
      <point x="760.631" y="41.7197"/>
      <point x="764.673" y="37.6777" type="curve" smooth="yes"/>
      <point x="769.551" y="32.7998"/>
      <point x="771.99" y="26.3994"/>
      <point x="771.99" y="20" type="curve" smooth="yes"/>
      <point x="771.99" y="13.6006"/>
      <point x="769.551" y="7.2002"/>
      <point x="764.673" y="2.32227" type="curve" smooth="yes"/>
      <point x="759.795" y="-2.55566"/>
      <point x="753.395" y="-4.99512"/>
      <point x="746.995" y="-4.99512" type="curve" smooth="yes"/>
      <point x="741.829" y="-4.99512"/>
      <point x="737.183" y="-3.08398"/>
      <point x="733.062" y="-1.70996" type="curve" smooth="yes"/>
      <point x="728.66" y="-0.243164"/>
      <point x="686.171" y="22.3857"/>
      <point x="667.647" y="30.8096" type="curve" smooth="yes"/>
      <point x="648.477" y="38.5186"/>
      <point x="632.117" y="49.5117"/>
      <point x="618.626" y="63.0039" type="curve" smooth="yes"/>
      <point x="589.979" y="91.6514"/>
      <point x="575.33" y="129.688"/>
      <point x="567.104" y="170.036" type="curve" smooth="yes"/>
      <point x="556.783" y="220.654"/>
      <point x="556.229" y="276.66"/>
      <point x="555.504" y="330.009" type="curve" smooth="yes"/>
      <point x="554.911" y="373.752"/>
      <point x="554.021" y="415.664"/>
      <point x="549.052" y="450.038" type="curve"/>
      <point x="494.307" y="388.797"/>
      <point x="426.906" y="340.091"/>
      <point x="363.673" y="288.217" type="curve"/>
      <point x="365.378" y="249.968"/>
      <point x="366.868" y="216.809"/>
      <point x="366.868" y="176.609" type="curve" smooth="yes"/>
      <point x="366.868" y="153.091"/>
      <point x="365.857" y="125.567"/>
      <point x="361.78" y="98.6279" type="curve" smooth="yes"/>
      <point x="356.593" y="64.3457"/>
      <point x="346.854" y="28.7256"/>
      <point x="322.076" y="3.94824" type="curve" smooth="yes"/>
      <point x="306.796" y="-11.332"/>
      <point x="285.675" y="-20.9951"/>
      <point x="260.995" y="-20.9951" type="curve" smooth="yes"/>
      <point x="231.299" y="-20.9951"/>
      <point x="199.201" y="-6.91016"/>
      <point x="176.924" y="15.3672" type="curve" smooth="yes"/>
      <point x="162.152" y="30.1387"/>
      <point x="150.703" y="50.8203"/>
      <point x="150.703" y="74.6426" type="curve" smooth="yes"/>
      <point x="150.703" y="80.2891"/>
      <point x="151.304" y="86.5225"/>
      <point x="152.803" y="92.3037" type="curve" smooth="yes"/>
      <point x="176.89" y="185.215"/>
      <point x="245.382" y="253.95"/>
      <point x="312.566" y="310.771" type="curve"/>
      <point x="309.018" y="383.22"/>
      <point x="304.28" y="457.047"/>
      <point x="304.28" y="531.422" type="curve" smooth="yes"/>
      <point x="304.28" y="555.263"/>
      <point x="304.766" y="579.204"/>
      <point x="305.933" y="603.259" type="curve"/>
      <point x="304.728" y="614.799"/>
      <point x="304.04" y="628.632"/>
      <point x="304.04" y="643.537" type="curve" smooth="yes"/>
      <point x="304.04" y="663.173"/>
      <point x="305.232" y="684.669"/>
      <point x="308" y="705.235" type="curve"/>
      <point x="266.137" y="707.388"/>
      <point x="233.157" y="724.189"/>
      <point x="204.314" y="738.509" type="curve" smooth="yes"/>
      <point x="172.759" y="754.176"/>
      <point x="145.958" y="767.005"/>
      <point x="112.995" y="767.005" type="curve" smooth="yes"/>
      <point x="108.55" y="767.005"/>
      <point x="105.27" y="766.173"/>
      <point x="99.9902" y="764.265" type="curve"/>
      <point x="99.9902" y="718.492" type="line"/>
      <point x="109.502" y="670.932" type="line" smooth="yes"/>
      <point x="109.827" y="669.305"/>
      <point x="109.99" y="667.652"/>
      <point x="109.99" y="666" type="curve" smooth="yes"/>
      <point x="109.99" y="659.601"/>
      <point x="107.551" y="653.2"/>
      <point x="102.673" y="648.322" type="curve" smooth="yes"/>
      <point x="97.7949" y="643.444"/>
      <point x="91.3945" y="641.005"/>
      <point x="84.9951" y="641.005" type="curve" smooth="yes"/>
      <point x="73.0098" y="641.005"/>
      <point x="62.6719" y="650.151"/>
      <point x="60.4883" y="661.068" type="curve" smooth="yes"/>
      <point x="50.4883" y="711.068" type="line" smooth="yes"/>
      <point x="50.1631" y="712.695"/>
      <point x="50" y="714.348"/>
      <point x="50" y="716" type="curve" smooth="yes"/>
      <point x="50" y="782" type="line" smooth="yes"/>
      <point x="50" y="793.401"/>
      <point x="58.3389" y="803.396"/>
      <point x="68.4424" y="806.126" type="curve" smooth="yes"/>
      <point x="81.8564" y="809.752"/>
      <point x="91.793" y="816.995"/>
      <point x="112.995" y="816.995" type="curve" smooth="yes"/>
      <point x="159.649" y="816.995"/>
      <point x="195.55" y="798.694"/>
      <point x="226.564" y="783.296" type="curve" smooth="yes"/>
      <point x="257.995" y="767.691"/>
      <point x="284.557" y="754.995"/>
      <point x="316.995" y="754.995" type="curve" smooth="yes"/>
      <point x="317.9" y="754.995"/>
      <point x="318.773" y="755.025"/>
      <point x="319.614" y="755.081" type="curve" smooth="yes"/>
      <point x="325.887" y="771.734"/>
      <point x="336.337" y="788.782"/>
      <point x="354.279" y="795.435" type="curve" smooth="yes"/>
      <point x="357.085" y="796.475"/>
      <point x="360.04" y="796.995"/>
      <point x="362.995" y="796.995" type="curve" smooth="yes"/>
      <point x="369.395" y="796.995"/>
      <point x="375.795" y="794.556"/>
      <point x="380.673" y="789.678" type="curve" smooth="yes"/>
      <point x="385.551" y="784.8"/>
      <point x="387.99" y="778.399"/>
      <point x="387.99" y="772" type="curve" smooth="yes"/>
      <point x="387.99" y="748.838"/>
      <point x="376.951" y="729.009"/>
      <point x="360.852" y="717.797" type="curve"/>
      <point x="356.228" y="696.216"/>
      <point x="354.134" y="667.621"/>
      <point x="354.134" y="643.091" type="curve" smooth="yes"/>
      <point x="354.134" y="629.048"/>
      <point x="354.765" y="616.298"/>
      <point x="355.832" y="606.817" type="curve" smooth="yes"/>
      <point x="355.938" y="605.882"/>
      <point x="355.99" y="604.94"/>
      <point x="355.99" y="604" type="curve" smooth="yes"/>
      <point x="355.99" y="603.58"/>
      <point x="355.979" y="603.16"/>
      <point x="355.959" y="602.74" type="curve" smooth="yes"/>
      <point x="354.774" y="579.088"/>
      <point x="354.28" y="555.419"/>
      <point x="354.28" y="531.717" type="curve" smooth="yes"/>
      <point x="354.28" y="471.514"/>
      <point x="357.483" y="410.804"/>
      <point x="360.627" y="350.074" type="curve"/>
      <point x="405.455" y="385.952"/>
      <point x="451.784" y="422.178"/>
      <point x="490.126" y="460.52" type="curve" smooth="yes"/>
      <point x="507.693" y="478.087"/>
      <point x="523.746" y="496.212"/>
    </contour>
    <contour>
      <point x="581.271" y="605.246" type="curve" smooth="yes"/>
      <point x="581.271" y="602.413"/>
      <point x="581.304" y="599.574"/>
      <point x="581.366" y="596.728" type="curve"/>
      <point x="590.64" y="623.643"/>
      <point x="595.897" y="652.855"/>
      <point x="595.897" y="685.458" type="curve" smooth="yes"/>
      <point x="595.897" y="693.686"/>
      <point x="595.563" y="702.129"/>
      <point x="594.873" y="710.806" type="curve"/>
      <point x="594.378" y="708.783"/>
      <point x="593.896" y="706.743"/>
      <point x="593.428" y="704.693" type="curve" smooth="yes"/>
      <point x="585.861" y="671.525"/>
      <point x="581.99" y="633.75"/>
      <point x="581.99" y="628" type="curve" smooth="yes"/>
      <point x="581.99" y="620.439"/>
      <point x="581.271" y="612.873"/>
    </contour>
    <contour>
      <point x="315.282" y="246.656" type="curve"/>
      <point x="307.265" y="239.34"/>
      <point x="299.492" y="231.959"/>
      <point x="292.021" y="224.488" type="curve" smooth="yes"/>
      <point x="248.533" y="181"/>
      <point x="215.604" y="134.896"/>
      <point x="201.295" y="80.1094" type="curve" smooth="yes"/>
      <point x="200.87" y="78.1406"/>
      <point x="200.653" y="76.1963"/>
      <point x="200.653" y="74.2676" type="curve" smooth="yes"/>
      <point x="200.653" y="48.3779"/>
      <point x="239.729" y="29.7578"/>
      <point x="261.349" y="28.9961" type="curve" smooth="yes"/>
      <point x="272.892" y="29.0674"/>
      <point x="280.043" y="32.625"/>
      <point x="286.721" y="39.3037" type="curve" smooth="yes"/>
      <point x="298.382" y="50.9648"/>
      <point x="307.772" y="75.8682"/>
      <point x="312.356" y="106.157" type="curve" smooth="yes"/>
      <point x="315.918" y="129.688"/>
      <point x="316.828" y="155.129"/>
      <point x="316.828" y="177.478" type="curve" smooth="yes"/>
      <point x="316.828" y="203.487"/>
      <point x="316.09" y="222.532"/>
    </contour>
  </outline>
</glyph>
<glyph name="I" format="2">
  <advance width="326"/>
  <unicode hex="0049"/>
  <outline>
    <contour>
      <point x="228.016" y="824" type="curve" smooth="yes"/>
      <point x="228.016" y="821.716"/>
      <point x="228" y="819.432"/>
      <point x="228" y="817.148" type="curve" smooth="yes"/>
      <point x="228" y="707.522"/>
      <point x="239.671" y="598.91"/>
      <point x="251.583" y="488.513" type="curve" smooth="yes"/>
      <point x="263.679" y="376.413"/>
      <point x="276.016" y="262.476"/>
      <point x="276.016" y="144" type="curve" smooth="yes"/>
      <point x="276.016" y="88.9062"/>
      <point x="253.14" y="34.1973"/>
      <point x="219.642" y="0.699219" type="curve" smooth="yes"/>
      <point x="206.084" y="-12.8584"/>
      <point x="190.14" y="-23.5742"/>
      <point x="171.5" y="-27.8535" type="curve" smooth="yes"/>
      <point x="166.327" y="-29.041"/>
      <point x="161.087" y="-29.6318"/>
      <point x="155.851" y="-29.6318" type="curve" smooth="yes"/>
      <point x="136.642" y="-29.6318"/>
      <point x="117.494" y="-21.6875"/>
      <point x="101.967" y="-6.16016" type="curve" smooth="yes"/>
      <point x="91.1484" y="4.6582"/>
      <point x="82.1006" y="18.5127"/>
      <point x="74.2891" y="35.583" type="curve" smooth="yes"/>
      <point x="73.6152" y="37.0566"/>
      <point x="73.0908" y="38.5811"/>
      <point x="72.7188" y="40.1357" type="curve" smooth="yes"/>
      <point x="60.7188" y="90.1357" type="line" smooth="yes"/>
      <point x="60.2559" y="92.0605"/>
      <point x="60.0254" y="94.0303"/>
      <point x="60.0254" y="96" type="curve" smooth="yes"/>
      <point x="60.0254" y="102.399"/>
      <point x="62.4648" y="108.8"/>
      <point x="67.3428" y="113.678" type="curve" smooth="yes"/>
      <point x="72.2207" y="118.556"/>
      <point x="78.6211" y="120.995"/>
      <point x="85.0205" y="120.995" type="curve" smooth="yes"/>
      <point x="96.667" y="120.995"/>
      <point x="106.812" y="112.326"/>
      <point x="109.322" y="101.864" type="curve" smooth="yes"/>
      <point x="120.735" y="54.3105" type="line"/>
      <point x="126.406" y="42.4072"/>
      <point x="132.258" y="34.2598"/>
      <point x="137.322" y="29.1943" type="curve" smooth="yes"/>
      <point x="144.209" y="22.3086"/>
      <point x="149.483" y="20.1504"/>
      <point x="154.658" y="20.1504" type="curve" smooth="yes"/>
      <point x="156.513" y="20.1504"/>
      <point x="158.354" y="20.4277"/>
      <point x="160.253" y="20.8633" type="curve" smooth="yes"/>
      <point x="166.692" y="22.3418"/>
      <point x="175.411" y="27.1797"/>
      <point x="184.286" y="36.0547" type="curve" smooth="yes"/>
      <point x="206.794" y="58.5625"/>
      <point x="226.025" y="102.736"/>
      <point x="226.025" y="144" type="curve" smooth="yes"/>
      <point x="226.025" y="294.515"/>
      <point x="204.995" y="443.477"/>
      <point x="191.038" y="587.005" type="curve"/>
      <point x="105.021" y="587.005" type="line" smooth="yes"/>
      <point x="99.1943" y="587.005"/>
      <point x="93.3682" y="589.026"/>
      <point x="88.6904" y="593.069" type="curve" smooth="yes"/>
      <point x="73.0176" y="606.613"/>
      <point x="60.5996" y="625.044"/>
      <point x="54.8027" y="643.865" type="curve" smooth="yes"/>
      <point x="51.4814" y="654.648"/>
      <point x="50" y="665.603"/>
      <point x="50" y="676.474" type="curve" smooth="yes"/>
      <point x="50" y="690.958"/>
      <point x="52.6299" y="705.293"/>
      <point x="57.0381" y="718.874" type="curve" smooth="yes"/>
      <point x="66.708" y="748.66"/>
      <point x="84.9717" y="775.974"/>
      <point x="107.154" y="798.156" type="curve" smooth="yes"/>
      <point x="133.381" y="824.384"/>
      <point x="165.728" y="844.476"/>
      <point x="199.859" y="848.796" type="curve" smooth="yes"/>
      <point x="200.908" y="848.929"/>
      <point x="201.965" y="848.995"/>
      <point x="203.021" y="848.995" type="curve" smooth="yes"/>
      <point x="209.42" y="848.995"/>
      <point x="215.819" y="846.556"/>
      <point x="220.698" y="841.678" type="curve" smooth="yes"/>
      <point x="225.576" y="836.8"/>
      <point x="228.016" y="830.399"/>
    </contour>
    <contour>
      <point x="99.9902" y="676.53" type="curve" smooth="yes"/>
      <point x="99.9902" y="670.208"/>
      <point x="100.853" y="664.224"/>
      <point x="102.572" y="658.642" type="curve" smooth="yes"/>
      <point x="104.895" y="651.104"/>
      <point x="108.811" y="643.914"/>
      <point x="115.11" y="636.995" type="curve"/>
      <point x="186.477" y="636.995" type="line"/>
      <point x="182.213" y="687.485"/>
      <point x="179.091" y="738.246"/>
      <point x="178.241" y="789.528" type="curve"/>
      <point x="166.265" y="783.197"/>
      <point x="153.79" y="774.082"/>
      <point x="142.51" y="762.802" type="curve" smooth="yes"/>
      <point x="125.273" y="745.565"/>
      <point x="111.271" y="723.986"/>
      <point x="104.581" y="703.379" type="curve" smooth="yes"/>
      <point x="101.516" y="693.937"/>
      <point x="99.9902" y="684.936"/>
    </contour>
  </outline>
</glyph>
